<svg xmlns="http://www.w3.org/2000/svg" xmlns:xlink="http://www.w3.org/1999/xlink" contentStyleType="text/css" data-diagram-type="ACTIVITY" height="910px" preserveAspectRatio="none" style="width:684px;height:910px;background:#FFFFFF;" version="1.1" viewBox="0 0 684 910" width="684px" zoomAndPan="magnify"><?plantuml 1.2026.5?><defs/><g><g class="title" data-source-line="13"><text fill="#000000" font-family="sans-serif" font-size="14" font-weight="700" lengthAdjust="spacing" textLength="398.3779" x="142.3071" y="33.5352">RaiImage Background Removal and Transparent Export</text></g><ellipse cx="383.0244" cy="62.4883" fill="#222222" rx="10" ry="10" style="stroke:#222222;stroke-width:1;"/><rect fill="#F1F1F1" height="34.1328" rx="12.5" ry="12.5" style="stroke:#181818;stroke-width:0.5;" width="184.5488" x="290.75" y="92.4883"/><text fill="#000000" font-family="sans-serif" font-size="12" lengthAdjust="spacing" textLength="164.5488" x="300.75" y="114.0898">Receive portrait image input</text><rect fill="#F1F1F1" height="34.1328" rx="12.5" ry="12.5" style="stroke:#181818;stroke-width:0.5;" width="179.873" x="293.0879" y="146.6211"/><text fill="#000000" font-family="sans-serif" font-size="12" lengthAdjust="spacing" textLength="159.873" x="303.0879" y="168.2227">Create ImageMagick facade</text><rect fill="#F1F1F1" height="34.1328" rx="12.5" ry="12.5" style="stroke:#181818;stroke-width:0.5;" width="204.1309" x="280.959" y="200.7539"/><text fill="#000000" font-family="sans-serif" font-size="12" lengthAdjust="spacing" textLength="184.1309" x="290.959" y="222.3555">Load or reference source image</text><polygon fill="#F1F1F1" points="317.916,254.8867,448.1328,254.8867,460.1328,266.8867,448.1328,278.8867,317.916,278.8867,305.916,266.8867,317.916,254.8867" style="stroke:#181818;stroke-width:0.5;stroke-linejoin:miter;stroke-miterlimit:10;"/><text fill="#000000" font-family="sans-serif" font-size="11" lengthAdjust="spacing" textLength="130.2168" x="317.916" y="271.0439">Need raster source first?</text><text fill="#374151" font-family="'Casual'" font-size="11" lengthAdjust="spacing" textLength="17.4829" x="288.4331" y="264.5664">yes</text><text fill="#374151" font-family="'Casual'" font-size="11" lengthAdjust="spacing" textLength="13.5835" x="460.1328" y="264.5664">no</text><rect fill="#F1F1F1" height="34.1328" rx="12.5" ry="12.5" style="stroke:#181818;stroke-width:0.5;" width="261.998" x="121.6772" y="288.8867"/><text fill="#000000" font-family="sans-serif" font-size="12" lengthAdjust="spacing" textLength="241.998" x="131.6772" y="310.4883">Convert source into working raster image</text><rect fill="#F1F1F1" height="34.1328" rx="12.5" ry="12.5" style="stroke:#181818;stroke-width:0.5;" width="219.3945" x="403.6753" y="288.8867"/><text fill="#000000" font-family="sans-serif" font-size="12" lengthAdjust="spacing" textLength="199.3945" x="413.6753" y="310.4883">Use input as working raster image</text><polygon fill="#F1F1F1" points="383.0244,329.0195,395.0244,341.0195,383.0244,353.0195,371.0244,341.0195,383.0244,329.0195" style="stroke:#181818;stroke-width:0.5;stroke-linejoin:miter;stroke-miterlimit:10;"/><rect fill="#F1F1F1" height="48.2656" rx="12.5" ry="12.5" style="stroke:#181818;stroke-width:0.5;" width="280.9238" x="242.5625" y="373.0195"/><text fill="#000000" font-family="sans-serif" font-size="12" lengthAdjust="spacing" textLength="257.6543" x="252.5625" y="394.6211">Run background-removal convert command</text><text fill="#000000" font-family="sans-serif" font-size="12" lengthAdjust="spacing" textLength="260.9238" x="252.5625" y="408.7539">(alpha set, fuzz, transparent color or similar)</text><polygon fill="#F1F1F1" points="310.0259,441.2852,456.0229,441.2852,468.0229,453.2852,456.0229,465.2852,310.0259,465.2852,298.0259,453.2852,310.0259,441.2852" style="stroke:#181818;stroke-width:0.5;stroke-linejoin:miter;stroke-miterlimit:10;"/><text fill="#000000" font-family="sans-serif" font-size="11" lengthAdjust="spacing" textLength="145.9971" x="310.0259" y="457.4424">Transparent result created?</text><text fill="#374151" font-family="'Casual'" font-size="11" lengthAdjust="spacing" textLength="17.4829" x="280.543" y="450.9648">yes</text><text fill="#374151" font-family="'Casual'" font-size="11" lengthAdjust="spacing" textLength="13.5835" x="468.0229" y="450.9648">no</text><rect fill="#F1F1F1" height="34.1328" rx="12.5" ry="12.5" style="stroke:#181818;stroke-width:0.5;" width="145.0508" x="137.7832" y="475.2852"/><text fill="#000000" font-family="sans-serif" font-size="12" lengthAdjust="spacing" textLength="125.0508" x="147.7832" y="496.8867">Save transparent PNG</text><rect fill="#F1F1F1" height="34.1328" rx="12.5" ry="12.5" style="stroke:#181818;stroke-width:0.5;" width="151.1855" x="134.7158" y="529.418"/><text fill="#000000" font-family="sans-serif" font-size="12" lengthAdjust="spacing" textLength="131.1855" x="144.7158" y="551.0195">Save transparent WEBP</text><rect fill="#F1F1F1" height="48.2656" rx="12.5" ry="12.5" style="stroke:#181818;stroke-width:0.5;" width="279.2012" x="70.708" y="583.5508"/><text fill="#000000" font-family="sans-serif" font-size="12" lengthAdjust="spacing" textLength="259.2012" x="80.708" y="605.1523">Optionally composite onto test backgrounds</text><text fill="#000000" font-family="sans-serif" font-size="12" lengthAdjust="spacing" textLength="148.2656" x="80.708" y="619.2852">(Nomsa red, black, white)</text><rect fill="#F1F1F1" height="48.2656" rx="12.5" ry="12.5" style="stroke:#181818;stroke-width:0.5;" width="238.3086" x="91.1543" y="651.8164"/><text fill="#000000" font-family="sans-serif" font-size="12" lengthAdjust="spacing" textLength="218.3086" x="101.1543" y="673.418">Identify corner and foreground pixels</text><text fill="#000000" font-family="sans-serif" font-size="12" lengthAdjust="spacing" textLength="85.1953" x="101.1543" y="687.5508">for verification</text><polygon fill="#F1F1F1" points="157.8679,720.082,262.7493,720.082,274.7493,732.082,262.7493,744.082,157.8679,744.082,145.8679,732.082,157.8679,720.082" style="stroke:#181818;stroke-width:0.5;stroke-linejoin:miter;stroke-miterlimit:10;"/><text fill="#000000" font-family="sans-serif" font-size="11" lengthAdjust="spacing" textLength="104.8813" x="157.8679" y="736.2393">Verification passes?</text><text fill="#374151" font-family="'Casual'" font-size="11" lengthAdjust="spacing" textLength="17.4829" x="128.385" y="729.7617">yes</text><text fill="#374151" font-family="'Casual'" font-size="11" lengthAdjust="spacing" textLength="13.5835" x="274.7493" y="729.7617">no</text><rect fill="#F1F1F1" height="34.1328" rx="12.5" ry="12.5" style="stroke:#181818;stroke-width:0.5;" width="178.373" x="16" y="754.082"/><text fill="#000000" font-family="sans-serif" font-size="12" lengthAdjust="spacing" textLength="158.373" x="26" y="775.6836">Return transparent outputs</text><rect fill="#F1F1F1" height="34.1328" rx="12.5" ry="12.5" style="stroke:#181818;stroke-width:0.5;" width="202.1152" x="214.373" y="754.082"/><text fill="#000000" font-family="sans-serif" font-size="12" lengthAdjust="spacing" textLength="182.1152" x="224.373" y="775.6836">Return validation failure details</text><polygon fill="#F1F1F1" points="210.3086,794.2148,222.3086,806.2148,210.3086,818.2148,198.3086,806.2148,210.3086,794.2148" style="stroke:#181818;stroke-width:0.5;stroke-linejoin:miter;stroke-miterlimit:10;"/><rect fill="#F1F1F1" height="34.1328" rx="12.5" ry="12.5" style="stroke:#181818;stroke-width:0.5;" width="218.5039" x="446.4883" y="475.2852"/><text fill="#000000" font-family="sans-serif" font-size="12" lengthAdjust="spacing" textLength="198.5039" x="456.4883" y="496.8867">Capture stderr / command output</text><rect fill="#F1F1F1" height="34.1328" rx="12.5" ry="12.5" style="stroke:#181818;stroke-width:0.5;" width="208.8887" x="451.2959" y="529.418"/><text fill="#000000" font-family="sans-serif" font-size="12" lengthAdjust="spacing" textLength="188.8887" x="461.2959" y="551.0195">Return image-processing failure</text><polygon fill="#F1F1F1" points="383.0244,824.2148,395.0244,836.2148,383.0244,848.2148,371.0244,836.2148,383.0244,824.2148" style="stroke:#181818;stroke-width:0.5;stroke-linejoin:miter;stroke-miterlimit:10;"/><ellipse cx="383.0244" cy="879.2148" fill="none" rx="11" ry="11" style="stroke:#222222;stroke-width:1;"/><ellipse cx="383.0244" cy="879.2148" fill="#222222" rx="6" ry="6" style="stroke:#222222;stroke-width:1;"/><line style="stroke:#9B2C2C;stroke-width:1;" x1="383.0244" x2="383.0244" y1="72.4883" y2="92.4883"/><polygon fill="#9B2C2C" points="379.0244,82.4883,383.0244,92.4883,387.0244,82.4883,383.0244,86.4883" style="stroke:#9B2C2C;stroke-width:1;stroke-linejoin:miter;stroke-miterlimit:10;"/><line style="stroke:#9B2C2C;stroke-width:1;" x1="383.0244" x2="383.0244" y1="126.6211" y2="146.6211"/><polygon fill="#9B2C2C" points="379.0244,136.6211,383.0244,146.6211,387.0244,136.6211,383.0244,140.6211" style="stroke:#9B2C2C;stroke-width:1;stroke-linejoin:miter;stroke-miterlimit:10;"/><line style="stroke:#9B2C2C;stroke-width:1;" x1="383.0244" x2="383.0244" y1="180.7539" y2="200.7539"/><polygon fill="#9B2C2C" points="379.0244,190.7539,383.0244,200.7539,387.0244,190.7539,383.0244,194.7539" style="stroke:#9B2C2C;stroke-width:1;stroke-linejoin:miter;stroke-miterlimit:10;"/><line style="stroke:#9B2C2C;stroke-width:1;" x1="305.916" x2="252.6763" y1="266.8867" y2="266.8867"/><line style="stroke:#9B2C2C;stroke-width:1;" x1="252.6763" x2="252.6763" y1="266.8867" y2="288.8867"/><polygon fill="#9B2C2C" points="248.6763,278.8867,252.6763,288.8867,256.6763,278.8867,252.6763,282.8867" style="stroke:#9B2C2C;stroke-width:1;stroke-linejoin:miter;stroke-miterlimit:10;"/><line style="stroke:#9B2C2C;stroke-width:1;" x1="460.1328" x2="513.3726" y1="266.8867" y2="266.8867"/><line style="stroke:#9B2C2C;stroke-width:1;" x1="513.3726" x2="513.3726" y1="266.8867" y2="288.8867"/><polygon fill="#9B2C2C" points="509.3726,278.8867,513.3726,288.8867,517.3726,278.8867,513.3726,282.8867" style="stroke:#9B2C2C;stroke-width:1;stroke-linejoin:miter;stroke-miterlimit:10;"/><line style="stroke:#9B2C2C;stroke-width:1;" x1="252.6763" x2="252.6763" y1="323.0195" y2="341.0195"/><line style="stroke:#9B2C2C;stroke-width:1;" x1="252.6763" x2="371.0244" y1="341.0195" y2="341.0195"/><polygon fill="#9B2C2C" points="361.0244,337.0195,371.0244,341.0195,361.0244,345.0195,365.0244,341.0195" style="stroke:#9B2C2C;stroke-width:1;stroke-linejoin:miter;stroke-miterlimit:10;"/><line style="stroke:#9B2C2C;stroke-width:1;" x1="513.3726" x2="513.3726" y1="323.0195" y2="341.0195"/><line style="stroke:#9B2C2C;stroke-width:1;" x1="513.3726" x2="395.0244" y1="341.0195" y2="341.0195"/><polygon fill="#9B2C2C" points="405.0244,337.0195,395.0244,341.0195,405.0244,345.0195,401.0244,341.0195" style="stroke:#9B2C2C;stroke-width:1;stroke-linejoin:miter;stroke-miterlimit:10;"/><line style="stroke:#9B2C2C;stroke-width:1;" x1="383.0244" x2="383.0244" y1="234.8867" y2="254.8867"/><polygon fill="#9B2C2C" points="379.0244,244.8867,383.0244,254.8867,387.0244,244.8867,383.0244,248.8867" style="stroke:#9B2C2C;stroke-width:1;stroke-linejoin:miter;stroke-miterlimit:10;"/><line style="stroke:#9B2C2C;stroke-width:1;" x1="383.0244" x2="383.0244" y1="353.0195" y2="373.0195"/><polygon fill="#9B2C2C" points="379.0244,363.0195,383.0244,373.0195,387.0244,363.0195,383.0244,367.0195" style="stroke:#9B2C2C;stroke-width:1;stroke-linejoin:miter;stroke-miterlimit:10;"/><line style="stroke:#9B2C2C;stroke-width:1;" x1="210.3086" x2="210.3086" y1="509.418" y2="529.418"/><polygon fill="#9B2C2C" points="206.3086,519.418,210.3086,529.418,214.3086,519.418,210.3086,523.418" style="stroke:#9B2C2C;stroke-width:1;stroke-linejoin:miter;stroke-miterlimit:10;"/><line style="stroke:#9B2C2C;stroke-width:1;" x1="210.3086" x2="210.3086" y1="563.5508" y2="583.5508"/><polygon fill="#9B2C2C" points="206.3086,573.5508,210.3086,583.5508,214.3086,573.5508,210.3086,577.5508" style="stroke:#9B2C2C;stroke-width:1;stroke-linejoin:miter;stroke-miterlimit:10;"/><line style="stroke:#9B2C2C;stroke-width:1;" x1="210.3086" x2="210.3086" y1="631.8164" y2="651.8164"/><polygon fill="#9B2C2C" points="206.3086,641.8164,210.3086,651.8164,214.3086,641.8164,210.3086,645.8164" style="stroke:#9B2C2C;stroke-width:1;stroke-linejoin:miter;stroke-miterlimit:10;"/><line style="stroke:#9B2C2C;stroke-width:1;" x1="145.8679" x2="105.1865" y1="732.082" y2="732.082"/><line style="stroke:#9B2C2C;stroke-width:1;" x1="105.1865" x2="105.1865" y1="732.082" y2="754.082"/><polygon fill="#9B2C2C" points="101.1865,744.082,105.1865,754.082,109.1865,744.082,105.1865,748.082" style="stroke:#9B2C2C;stroke-width:1;stroke-linejoin:miter;stroke-miterlimit:10;"/><line style="stroke:#9B2C2C;stroke-width:1;" x1="274.7493" x2="315.4307" y1="732.082" y2="732.082"/><line style="stroke:#9B2C2C;stroke-width:1;" x1="315.4307" x2="315.4307" y1="732.082" y2="754.082"/><polygon fill="#9B2C2C" points="311.4307,744.082,315.4307,754.082,319.4307,744.082,315.4307,748.082" style="stroke:#9B2C2C;stroke-width:1;stroke-linejoin:miter;stroke-miterlimit:10;"/><line style="stroke:#9B2C2C;stroke-width:1;" x1="105.1865" x2="105.1865" y1="788.2148" y2="806.2148"/><line style="stroke:#9B2C2C;stroke-width:1;" x1="105.1865" x2="198.3086" y1="806.2148" y2="806.2148"/><polygon fill="#9B2C2C" points="188.3086,802.2148,198.3086,806.2148,188.3086,810.2148,192.3086,806.2148" style="stroke:#9B2C2C;stroke-width:1;stroke-linejoin:miter;stroke-miterlimit:10;"/><line style="stroke:#9B2C2C;stroke-width:1;" x1="315.4307" x2="315.4307" y1="788.2148" y2="806.2148"/><line style="stroke:#9B2C2C;stroke-width:1;" x1="315.4307" x2="222.3086" y1="806.2148" y2="806.2148"/><polygon fill="#9B2C2C" points="232.3086,802.2148,222.3086,806.2148,232.3086,810.2148,228.3086,806.2148" style="stroke:#9B2C2C;stroke-width:1;stroke-linejoin:miter;stroke-miterlimit:10;"/><line style="stroke:#9B2C2C;stroke-width:1;" x1="210.3086" x2="210.3086" y1="700.082" y2="720.082"/><polygon fill="#9B2C2C" points="206.3086,710.082,210.3086,720.082,214.3086,710.082,210.3086,714.082" style="stroke:#9B2C2C;stroke-width:1;stroke-linejoin:miter;stroke-miterlimit:10;"/><line style="stroke:#9B2C2C;stroke-width:1;" x1="555.7402" x2="555.7402" y1="509.418" y2="529.418"/><polygon fill="#9B2C2C" points="551.7402,519.418,555.7402,529.418,559.7402,519.418,555.7402,523.418" style="stroke:#9B2C2C;stroke-width:1;stroke-linejoin:miter;stroke-miterlimit:10;"/><line style="stroke:#9B2C2C;stroke-width:1;" x1="298.0259" x2="210.3086" y1="453.2852" y2="453.2852"/><line style="stroke:#9B2C2C;stroke-width:1;" x1="210.3086" x2="210.3086" y1="453.2852" y2="475.2852"/><polygon fill="#9B2C2C" points="206.3086,465.2852,210.3086,475.2852,214.3086,465.2852,210.3086,469.2852" style="stroke:#9B2C2C;stroke-width:1;stroke-linejoin:miter;stroke-miterlimit:10;"/><line style="stroke:#9B2C2C;stroke-width:1;" x1="468.0229" x2="555.7402" y1="453.2852" y2="453.2852"/><line style="stroke:#9B2C2C;stroke-width:1;" x1="555.7402" x2="555.7402" y1="453.2852" y2="475.2852"/><polygon fill="#9B2C2C" points="551.7402,465.2852,555.7402,475.2852,559.7402,465.2852,555.7402,469.2852" style="stroke:#9B2C2C;stroke-width:1;stroke-linejoin:miter;stroke-miterlimit:10;"/><line style="stroke:#9B2C2C;stroke-width:1;" x1="210.3086" x2="210.3086" y1="818.2148" y2="836.2148"/><line style="stroke:#9B2C2C;stroke-width:1;" x1="210.3086" x2="371.0244" y1="836.2148" y2="836.2148"/><polygon fill="#9B2C2C" points="361.0244,832.2148,371.0244,836.2148,361.0244,840.2148,365.0244,836.2148" style="stroke:#9B2C2C;stroke-width:1;stroke-linejoin:miter;stroke-miterlimit:10;"/><line style="stroke:#9B2C2C;stroke-width:1;" x1="555.7402" x2="555.7402" y1="563.5508" y2="836.2148"/><line style="stroke:#9B2C2C;stroke-width:1;" x1="555.7402" x2="395.0244" y1="836.2148" y2="836.2148"/><polygon fill="#9B2C2C" points="405.0244,832.2148,395.0244,836.2148,405.0244,840.2148,401.0244,836.2148" style="stroke:#9B2C2C;stroke-width:1;stroke-linejoin:miter;stroke-miterlimit:10;"/><line style="stroke:#9B2C2C;stroke-width:1;" x1="383.0244" x2="383.0244" y1="421.2852" y2="441.2852"/><polygon fill="#9B2C2C" points="379.0244,431.2852,383.0244,441.2852,387.0244,431.2852,383.0244,435.2852" style="stroke:#9B2C2C;stroke-width:1;stroke-linejoin:miter;stroke-miterlimit:10;"/><line style="stroke:#9B2C2C;stroke-width:1;" x1="383.0244" x2="383.0244" y1="848.2148" y2="868.2148"/><polygon fill="#9B2C2C" points="379.0244,858.2148,383.0244,868.2148,387.0244,858.2148,383.0244,862.2148" style="stroke:#9B2C2C;stroke-width:1;stroke-linejoin:miter;stroke-miterlimit:10;"/><?plantuml-src TLHTJzj047p6ls957vf8WVBL8i93LL9Q8RKfWfQ-yBBnhPDJx3jhTvq0lxvxnb2JKYdIMJTpixipTtaBDyJYOnZ3uUx9xbucInzgPAnWXlboph49RXBBoB1UUAKUBWjqSUt370eifO-KFf3UrmIHTH5xm6UFSrk_nA1Jh0Ys9oWDbjklKwxz0y7XXnuuZKfd6sszAOhYsFt3Yko8EuOxcktlzHcVcEEw0qzc1_b1lWcc-XtXyFXe__t-QuINCsJgjIIuGdzHuPpWRwDmHLLSOGbetpyPWvWG1ONpkzeioZ9HJCluYdBoAuAqo-WLVAjaXHizpSOJ9bI2Lluxpds-DEjpT6JOjuZE_0QcWamx9v3Oi2sjn6cM-G86Ko87ZAB4Jt3XMVJZ47H10GRt9CDiQpo9OKMipn918wmZBrFOtV5EbYnv68IOJlsIhbL0-HyzE5-aGPlGkryxtFcJTtNpM5NcrMqOO5al48Hq14Npy302xTcNjm7PJtpbI-HXDsRVOYPfIgEsrhdDGQ_HtEvBNaw_dhws__lyx381Fsgrnu9bUP-QhAFOcu2O_54IxSqarlmqLeBMWHl1h3HazFY6XademfciBv8C1pCeNOqYCdKtflPtPkrji2qmItpXSqoLxMYQyAQt1JMAa6oCjcMNIHiEBwQ8ZLeyOYAzt9wPbe1tZv85-h9X0aTgN-s1Dhb-t1EiDN54xQKnl7jAhQkIXko4s_1tQeuvYJp-ORJop_T1DDRP7m00?></g></svg>