<?plantuml 1.2026.2?><svg xmlns="http://www.w3.org/2000/svg" xmlns:xlink="http://www.w3.org/1999/xlink" contentStyleType="text/css" data-diagram-type="ACTIVITY" height="1198px" preserveAspectRatio="none" style="width:1251px;height:1198px;background:#FFFFFF;" version="1.1" viewBox="0 0 1251 1198" width="1251px" zoomAndPan="magnify"><title>RaiImage Optimization and Failure Recovery</title><defs/><g><g class="title" data-source-line="3"><text fill="#000000" font-family="Verdana" font-size="22" font-weight="bold" lengthAdjust="spacing" textLength="553.083" x="347.7632" y="37.1182">RaiImage Optimization and Failure Recovery</text></g><ellipse cx="565.9418" cy="62.7373" fill="#FFFFFF" rx="10" ry="10" style="stroke:#000000;stroke-width:1;"/><rect fill="#FFFFFF" height="34.584" rx="12.5" ry="12.5" style="stroke:#000000;stroke-width:1;" width="160.8477" x="485.5179" y="92.7373"/><text fill="#000000" font-family="Verdana" font-size="12" lengthAdjust="spacing" textLength="140.8477" x="495.5179" y="114.8018">Receive image file path</text><polygon fill="#FFFFFF" points="516.7533,147.3213,615.1302,147.3213,627.1302,159.3213,615.1302,171.3213,516.7533,171.3213,504.7533,159.3213,516.7533,147.3213" style="stroke:#000000;stroke-width:1;"/><text fill="#000000" font-family="Verdana" font-size="11" lengthAdjust="spacing" textLength="98.377" x="516.7533" y="163.696">Optimize as PNG?</text><text fill="#000000" font-family="Verdana" font-size="11" lengthAdjust="spacing" textLength="18.7935" x="485.9598" y="157.0117">yes</text><text fill="#000000" font-family="Verdana" font-size="11" lengthAdjust="spacing" textLength="55.7412" x="627.1302" y="157.0117">JPEG path</text><rect fill="#FFFFFF" height="34.584" rx="12.5" ry="12.5" style="stroke:#000000;stroke-width:1;" width="187.6777" x="149.9207" y="181.3213"/><text fill="#000000" font-family="Verdana" font-size="12" lengthAdjust="spacing" textLength="167.6777" x="159.9207" y="203.3857">Create ImageMagick facade</text><polygon fill="#FFFFFF" points="189.9063,235.9053,297.6128,235.9053,309.6128,247.9053,297.6128,259.9053,189.9063,259.9053,177.9063,247.9053,189.9063,235.9053" style="stroke:#000000;stroke-width:1;"/><text fill="#000000" font-family="Verdana" font-size="11" lengthAdjust="spacing" textLength="107.7065" x="189.9063" y="252.28">Input already PNG?</text><text fill="#000000" font-family="Verdana" font-size="11" lengthAdjust="spacing" textLength="18.7935" x="159.1128" y="245.5957">yes</text><text fill="#000000" font-family="Verdana" font-size="11" lengthAdjust="spacing" textLength="13.6372" x="309.6128" y="245.5957">no</text><rect fill="#FFFFFF" height="34.584" rx="12.5" ry="12.5" style="stroke:#000000;stroke-width:1;" width="159.8281" x="6" y="269.9053"/><text fill="#000000" font-family="Verdana" font-size="12" lengthAdjust="spacing" textLength="139.8281" x="16" y="291.9697">Keep original PNG path</text><rect fill="#FFFFFF" height="34.584" rx="12.5" ry="12.5" style="stroke:#000000;stroke-width:1;" width="214.0391" x="294.5854" y="269.9053"/><text fill="#000000" font-family="Verdana" font-size="12" lengthAdjust="spacing" textLength="194.0391" x="304.5854" y="291.9697">Run mogrify to create PNG copy</text><polygon fill="#FFFFFF" points="337.1814,324.4893,466.0286,324.4893,478.0286,336.4893,466.0286,348.4893,337.1814,348.4893,325.1814,336.4893,337.1814,324.4893" style="stroke:#000000;stroke-width:1;"/><text fill="#000000" font-family="Verdana" font-size="11" lengthAdjust="spacing" textLength="128.8472" x="337.1814" y="340.864">Conversion succeeded?</text><text fill="#000000" font-family="Verdana" font-size="11" lengthAdjust="spacing" textLength="18.7935" x="306.3879" y="334.1797">yes</text><text fill="#000000" font-family="Verdana" font-size="11" lengthAdjust="spacing" textLength="13.6372" x="478.0286" y="334.1797">no</text><rect fill="#FFFFFF" height="34.584" rx="12.5" ry="12.5" style="stroke:#000000;stroke-width:1;" width="197.3047" x="195.8281" y="358.4893"/><text fill="#000000" font-family="Verdana" font-size="12" lengthAdjust="spacing" textLength="177.3047" x="205.8281" y="380.5537">Remove original non-PNG file</text><rect fill="#FFFFFF" height="34.584" rx="12.5" ry="12.5" style="stroke:#000000;stroke-width:1;" width="165.3359" x="211.8125" y="413.0732"/><text fill="#000000" font-family="Verdana" font-size="12" lengthAdjust="spacing" textLength="145.3359" x="221.8125" y="435.1377">Continue with PNG copy</text><rect fill="#FFFFFF" height="34.584" rx="12.5" ry="12.5" style="stroke:#000000;stroke-width:1;" width="191.1934" x="413.1328" y="358.4893"/><text fill="#000000" font-family="Verdana" font-size="12" lengthAdjust="spacing" textLength="171.1934" x="423.1328" y="380.5537">Keep original file unchanged</text><rect fill="#FFFFFF" height="34.584" rx="12.5" ry="12.5" style="stroke:#000000;stroke-width:1;" width="174.7637" x="421.3477" y="413.0732"/><text fill="#000000" font-family="Verdana" font-size="12" lengthAdjust="spacing" textLength="154.7637" x="431.3477" y="435.1377">Capture stderr / message</text><ellipse cx="508.7295" cy="478.6572" fill="none" rx="11" ry="11" style="stroke:#000000;stroke-width:1;"/><ellipse cx="508.7295" cy="478.6572" fill="#FFFFFF" rx="6" ry="6" style="stroke:#000000;stroke-width:1;"/><polygon fill="#FFFFFF" points="243.7595,499.6572,255.7595,511.6572,243.7595,523.6572,231.7595,511.6572,243.7595,499.6572" style="stroke:#000000;stroke-width:1;"/><rect fill="#FFFFFF" height="34.584" rx="12.5" ry="12.5" style="stroke:#000000;stroke-width:1;" width="348.7695" x="69.3748" y="543.6572"/><text fill="#000000" font-family="Verdana" font-size="12" lengthAdjust="spacing" textLength="328.7695" x="79.3748" y="565.7217">Run OptiPng external tool through CLI command layer</text><polygon fill="#FFFFFF" points="188.4104,598.2412,299.1086,598.2412,311.1086,610.2412,299.1086,622.2412,188.4104,622.2412,176.4104,610.2412,188.4104,598.2412" style="stroke:#000000;stroke-width:1;"/><text fill="#000000" font-family="Verdana" font-size="11" lengthAdjust="spacing" textLength="110.6982" x="188.4104" y="614.616">OptiPng succeeded?</text><text fill="#000000" font-family="Verdana" font-size="11" lengthAdjust="spacing" textLength="18.7935" x="157.6169" y="607.9316">yes</text><text fill="#000000" font-family="Verdana" font-size="11" lengthAdjust="spacing" textLength="13.6372" x="311.1086" y="607.9316">no</text><rect fill="#FFFFFF" height="34.584" rx="12.5" ry="12.5" style="stroke:#000000;stroke-width:1;" width="153.1602" x="73.6399" y="632.2412"/><text fill="#000000" font-family="Verdana" font-size="12" lengthAdjust="spacing" textLength="133.1602" x="83.6399" y="654.3057">Return optimized PNG</text><rect fill="#FFFFFF" height="34.584" rx="12.5" ry="12.5" style="stroke:#000000;stroke-width:1;" width="174.7637" x="249.9172" y="632.2412"/><text fill="#000000" font-family="Verdana" font-size="12" lengthAdjust="spacing" textLength="154.7637" x="259.9172" y="654.3057">Capture stderr / message</text><rect fill="#FFFFFF" height="34.584" rx="12.5" ry="12.5" style="stroke:#000000;stroke-width:1;" width="180.998" x="246.8" y="701.8252"/><text fill="#000000" font-family="Verdana" font-size="12" lengthAdjust="spacing" textLength="160.998" x="256.8" y="723.8896">Return optimization failure</text><polygon fill="#FFFFFF" points="243.7595,742.4092,255.7595,754.4092,243.7595,766.4092,231.7595,754.4092,243.7595,742.4092" style="stroke:#000000;stroke-width:1;"/><rect fill="#FFFFFF" height="34.584" rx="12.5" ry="12.5" style="stroke:#000000;stroke-width:1;" width="187.6777" x="794.2852" y="181.3213"/><text fill="#000000" font-family="Verdana" font-size="12" lengthAdjust="spacing" textLength="167.6777" x="804.2852" y="203.3857">Create ImageMagick facade</text><polygon fill="#FFFFFF" points="835.8848,235.9053,940.3633,235.9053,952.3633,247.9053,940.3633,259.9053,835.8848,259.9053,823.8848,247.9053,835.8848,235.9053" style="stroke:#000000;stroke-width:1;"/><text fill="#000000" font-family="Verdana" font-size="11" lengthAdjust="spacing" textLength="104.4785" x="835.8848" y="252.28">Input already JPG?</text><text fill="#000000" font-family="Verdana" font-size="11" lengthAdjust="spacing" textLength="18.7935" x="805.0913" y="245.5957">yes</text><text fill="#000000" font-family="Verdana" font-size="11" lengthAdjust="spacing" textLength="13.6372" x="952.3633" y="245.5957">no</text><rect fill="#FFFFFF" height="34.584" rx="12.5" ry="12.5" style="stroke:#000000;stroke-width:1;" width="156.3066" x="654.3262" y="269.9053"/><text fill="#000000" font-family="Verdana" font-size="12" lengthAdjust="spacing" textLength="136.3066" x="664.3262" y="291.9697">Keep original JPG path</text><rect fill="#FFFFFF" height="34.584" rx="12.5" ry="12.5" style="stroke:#000000;stroke-width:1;" width="210.5176" x="938.5098" y="269.9053"/><text fill="#000000" font-family="Verdana" font-size="12" lengthAdjust="spacing" textLength="190.5176" x="948.5098" y="291.9697">Run mogrify to create JPG copy</text><polygon fill="#FFFFFF" points="979.345,324.4893,1108.1921,324.4893,1120.1921,336.4893,1108.1921,348.4893,979.345,348.4893,967.345,336.4893,979.345,324.4893" style="stroke:#000000;stroke-width:1;"/><text fill="#000000" font-family="Verdana" font-size="11" lengthAdjust="spacing" textLength="128.8472" x="979.345" y="340.864">Conversion succeeded?</text><text fill="#000000" font-family="Verdana" font-size="11" lengthAdjust="spacing" textLength="18.7935" x="948.5515" y="334.1797">yes</text><text fill="#000000" font-family="Verdana" font-size="11" lengthAdjust="spacing" textLength="13.6372" x="1120.1921" y="334.1797">no</text><rect fill="#FFFFFF" height="34.584" rx="12.5" ry="12.5" style="stroke:#000000;stroke-width:1;" width="193.7832" x="840.6328" y="358.4893"/><text fill="#000000" font-family="Verdana" font-size="12" lengthAdjust="spacing" textLength="173.7832" x="850.6328" y="380.5537">Remove original non-JPG file</text><rect fill="#FFFFFF" height="34.584" rx="12.5" ry="12.5" style="stroke:#000000;stroke-width:1;" width="161.8145" x="856.6172" y="413.0732"/><text fill="#000000" font-family="Verdana" font-size="12" lengthAdjust="spacing" textLength="141.8145" x="866.6172" y="435.1377">Continue with JPG copy</text><rect fill="#FFFFFF" height="34.584" rx="12.5" ry="12.5" style="stroke:#000000;stroke-width:1;" width="191.1934" x="1054.416" y="358.4893"/><text fill="#000000" font-family="Verdana" font-size="12" lengthAdjust="spacing" textLength="171.1934" x="1064.416" y="380.5537">Keep original file unchanged</text><rect fill="#FFFFFF" height="34.584" rx="12.5" ry="12.5" style="stroke:#000000;stroke-width:1;" width="174.7637" x="1062.6309" y="413.0732"/><text fill="#000000" font-family="Verdana" font-size="12" lengthAdjust="spacing" textLength="154.7637" x="1072.6309" y="435.1377">Capture stderr / message</text><ellipse cx="1150.0127" cy="478.6572" fill="none" rx="11" ry="11" style="stroke:#000000;stroke-width:1;"/><ellipse cx="1150.0127" cy="478.6572" fill="#FFFFFF" rx="6" ry="6" style="stroke:#000000;stroke-width:1;"/><polygon fill="#FFFFFF" points="888.124,499.6572,900.124,511.6572,888.124,523.6572,876.124,511.6572,888.124,499.6572" style="stroke:#000000;stroke-width:1;"/><rect fill="#FFFFFF" height="34.584" rx="12.5" ry="12.5" style="stroke:#000000;stroke-width:1;" width="199.2852" x="788.4814" y="543.6572"/><text fill="#000000" font-family="Verdana" font-size="12" lengthAdjust="spacing" textLength="179.2852" x="798.4814" y="565.7217">Move current JPG to temp file</text><rect fill="#FFFFFF" height="34.584" rx="12.5" ry="12.5" style="stroke:#000000;stroke-width:1;" width="313.1738" x="731.5371" y="598.2412"/><text fill="#000000" font-family="Verdana" font-size="12" lengthAdjust="spacing" textLength="293.1738" x="741.5371" y="620.3057">Run JpegTran with temp input and target output</text><polygon fill="#FFFFFF" points="779.2708,667.8252,996.9773,667.8252,1008.9773,679.8252,996.9773,691.8252,779.2708,691.8252,767.2708,679.8252,779.2708,667.8252" style="stroke:#000000;stroke-width:1;"/><text fill="#000000" font-family="Verdana" font-size="11" lengthAdjust="spacing" textLength="217.7065" x="779.2708" y="684.2">JpegTran succeeded and output exists?</text><text fill="#000000" font-family="Verdana" font-size="11" lengthAdjust="spacing" textLength="18.7935" x="748.4773" y="677.5156">yes</text><text fill="#000000" font-family="Verdana" font-size="11" lengthAdjust="spacing" textLength="13.6372" x="1008.9773" y="677.5156">no</text><rect fill="#FFFFFF" height="34.584" rx="12.5" ry="12.5" style="stroke:#000000;stroke-width:1;" width="116.1289" x="699.2063" y="701.8252"/><text fill="#000000" font-family="Verdana" font-size="12" lengthAdjust="spacing" textLength="96.1289" x="709.2063" y="723.8896">Delete temp file</text><rect fill="#FFFFFF" height="34.584" rx="12.5" ry="12.5" style="stroke:#000000;stroke-width:1;" width="149.6387" x="682.4514" y="771.4092"/><text fill="#000000" font-family="Verdana" font-size="12" lengthAdjust="spacing" textLength="129.6387" x="692.4514" y="793.4736">Return optimized JPG</text><rect fill="#FFFFFF" height="34.584" rx="12.5" ry="12.5" style="stroke:#000000;stroke-width:1;" width="144.8809" x="946.5369" y="750.5095"/><text fill="#000000" font-family="Verdana" font-size="12" lengthAdjust="spacing" textLength="124.8809" x="956.5369" y="772.574">Delete partial output</text><polygon fill="#FFFFFF" points="960.6553,701.8252,1077.2993,701.8252,1089.2993,713.8252,1077.2993,725.8252,960.6553,725.8252,948.6553,713.8252,960.6553,701.8252" style="stroke:#000000;stroke-width:1;"/><text fill="#000000" font-family="Verdana" font-size="11" lengthAdjust="spacing" textLength="18.7935" x="1022.9773" y="736.8843">yes</text><text fill="#000000" font-family="Verdana" font-size="11" lengthAdjust="spacing" textLength="116.644" x="960.6553" y="718.2">Partial output exists?</text><polygon fill="#FFFFFF" points="1018.9773,809.7778,1030.9773,821.7778,1018.9773,833.7778,1006.9773,821.7778,1018.9773,809.7778" style="stroke:#000000;stroke-width:1;"/><rect fill="#FFFFFF" height="34.584" rx="12.5" ry="12.5" style="stroke:#000000;stroke-width:1;" width="245.75" x="896.1023" y="902.4622"/><text fill="#000000" font-family="Verdana" font-size="12" lengthAdjust="spacing" textLength="225.75" x="906.1023" y="924.5266">Restore original image from temp file</text><polygon fill="#FFFFFF" points="961.0071,853.7778,1076.9475,853.7778,1088.9475,865.7778,1076.9475,877.7778,961.0071,877.7778,949.0071,865.7778,961.0071,853.7778" style="stroke:#000000;stroke-width:1;"/><text fill="#000000" font-family="Verdana" font-size="11" lengthAdjust="spacing" textLength="18.7935" x="1022.9773" y="888.8369">yes</text><text fill="#000000" font-family="Verdana" font-size="11" lengthAdjust="spacing" textLength="115.9404" x="961.0071" y="870.1526">Temp file still exists?</text><polygon fill="#FFFFFF" points="1018.9773,957.0461,1030.9773,969.0461,1018.9773,981.0461,1006.9773,969.0461,1018.9773,957.0461" style="stroke:#000000;stroke-width:1;"/><rect fill="#FFFFFF" height="34.584" rx="12.5" ry="12.5" style="stroke:#000000;stroke-width:1;" width="174.7637" x="931.5955" y="1001.0461"/><text fill="#000000" font-family="Verdana" font-size="12" lengthAdjust="spacing" textLength="154.7637" x="941.5955" y="1023.1106">Capture stderr / message</text><rect fill="#FFFFFF" height="34.584" rx="12.5" ry="12.5" style="stroke:#000000;stroke-width:1;" width="313.9297" x="862.0125" y="1055.6301"/><text fill="#000000" font-family="Verdana" font-size="12" lengthAdjust="spacing" textLength="293.9297" x="872.0125" y="1077.6946">Return optimization failure with original restored</text><polygon fill="#FFFFFF" points="888.124,1096.2141,900.124,1108.2141,888.124,1120.2141,876.124,1108.2141,888.124,1096.2141" style="stroke:#000000;stroke-width:1;"/><polygon fill="#FFFFFF" points="565.9418,1126.2141,577.9418,1138.2141,565.9418,1150.2141,553.9418,1138.2141,565.9418,1126.2141" style="stroke:#000000;stroke-width:1;"/><ellipse cx="565.9418" cy="1181.2141" fill="none" rx="11" ry="11" style="stroke:#000000;stroke-width:1;"/><ellipse cx="565.9418" cy="1181.2141" fill="#FFFFFF" rx="6" ry="6" style="stroke:#000000;stroke-width:1;"/><line style="stroke:#000000;stroke-width:1;" x1="565.9418" x2="565.9418" y1="72.7373" y2="92.7373"/><polygon fill="#000000" points="561.9418,82.7373,565.9418,92.7373,569.9418,82.7373,565.9418,86.7373" style="stroke:#000000;stroke-width:1;"/><line style="stroke:#000000;stroke-width:1;" x1="294.4805" x2="294.4805" y1="393.0732" y2="413.0732"/><polygon fill="#000000" points="290.4805,403.0732,294.4805,413.0732,298.4805,403.0732,294.4805,407.0732" style="stroke:#000000;stroke-width:1;"/><line style="stroke:#000000;stroke-width:1;" x1="508.7295" x2="508.7295" y1="393.0732" y2="413.0732"/><polygon fill="#000000" points="504.7295,403.0732,508.7295,413.0732,512.7295,403.0732,508.7295,407.0732" style="stroke:#000000;stroke-width:1;"/><line style="stroke:#000000;stroke-width:1;" x1="508.7295" x2="508.7295" y1="447.6572" y2="467.6572"/><polygon fill="#000000" points="504.7295,457.6572,508.7295,467.6572,512.7295,457.6572,508.7295,461.6572" style="stroke:#000000;stroke-width:1;"/><line style="stroke:#000000;stroke-width:1;" x1="325.1814" x2="294.4805" y1="336.4893" y2="336.4893"/><line style="stroke:#000000;stroke-width:1;" x1="294.4805" x2="294.4805" y1="336.4893" y2="358.4893"/><polygon fill="#000000" points="290.4805,348.4893,294.4805,358.4893,298.4805,348.4893,294.4805,352.4893" style="stroke:#000000;stroke-width:1;"/><line style="stroke:#000000;stroke-width:1;" x1="478.0286" x2="508.7295" y1="336.4893" y2="336.4893"/><line style="stroke:#000000;stroke-width:1;" x1="508.7295" x2="508.7295" y1="336.4893" y2="358.4893"/><polygon fill="#000000" points="504.7295,348.4893,508.7295,358.4893,512.7295,348.4893,508.7295,352.4893" style="stroke:#000000;stroke-width:1;"/><line style="stroke:#000000;stroke-width:1;" x1="294.4805" x2="294.4805" y1="447.6572" y2="511.6572"/><line style="stroke:#000000;stroke-width:1;" x1="294.4805" x2="255.7595" y1="511.6572" y2="511.6572"/><polygon fill="#000000" points="265.7595,507.6572,255.7595,511.6572,265.7595,515.6572,261.7595,511.6572" style="stroke:#000000;stroke-width:1;"/><line style="stroke:#000000;stroke-width:1;" x1="401.605" x2="401.605" y1="304.4893" y2="324.4893"/><polygon fill="#000000" points="397.605,314.4893,401.605,324.4893,405.605,314.4893,401.605,318.4893" style="stroke:#000000;stroke-width:1;"/><line style="stroke:#000000;stroke-width:1;" x1="177.9063" x2="85.9141" y1="247.9053" y2="247.9053"/><line style="stroke:#000000;stroke-width:1;" x1="85.9141" x2="85.9141" y1="247.9053" y2="269.9053"/><polygon fill="#000000" points="81.9141,259.9053,85.9141,269.9053,89.9141,259.9053,85.9141,263.9053" style="stroke:#000000;stroke-width:1;"/><line style="stroke:#000000;stroke-width:1;" x1="309.6128" x2="401.605" y1="247.9053" y2="247.9053"/><line style="stroke:#000000;stroke-width:1;" x1="401.605" x2="401.605" y1="247.9053" y2="269.9053"/><polygon fill="#000000" points="397.605,259.9053,401.605,269.9053,405.605,259.9053,401.605,263.9053" style="stroke:#000000;stroke-width:1;"/><line style="stroke:#000000;stroke-width:1;" x1="85.9141" x2="85.9141" y1="304.4893" y2="511.6572"/><line style="stroke:#000000;stroke-width:1;" x1="85.9141" x2="231.7595" y1="511.6572" y2="511.6572"/><polygon fill="#000000" points="221.7595,507.6572,231.7595,511.6572,221.7595,515.6572,225.7595,511.6572" style="stroke:#000000;stroke-width:1;"/><line style="stroke:#000000;stroke-width:1;" x1="243.7595" x2="243.7595" y1="215.9053" y2="235.9053"/><polygon fill="#000000" points="239.7595,225.9053,243.7595,235.9053,247.7595,225.9053,243.7595,229.9053" style="stroke:#000000;stroke-width:1;"/><line style="stroke:#000000;stroke-width:1;" x1="243.7595" x2="243.7595" y1="523.6572" y2="543.6572"/><polygon fill="#000000" points="239.7595,533.6572,243.7595,543.6572,247.7595,533.6572,243.7595,537.6572" style="stroke:#000000;stroke-width:1;"/><line style="stroke:#000000;stroke-width:1;" x1="337.2991" x2="337.2991" y1="666.8252" y2="701.8252"/><polygon fill="#000000" points="333.2991,691.8252,337.2991,701.8252,341.2991,691.8252,337.2991,695.8252" style="stroke:#000000;stroke-width:1;"/><line style="stroke:#000000;stroke-width:1;" x1="176.4104" x2="150.22" y1="610.2412" y2="610.2412"/><line style="stroke:#000000;stroke-width:1;" x1="150.22" x2="150.22" y1="610.2412" y2="632.2412"/><polygon fill="#000000" points="146.22,622.2412,150.22,632.2412,154.22,622.2412,150.22,626.2412" style="stroke:#000000;stroke-width:1;"/><line style="stroke:#000000;stroke-width:1;" x1="311.1086" x2="337.2991" y1="610.2412" y2="610.2412"/><line style="stroke:#000000;stroke-width:1;" x1="337.2991" x2="337.2991" y1="610.2412" y2="632.2412"/><polygon fill="#000000" points="333.2991,622.2412,337.2991,632.2412,341.2991,622.2412,337.2991,626.2412" style="stroke:#000000;stroke-width:1;"/><line style="stroke:#000000;stroke-width:1;" x1="150.22" x2="150.22" y1="666.8252" y2="754.4092"/><line style="stroke:#000000;stroke-width:1;" x1="150.22" x2="231.7595" y1="754.4092" y2="754.4092"/><polygon fill="#000000" points="221.7595,750.4092,231.7595,754.4092,221.7595,758.4092,225.7595,754.4092" style="stroke:#000000;stroke-width:1;"/><line style="stroke:#000000;stroke-width:1;" x1="337.2991" x2="337.2991" y1="736.4092" y2="754.4092"/><line style="stroke:#000000;stroke-width:1;" x1="337.2991" x2="255.7595" y1="754.4092" y2="754.4092"/><polygon fill="#000000" points="265.7595,750.4092,255.7595,754.4092,265.7595,758.4092,261.7595,754.4092" style="stroke:#000000;stroke-width:1;"/><line style="stroke:#000000;stroke-width:1;" x1="243.7595" x2="243.7595" y1="578.2412" y2="598.2412"/><polygon fill="#000000" points="239.7595,588.2412,243.7595,598.2412,247.7595,588.2412,243.7595,592.2412" style="stroke:#000000;stroke-width:1;"/><line style="stroke:#000000;stroke-width:1;" x1="937.5244" x2="937.5244" y1="393.0732" y2="413.0732"/><polygon fill="#000000" points="933.5244,403.0732,937.5244,413.0732,941.5244,403.0732,937.5244,407.0732" style="stroke:#000000;stroke-width:1;"/><line style="stroke:#000000;stroke-width:1;" x1="1150.0127" x2="1150.0127" y1="393.0732" y2="413.0732"/><polygon fill="#000000" points="1146.0127,403.0732,1150.0127,413.0732,1154.0127,403.0732,1150.0127,407.0732" style="stroke:#000000;stroke-width:1;"/><line style="stroke:#000000;stroke-width:1;" x1="1150.0127" x2="1150.0127" y1="447.6572" y2="467.6572"/><polygon fill="#000000" points="1146.0127,457.6572,1150.0127,467.6572,1154.0127,457.6572,1150.0127,461.6572" style="stroke:#000000;stroke-width:1;"/><line style="stroke:#000000;stroke-width:1;" x1="967.345" x2="937.5244" y1="336.4893" y2="336.4893"/><line style="stroke:#000000;stroke-width:1;" x1="937.5244" x2="937.5244" y1="336.4893" y2="358.4893"/><polygon fill="#000000" points="933.5244,348.4893,937.5244,358.4893,941.5244,348.4893,937.5244,352.4893" style="stroke:#000000;stroke-width:1;"/><line style="stroke:#000000;stroke-width:1;" x1="1120.1921" x2="1150.0127" y1="336.4893" y2="336.4893"/><line style="stroke:#000000;stroke-width:1;" x1="1150.0127" x2="1150.0127" y1="336.4893" y2="358.4893"/><polygon fill="#000000" points="1146.0127,348.4893,1150.0127,358.4893,1154.0127,348.4893,1150.0127,352.4893" style="stroke:#000000;stroke-width:1;"/><line style="stroke:#000000;stroke-width:1;" x1="937.5244" x2="937.5244" y1="447.6572" y2="511.6572"/><line style="stroke:#000000;stroke-width:1;" x1="937.5244" x2="900.124" y1="511.6572" y2="511.6572"/><polygon fill="#000000" points="910.124,507.6572,900.124,511.6572,910.124,515.6572,906.124,511.6572" style="stroke:#000000;stroke-width:1;"/><line style="stroke:#000000;stroke-width:1;" x1="1043.7686" x2="1043.7686" y1="304.4893" y2="324.4893"/><polygon fill="#000000" points="1039.7686,314.4893,1043.7686,324.4893,1047.7686,314.4893,1043.7686,318.4893" style="stroke:#000000;stroke-width:1;"/><line style="stroke:#000000;stroke-width:1;" x1="823.8848" x2="732.4795" y1="247.9053" y2="247.9053"/><line style="stroke:#000000;stroke-width:1;" x1="732.4795" x2="732.4795" y1="247.9053" y2="269.9053"/><polygon fill="#000000" points="728.4795,259.9053,732.4795,269.9053,736.4795,259.9053,732.4795,263.9053" style="stroke:#000000;stroke-width:1;"/><line style="stroke:#000000;stroke-width:1;" x1="952.3633" x2="1043.7686" y1="247.9053" y2="247.9053"/><line style="stroke:#000000;stroke-width:1;" x1="1043.7686" x2="1043.7686" y1="247.9053" y2="269.9053"/><polygon fill="#000000" points="1039.7686,259.9053,1043.7686,269.9053,1047.7686,259.9053,1043.7686,263.9053" style="stroke:#000000;stroke-width:1;"/><line style="stroke:#000000;stroke-width:1;" x1="732.4795" x2="732.4795" y1="304.4893" y2="511.6572"/><line style="stroke:#000000;stroke-width:1;" x1="732.4795" x2="876.124" y1="511.6572" y2="511.6572"/><polygon fill="#000000" points="866.124,507.6572,876.124,511.6572,866.124,515.6572,870.124,511.6572" style="stroke:#000000;stroke-width:1;"/><line style="stroke:#000000;stroke-width:1;" x1="888.124" x2="888.124" y1="215.9053" y2="235.9053"/><polygon fill="#000000" points="884.124,225.9053,888.124,235.9053,892.124,225.9053,888.124,229.9053" style="stroke:#000000;stroke-width:1;"/><line style="stroke:#000000;stroke-width:1;" x1="888.124" x2="888.124" y1="523.6572" y2="543.6572"/><polygon fill="#000000" points="884.124,533.6572,888.124,543.6572,892.124,533.6572,888.124,537.6572" style="stroke:#000000;stroke-width:1;"/><line style="stroke:#000000;stroke-width:1;" x1="888.124" x2="888.124" y1="578.2412" y2="598.2412"/><polygon fill="#000000" points="884.124,588.2412,888.124,598.2412,892.124,588.2412,888.124,592.2412" style="stroke:#000000;stroke-width:1;"/><line style="stroke:#000000;stroke-width:1;" x1="757.2708" x2="757.2708" y1="736.4092" y2="771.4092"/><polygon fill="#000000" points="753.2708,761.4092,757.2708,771.4092,761.2708,761.4092,757.2708,765.4092" style="stroke:#000000;stroke-width:1;"/><line style="stroke:#000000;stroke-width:1;" x1="1018.9773" x2="1018.9773" y1="725.8252" y2="750.5095"/><polygon fill="#000000" points="1014.9773,740.5095,1018.9773,750.5095,1022.9773,740.5095,1018.9773,744.5095" style="stroke:#000000;stroke-width:1;"/><line style="stroke:#000000;stroke-width:1;" x1="1089.2993" x2="1101.4177" y1="713.8252" y2="713.8252"/><polygon fill="#000000" points="1097.4177,757.8015,1101.4177,767.8015,1105.4177,757.8015,1101.4177,761.8015" style="stroke:#000000;stroke-width:1;"/><line style="stroke:#000000;stroke-width:1;" x1="1101.4177" x2="1101.4177" y1="713.8252" y2="821.7778"/><line style="stroke:#000000;stroke-width:1;" x1="1101.4177" x2="1030.9773" y1="821.7778" y2="821.7778"/><polygon fill="#000000" points="1040.9773,817.7778,1030.9773,821.7778,1040.9773,825.7778,1036.9773,821.7778" style="stroke:#000000;stroke-width:1;"/><line style="stroke:#000000;stroke-width:1;" x1="1018.9773" x2="1018.9773" y1="785.0935" y2="809.7778"/><polygon fill="#000000" points="1014.9773,799.7778,1018.9773,809.7778,1022.9773,799.7778,1018.9773,803.7778" style="stroke:#000000;stroke-width:1;"/><line style="stroke:#000000;stroke-width:1;" x1="1018.9773" x2="1018.9773" y1="877.7778" y2="902.4622"/><polygon fill="#000000" points="1014.9773,892.4622,1018.9773,902.4622,1022.9773,892.4622,1018.9773,896.4622" style="stroke:#000000;stroke-width:1;"/><line style="stroke:#000000;stroke-width:1;" x1="1088.9475" x2="1151.8523" y1="865.7778" y2="865.7778"/><polygon fill="#000000" points="1147.8523,909.7542,1151.8523,919.7542,1155.8523,909.7542,1151.8523,913.7542" style="stroke:#000000;stroke-width:1;"/><line style="stroke:#000000;stroke-width:1;" x1="1151.8523" x2="1151.8523" y1="865.7778" y2="969.0461"/><line style="stroke:#000000;stroke-width:1;" x1="1151.8523" x2="1030.9773" y1="969.0461" y2="969.0461"/><polygon fill="#000000" points="1040.9773,965.0461,1030.9773,969.0461,1040.9773,973.0461,1036.9773,969.0461" style="stroke:#000000;stroke-width:1;"/><line style="stroke:#000000;stroke-width:1;" x1="1018.9773" x2="1018.9773" y1="937.0461" y2="957.0461"/><polygon fill="#000000" points="1014.9773,947.0461,1018.9773,957.0461,1022.9773,947.0461,1018.9773,951.0461" style="stroke:#000000;stroke-width:1;"/><line style="stroke:#000000;stroke-width:1;" x1="1018.9773" x2="1018.9773" y1="833.7778" y2="853.7778"/><polygon fill="#000000" points="1014.9773,843.7778,1018.9773,853.7778,1022.9773,843.7778,1018.9773,847.7778" style="stroke:#000000;stroke-width:1;"/><line style="stroke:#000000;stroke-width:1;" x1="1018.9773" x2="1018.9773" y1="981.0461" y2="1001.0461"/><polygon fill="#000000" points="1014.9773,991.0461,1018.9773,1001.0461,1022.9773,991.0461,1018.9773,995.0461" style="stroke:#000000;stroke-width:1;"/><line style="stroke:#000000;stroke-width:1;" x1="1018.9773" x2="1018.9773" y1="1035.6301" y2="1055.6301"/><polygon fill="#000000" points="1014.9773,1045.6301,1018.9773,1055.6301,1022.9773,1045.6301,1018.9773,1049.6301" style="stroke:#000000;stroke-width:1;"/><line style="stroke:#000000;stroke-width:1;" x1="767.2708" x2="757.2708" y1="679.8252" y2="679.8252"/><line style="stroke:#000000;stroke-width:1;" x1="757.2708" x2="757.2708" y1="679.8252" y2="701.8252"/><polygon fill="#000000" points="753.2708,691.8252,757.2708,701.8252,761.2708,691.8252,757.2708,695.8252" style="stroke:#000000;stroke-width:1;"/><line style="stroke:#000000;stroke-width:1;" x1="1008.9773" x2="1018.9773" y1="679.8252" y2="679.8252"/><line style="stroke:#000000;stroke-width:1;" x1="1018.9773" x2="1018.9773" y1="679.8252" y2="701.8252"/><polygon fill="#000000" points="1014.9773,691.8252,1018.9773,701.8252,1022.9773,691.8252,1018.9773,695.8252" style="stroke:#000000;stroke-width:1;"/><line style="stroke:#000000;stroke-width:1;" x1="757.2708" x2="757.2708" y1="805.9932" y2="1108.2141"/><line style="stroke:#000000;stroke-width:1;" x1="757.2708" x2="876.124" y1="1108.2141" y2="1108.2141"/><polygon fill="#000000" points="866.124,1104.2141,876.124,1108.2141,866.124,1112.2141,870.124,1108.2141" style="stroke:#000000;stroke-width:1;"/><line style="stroke:#000000;stroke-width:1;" x1="1018.9773" x2="1018.9773" y1="1090.2141" y2="1108.2141"/><line style="stroke:#000000;stroke-width:1;" x1="1018.9773" x2="900.124" y1="1108.2141" y2="1108.2141"/><polygon fill="#000000" points="910.124,1104.2141,900.124,1108.2141,910.124,1112.2141,906.124,1108.2141" style="stroke:#000000;stroke-width:1;"/><line style="stroke:#000000;stroke-width:1;" x1="888.124" x2="888.124" y1="632.8252" y2="667.8252"/><polygon fill="#000000" points="884.124,657.8252,888.124,667.8252,892.124,657.8252,888.124,661.8252" style="stroke:#000000;stroke-width:1;"/><line style="stroke:#000000;stroke-width:1;" x1="504.7533" x2="243.7595" y1="159.3213" y2="159.3213"/><line style="stroke:#000000;stroke-width:1;" x1="243.7595" x2="243.7595" y1="159.3213" y2="181.3213"/><polygon fill="#000000" points="239.7595,171.3213,243.7595,181.3213,247.7595,171.3213,243.7595,175.3213" style="stroke:#000000;stroke-width:1;"/><line style="stroke:#000000;stroke-width:1;" x1="627.1302" x2="888.124" y1="159.3213" y2="159.3213"/><line style="stroke:#000000;stroke-width:1;" x1="888.124" x2="888.124" y1="159.3213" y2="181.3213"/><polygon fill="#000000" points="884.124,171.3213,888.124,181.3213,892.124,171.3213,888.124,175.3213" style="stroke:#000000;stroke-width:1;"/><line style="stroke:#000000;stroke-width:1;" x1="243.7595" x2="243.7595" y1="766.4092" y2="1138.2141"/><line style="stroke:#000000;stroke-width:1;" x1="243.7595" x2="553.9418" y1="1138.2141" y2="1138.2141"/><polygon fill="#000000" points="543.9418,1134.2141,553.9418,1138.2141,543.9418,1142.2141,547.9418,1138.2141" style="stroke:#000000;stroke-width:1;"/><line style="stroke:#000000;stroke-width:1;" x1="888.124" x2="888.124" y1="1120.2141" y2="1138.2141"/><line style="stroke:#000000;stroke-width:1;" x1="888.124" x2="577.9418" y1="1138.2141" y2="1138.2141"/><polygon fill="#000000" points="587.9418,1134.2141,577.9418,1138.2141,587.9418,1142.2141,583.9418,1138.2141" style="stroke:#000000;stroke-width:1;"/><line style="stroke:#000000;stroke-width:1;" x1="565.9418" x2="565.9418" y1="127.3213" y2="147.3213"/><polygon fill="#000000" points="561.9418,137.3213,565.9418,147.3213,569.9418,137.3213,565.9418,141.3213" style="stroke:#000000;stroke-width:1;"/><line style="stroke:#000000;stroke-width:1;" x1="565.9418" x2="565.9418" y1="1150.2141" y2="1170.2141"/><polygon fill="#000000" points="561.9418,1160.2141,565.9418,1170.2141,569.9418,1160.2141,565.9418,1164.2141" style="stroke:#000000;stroke-width:1;"/><?plantuml-src lLJBRjim43oRNx6zEOSYT-lGW_k0tQOrZFm08QsaHIII85TfrQ_lafGLMurJf2XwiG5fE3CxEzGRRh57S9qcenGJTmX7JRjUDmZV75DFFpMJDQ1D1HyrTOCN19Rs4VseL63jMQcDF45wHA1qi2QXSPhRGYcgOJqH8UW0Xw-Vtjs0o1fOZnXkr6gpzQWP8OdUwORA1wXrgIiir2eUtnatCEXEODNu3C5gyndHWVNKaD5TH4pgA-m2mjhOX3eE1dhRUAf7O0jbbeteqhfHq4bjQutC5kBCOIXBn0ghfQ1mOIyHF6aQQzv6fZXwaH32msG6XE_4xONAkQcbznJTOCfMcmQhYKaxZh47hj1xk8KUGv2iqjl0raLEKr6jfZ-LPusn7qm3-8FHHtAsLdvQRuUcXUsNdJZg-xZOJe_efxHFfwuEBxEB7GDssceLXrjc_PBd1K7kLvsxLSmpPBhzuKDUvkkBiZ_ygIY2U4LH8lhV52KoNIlAkSh_ACfTT5SEtgFX92u3C_RkP325iNVOt7jjiiNqcdBMKXxv13J8O0UM9tBZKpZpYJcQXCqWQIG53hzjvprsA46Vop_JDZ6vM5WKFCY7Y2IN5nLc2NU1BfvoILpt9mEI97NTLR8ZIgZ-RBdJvy_R_dA84_bVNuiS_ApZit0rtvPfdMd7lm00?></g></svg>