<svg xmlns="http://www.w3.org/2000/svg" xmlns:xlink="http://www.w3.org/1999/xlink" contentStyleType="text/css" data-diagram-type="ACTIVITY" height="1206px" preserveAspectRatio="none" style="width:1244px;height:1206px;background:#FFFFFF;" version="1.1" viewBox="0 0 1244 1206" width="1244px" zoomAndPan="magnify"><?plantuml 1.2026.6?><defs/><g><g class="title" data-source-line="13"><text fill="#000000" font-family="sans-serif" font-size="14" font-weight="700" lengthAdjust="spacing" textLength="319.9355" x="461.0811" y="33.5352">RaiImage Optimization and Failure Recovery</text></g><ellipse cx="561.8481" cy="62.4883" fill="#222222" rx="10" ry="10" style="stroke:#222222;stroke-width:1;"/><rect fill="#F1F1F1" height="34.1328" rx="12.5" ry="12.5" style="stroke:#181818;stroke-width:0.5;" width="154.4785" x="484.6089" y="92.4883"/><text fill="#000000" font-family="sans-serif" font-size="12" lengthAdjust="spacing" textLength="134.4785" x="494.6089" y="114.0898">Receive image file path</text><polygon fill="#F1F1F1" points="514.8054,146.6211,608.8909,146.6211,620.8909,158.6211,608.8909,170.6211,514.8054,170.6211,502.8054,158.6211,514.8054,146.6211" style="stroke:#181818;stroke-width:0.5;stroke-linejoin:miter;stroke-miterlimit:10;"/><text fill="#000000" font-family="sans-serif" font-size="11" lengthAdjust="spacing" textLength="94.0854" x="514.8054" y="162.7783">Optimize as PNG?</text><text fill="#374151" font-family="'Casual'" font-size="11" lengthAdjust="spacing" textLength="17.4829" x="485.3225" y="156.3008">yes</text><text fill="#374151" font-family="'Casual'" font-size="11" lengthAdjust="spacing" textLength="50.832" x="620.8909" y="156.3008">JPEG path</text><rect fill="#F1F1F1" height="34.1328" rx="12.5" ry="12.5" style="stroke:#181818;stroke-width:0.5;" width="179.873" x="157.708" y="180.6211"/><text fill="#000000" font-family="sans-serif" font-size="12" lengthAdjust="spacing" textLength="159.873" x="167.708" y="202.2227">Create ImageMagick facade</text><polygon fill="#F1F1F1" points="197.5215,234.7539,297.7676,234.7539,309.7676,246.7539,297.7676,258.7539,197.5215,258.7539,185.5215,246.7539,197.5215,234.7539" style="stroke:#181818;stroke-width:0.5;stroke-linejoin:miter;stroke-miterlimit:10;"/><text fill="#000000" font-family="sans-serif" font-size="11" lengthAdjust="spacing" textLength="100.2461" x="197.5215" y="250.9111">Input already PNG?</text><text fill="#374151" font-family="'Casual'" font-size="11" lengthAdjust="spacing" textLength="17.4829" x="168.0386" y="244.4336">yes</text><text fill="#374151" font-family="'Casual'" font-size="11" lengthAdjust="spacing" textLength="13.5835" x="309.7676" y="244.4336">no</text><rect fill="#F1F1F1" height="34.1328" rx="12.5" ry="12.5" style="stroke:#181818;stroke-width:0.5;" width="154.6777" x="16" y="268.7539"/><text fill="#000000" font-family="sans-serif" font-size="12" lengthAdjust="spacing" textLength="134.6777" x="26" y="290.3555">Keep original PNG path</text><rect fill="#F1F1F1" height="34.1328" rx="12.5" ry="12.5" style="stroke:#181818;stroke-width:0.5;" width="205.4961" x="299.2021" y="268.7539"/><text fill="#000000" font-family="sans-serif" font-size="12" lengthAdjust="spacing" textLength="185.4961" x="309.2021" y="290.3555">Run mogrify to create PNG copy</text><polygon fill="#F1F1F1" points="339.9785,322.8867,463.9219,322.8867,475.9219,334.8867,463.9219,346.8867,339.9785,346.8867,327.9785,334.8867,339.9785,322.8867" style="stroke:#181818;stroke-width:0.5;stroke-linejoin:miter;stroke-miterlimit:10;"/><text fill="#000000" font-family="sans-serif" font-size="11" lengthAdjust="spacing" textLength="123.9434" x="339.9785" y="339.0439">Conversion succeeded?</text><text fill="#374151" font-family="'Casual'" font-size="11" lengthAdjust="spacing" textLength="17.4829" x="310.4956" y="332.5664">yes</text><text fill="#374151" font-family="'Casual'" font-size="11" lengthAdjust="spacing" textLength="13.5835" x="475.9219" y="332.5664">no</text><rect fill="#F1F1F1" height="34.1328" rx="12.5" ry="12.5" style="stroke:#181818;stroke-width:0.5;" width="192.793" x="200.6777" y="356.8867"/><text fill="#000000" font-family="sans-serif" font-size="12" lengthAdjust="spacing" textLength="172.793" x="210.6777" y="378.4883">Remove original non-PNG file</text><rect fill="#F1F1F1" height="34.1328" rx="12.5" ry="12.5" style="stroke:#181818;stroke-width:0.5;" width="160.209" x="216.9697" y="411.0195"/><text fill="#000000" font-family="sans-serif" font-size="12" lengthAdjust="spacing" textLength="140.209" x="226.9697" y="432.6211">Continue with PNG copy</text><rect fill="#F1F1F1" height="34.1328" rx="12.5" ry="12.5" style="stroke:#181818;stroke-width:0.5;" width="186.7109" x="413.4707" y="356.8867"/><text fill="#000000" font-family="sans-serif" font-size="12" lengthAdjust="spacing" textLength="166.7109" x="423.4707" y="378.4883">Keep original file unchanged</text><rect fill="#F1F1F1" height="34.1328" rx="12.5" ry="12.5" style="stroke:#181818;stroke-width:0.5;" width="169.2793" x="422.1865" y="411.0195"/><text fill="#000000" font-family="sans-serif" font-size="12" lengthAdjust="spacing" textLength="149.2793" x="432.1865" y="432.6211">Capture stderr / message</text><ellipse cx="506.8262" cy="476.1523" fill="none" rx="11" ry="11" style="stroke:#222222;stroke-width:1;"/><ellipse cx="506.8262" cy="476.1523" fill="#222222" rx="6" ry="6" style="stroke:#222222;stroke-width:1;"/><polygon fill="#F1F1F1" points="247.6445,497.1523,259.6445,509.1523,247.6445,521.1523,235.6445,509.1523,247.6445,497.1523" style="stroke:#181818;stroke-width:0.5;stroke-linejoin:miter;stroke-miterlimit:10;"/><rect fill="#F1F1F1" height="34.1328" rx="12.5" ry="12.5" style="stroke:#181818;stroke-width:0.5;" width="336.0898" x="79.5996" y="541.1523"/><text fill="#000000" font-family="sans-serif" font-size="12" lengthAdjust="spacing" textLength="316.0898" x="89.5996" y="562.7539">Run OptiPng external tool through CLI command layer</text><polygon fill="#F1F1F1" points="194.3525,595.2852,300.9365,595.2852,312.9365,607.2852,300.9365,619.2852,194.3525,619.2852,182.3525,607.2852,194.3525,595.2852" style="stroke:#181818;stroke-width:0.5;stroke-linejoin:miter;stroke-miterlimit:10;"/><text fill="#000000" font-family="sans-serif" font-size="11" lengthAdjust="spacing" textLength="106.584" x="194.3525" y="611.4424">OptiPng succeeded?</text><text fill="#374151" font-family="'Casual'" font-size="11" lengthAdjust="spacing" textLength="17.4829" x="164.8696" y="604.9648">yes</text><text fill="#374151" font-family="'Casual'" font-size="11" lengthAdjust="spacing" textLength="13.5835" x="312.9365" y="604.9648">no</text><rect fill="#F1F1F1" height="34.1328" rx="12.5" ry="12.5" style="stroke:#181818;stroke-width:0.5;" width="149" x="81.6411" y="629.2852"/><text fill="#000000" font-family="sans-serif" font-size="12" lengthAdjust="spacing" textLength="129" x="91.6411" y="650.8867">Return optimized PNG</text><rect fill="#F1F1F1" height="34.1328" rx="12.5" ry="12.5" style="stroke:#181818;stroke-width:0.5;" width="169.2793" x="254.5083" y="629.2852"/><text fill="#000000" font-family="sans-serif" font-size="12" lengthAdjust="spacing" textLength="149.2793" x="264.5083" y="650.8867">Capture stderr / message</text><rect fill="#F1F1F1" height="34.1328" rx="12.5" ry="12.5" style="stroke:#181818;stroke-width:0.5;" width="177.0137" x="250.6411" y="698.418"/><text fill="#000000" font-family="sans-serif" font-size="12" lengthAdjust="spacing" textLength="157.0137" x="260.6411" y="720.0195">Return optimization failure</text><polygon fill="#F1F1F1" points="247.6445,738.5508,259.6445,750.5508,247.6445,762.5508,235.6445,750.5508,247.6445,738.5508" style="stroke:#181818;stroke-width:0.5;stroke-linejoin:miter;stroke-miterlimit:10;"/><rect fill="#F1F1F1" height="34.1328" rx="12.5" ry="12.5" style="stroke:#181818;stroke-width:0.5;" width="179.873" x="786.1152" y="180.6211"/><text fill="#000000" font-family="sans-serif" font-size="12" lengthAdjust="spacing" textLength="159.873" x="796.1152" y="202.2227">Create ImageMagick facade</text><polygon fill="#F1F1F1" points="828.2813,234.7539,923.8223,234.7539,935.8223,246.7539,923.8223,258.7539,828.2813,258.7539,816.2813,246.7539,828.2813,234.7539" style="stroke:#181818;stroke-width:0.5;stroke-linejoin:miter;stroke-miterlimit:10;"/><text fill="#000000" font-family="sans-serif" font-size="11" lengthAdjust="spacing" textLength="95.541" x="828.2813" y="250.9111">Input already JPG?</text><text fill="#374151" font-family="'Casual'" font-size="11" lengthAdjust="spacing" textLength="17.4829" x="798.7983" y="244.4336">yes</text><text fill="#374151" font-family="'Casual'" font-size="11" lengthAdjust="spacing" textLength="13.5835" x="935.8223" y="244.4336">no</text><rect fill="#F1F1F1" height="34.1328" rx="12.5" ry="12.5" style="stroke:#181818;stroke-width:0.5;" width="149.5449" x="650.1816" y="268.7539"/><text fill="#000000" font-family="sans-serif" font-size="12" lengthAdjust="spacing" textLength="129.5449" x="660.1816" y="290.3555">Keep original JPG path</text><rect fill="#F1F1F1" height="34.1328" rx="12.5" ry="12.5" style="stroke:#181818;stroke-width:0.5;" width="200.3633" x="926.9678" y="268.7539"/><text fill="#000000" font-family="sans-serif" font-size="12" lengthAdjust="spacing" textLength="180.3633" x="936.9678" y="290.3555">Run mogrify to create JPG copy</text><polygon fill="#F1F1F1" points="965.1777,322.8867,1089.1211,322.8867,1101.1211,334.8867,1089.1211,346.8867,965.1777,346.8867,953.1777,334.8867,965.1777,322.8867" style="stroke:#181818;stroke-width:0.5;stroke-linejoin:miter;stroke-miterlimit:10;"/><text fill="#000000" font-family="sans-serif" font-size="11" lengthAdjust="spacing" textLength="123.9434" x="965.1777" y="339.0439">Conversion succeeded?</text><text fill="#374151" font-family="'Casual'" font-size="11" lengthAdjust="spacing" textLength="17.4829" x="935.6948" y="332.5664">yes</text><text fill="#374151" font-family="'Casual'" font-size="11" lengthAdjust="spacing" textLength="13.5835" x="1101.1211" y="332.5664">no</text><rect fill="#F1F1F1" height="34.1328" rx="12.5" ry="12.5" style="stroke:#181818;stroke-width:0.5;" width="187.6602" x="829.7266" y="356.8867"/><text fill="#000000" font-family="sans-serif" font-size="12" lengthAdjust="spacing" textLength="167.6602" x="839.7266" y="378.4883">Remove original non-JPG file</text><rect fill="#F1F1F1" height="34.1328" rx="12.5" ry="12.5" style="stroke:#181818;stroke-width:0.5;" width="155.0762" x="846.0186" y="411.0195"/><text fill="#000000" font-family="sans-serif" font-size="12" lengthAdjust="spacing" textLength="135.0762" x="856.0186" y="432.6211">Continue with JPG copy</text><rect fill="#F1F1F1" height="34.1328" rx="12.5" ry="12.5" style="stroke:#181818;stroke-width:0.5;" width="186.7109" x="1037.3867" y="356.8867"/><text fill="#000000" font-family="sans-serif" font-size="12" lengthAdjust="spacing" textLength="166.7109" x="1047.3867" y="378.4883">Keep original file unchanged</text><rect fill="#F1F1F1" height="34.1328" rx="12.5" ry="12.5" style="stroke:#181818;stroke-width:0.5;" width="169.2793" x="1046.1025" y="411.0195"/><text fill="#000000" font-family="sans-serif" font-size="12" lengthAdjust="spacing" textLength="149.2793" x="1056.1025" y="432.6211">Capture stderr / message</text><ellipse cx="1130.7422" cy="476.1523" fill="none" rx="11" ry="11" style="stroke:#222222;stroke-width:1;"/><ellipse cx="1130.7422" cy="476.1523" fill="#222222" rx="6" ry="6" style="stroke:#222222;stroke-width:1;"/><polygon fill="#F1F1F1" points="876.0518,497.1523,888.0518,509.1523,876.0518,521.1523,864.0518,509.1523,876.0518,497.1523" style="stroke:#181818;stroke-width:0.5;stroke-linejoin:miter;stroke-miterlimit:10;"/><rect fill="#F1F1F1" height="34.1328" rx="12.5" ry="12.5" style="stroke:#181818;stroke-width:0.5;" width="190.4844" x="780.8096" y="541.1523"/><text fill="#000000" font-family="sans-serif" font-size="12" lengthAdjust="spacing" textLength="170.4844" x="790.8096" y="562.7539">Move current JPG to temp file</text><rect fill="#F1F1F1" height="34.1328" rx="12.5" ry="12.5" style="stroke:#181818;stroke-width:0.5;" width="301.1738" x="725.4648" y="595.2852"/><text fill="#000000" font-family="sans-serif" font-size="12" lengthAdjust="spacing" textLength="281.1738" x="735.4648" y="616.8867">Run JpegTran with temp input and target output</text><polygon fill="#F1F1F1" points="771.5732,664.418,980.5303,664.418,992.5303,676.418,980.5303,688.418,771.5732,688.418,759.5732,676.418,771.5732,664.418" style="stroke:#181818;stroke-width:0.5;stroke-linejoin:miter;stroke-miterlimit:10;"/><text fill="#000000" font-family="sans-serif" font-size="11" lengthAdjust="spacing" textLength="208.957" x="771.5732" y="680.5752">JpegTran succeeded and output exists?</text><text fill="#374151" font-family="'Casual'" font-size="11" lengthAdjust="spacing" textLength="17.4829" x="742.0903" y="674.0977">yes</text><text fill="#374151" font-family="'Casual'" font-size="11" lengthAdjust="spacing" textLength="13.5835" x="992.5303" y="674.0977">no</text><rect fill="#F1F1F1" height="34.1328" rx="12.5" ry="12.5" style="stroke:#181818;stroke-width:0.5;" width="112.5605" x="693.293" y="698.418"/><text fill="#000000" font-family="sans-serif" font-size="12" lengthAdjust="spacing" textLength="92.5605" x="703.293" y="720.0195">Delete temp file</text><rect fill="#F1F1F1" height="34.1328" rx="12.5" ry="12.5" style="stroke:#181818;stroke-width:0.5;" width="143.8672" x="677.6396" y="767.5508"/><text fill="#000000" font-family="sans-serif" font-size="12" lengthAdjust="spacing" textLength="123.8672" x="687.6396" y="789.1523">Return optimized JPG</text><rect fill="#F1F1F1" height="34.1328" rx="12.5" ry="12.5" style="stroke:#181818;stroke-width:0.5;" width="140.5332" x="932.2637" y="746.8955"/><text fill="#000000" font-family="sans-serif" font-size="12" lengthAdjust="spacing" textLength="120.5332" x="942.2637" y="768.4971">Delete partial output</text><polygon fill="#F1F1F1" points="946.6548,698.418,1058.4058,698.418,1070.4058,710.418,1058.4058,722.418,946.6548,722.418,934.6548,710.418,946.6548,698.418" style="stroke:#181818;stroke-width:0.5;stroke-linejoin:miter;stroke-miterlimit:10;"/><text fill="#374151" font-family="'Casual'" font-size="11" lengthAdjust="spacing" textLength="17.4829" x="1006.5303" y="733.0527">yes</text><text fill="#000000" font-family="sans-serif" font-size="11" lengthAdjust="spacing" textLength="111.751" x="946.6548" y="714.5752">Partial output exists?</text><polygon fill="#F1F1F1" points="1002.5303,805.5059,1014.5303,817.5059,1002.5303,829.5059,990.5303,817.5059,1002.5303,805.5059" style="stroke:#181818;stroke-width:0.5;stroke-linejoin:miter;stroke-miterlimit:10;"/><rect fill="#F1F1F1" height="34.1328" rx="12.5" ry="12.5" style="stroke:#181818;stroke-width:0.5;" width="238.4023" x="883.3291" y="897.9834"/><text fill="#000000" font-family="sans-serif" font-size="12" lengthAdjust="spacing" textLength="218.4023" x="893.3291" y="919.585">Restore original image from temp file</text><polygon fill="#F1F1F1" points="946.2627,849.5059,1058.7979,849.5059,1070.7979,861.5059,1058.7979,873.5059,946.2627,873.5059,934.2627,861.5059,946.2627,849.5059" style="stroke:#181818;stroke-width:0.5;stroke-linejoin:miter;stroke-miterlimit:10;"/><text fill="#374151" font-family="'Casual'" font-size="11" lengthAdjust="spacing" textLength="17.4829" x="1006.5303" y="884.1406">yes</text><text fill="#000000" font-family="sans-serif" font-size="11" lengthAdjust="spacing" textLength="112.5352" x="946.2627" y="865.6631">Temp file still exists?</text><polygon fill="#F1F1F1" points="1002.5303,952.1162,1014.5303,964.1162,1002.5303,976.1162,990.5303,964.1162,1002.5303,952.1162" style="stroke:#181818;stroke-width:0.5;stroke-linejoin:miter;stroke-miterlimit:10;"/><rect fill="#F1F1F1" height="34.1328" rx="12.5" ry="12.5" style="stroke:#181818;stroke-width:0.5;" width="169.2793" x="917.8906" y="996.1162"/><text fill="#000000" font-family="sans-serif" font-size="12" lengthAdjust="spacing" textLength="149.2793" x="927.8906" y="1017.7178">Capture stderr / message</text><rect fill="#F1F1F1" height="34.1328" rx="12.5" ry="12.5" style="stroke:#181818;stroke-width:0.5;" width="306.0195" x="849.5205" y="1050.249"/><text fill="#000000" font-family="sans-serif" font-size="12" lengthAdjust="spacing" textLength="286.0195" x="859.5205" y="1071.8506">Return optimization failure with original restored</text><polygon fill="#F1F1F1" points="876.0518,1090.3818,888.0518,1102.3818,876.0518,1114.3818,864.0518,1102.3818,876.0518,1090.3818" style="stroke:#181818;stroke-width:0.5;stroke-linejoin:miter;stroke-miterlimit:10;"/><polygon fill="#F1F1F1" points="561.8481,1120.3818,573.8481,1132.3818,561.8481,1144.3818,549.8481,1132.3818,561.8481,1120.3818" style="stroke:#181818;stroke-width:0.5;stroke-linejoin:miter;stroke-miterlimit:10;"/><ellipse cx="561.8481" cy="1175.3818" fill="none" rx="11" ry="11" style="stroke:#222222;stroke-width:1;"/><ellipse cx="561.8481" cy="1175.3818" fill="#222222" rx="6" ry="6" style="stroke:#222222;stroke-width:1;"/><line style="stroke:#9B2C2C;stroke-width:1;" x1="561.8481" x2="561.8481" y1="72.4883" y2="92.4883"/><polygon fill="#9B2C2C" points="557.8481,82.4883,561.8481,92.4883,565.8481,82.4883,561.8481,86.4883" style="stroke:#9B2C2C;stroke-width:1;stroke-linejoin:miter;stroke-miterlimit:10;"/><line style="stroke:#9B2C2C;stroke-width:1;" x1="297.0742" x2="297.0742" y1="391.0195" y2="411.0195"/><polygon fill="#9B2C2C" points="293.0742,401.0195,297.0742,411.0195,301.0742,401.0195,297.0742,405.0195" style="stroke:#9B2C2C;stroke-width:1;stroke-linejoin:miter;stroke-miterlimit:10;"/><line style="stroke:#9B2C2C;stroke-width:1;" x1="506.8262" x2="506.8262" y1="391.0195" y2="411.0195"/><polygon fill="#9B2C2C" points="502.8262,401.0195,506.8262,411.0195,510.8262,401.0195,506.8262,405.0195" style="stroke:#9B2C2C;stroke-width:1;stroke-linejoin:miter;stroke-miterlimit:10;"/><line style="stroke:#9B2C2C;stroke-width:1;" x1="506.8262" x2="506.8262" y1="445.1523" y2="465.1523"/><polygon fill="#9B2C2C" points="502.8262,455.1523,506.8262,465.1523,510.8262,455.1523,506.8262,459.1523" style="stroke:#9B2C2C;stroke-width:1;stroke-linejoin:miter;stroke-miterlimit:10;"/><line style="stroke:#9B2C2C;stroke-width:1;" x1="327.9785" x2="297.0742" y1="334.8867" y2="334.8867"/><line style="stroke:#9B2C2C;stroke-width:1;" x1="297.0742" x2="297.0742" y1="334.8867" y2="356.8867"/><polygon fill="#9B2C2C" points="293.0742,346.8867,297.0742,356.8867,301.0742,346.8867,297.0742,350.8867" style="stroke:#9B2C2C;stroke-width:1;stroke-linejoin:miter;stroke-miterlimit:10;"/><line style="stroke:#9B2C2C;stroke-width:1;" x1="475.9219" x2="506.8262" y1="334.8867" y2="334.8867"/><line style="stroke:#9B2C2C;stroke-width:1;" x1="506.8262" x2="506.8262" y1="334.8867" y2="356.8867"/><polygon fill="#9B2C2C" points="502.8262,346.8867,506.8262,356.8867,510.8262,346.8867,506.8262,350.8867" style="stroke:#9B2C2C;stroke-width:1;stroke-linejoin:miter;stroke-miterlimit:10;"/><line style="stroke:#9B2C2C;stroke-width:1;" x1="297.0742" x2="297.0742" y1="445.1523" y2="509.1523"/><line style="stroke:#9B2C2C;stroke-width:1;" x1="297.0742" x2="259.6445" y1="509.1523" y2="509.1523"/><polygon fill="#9B2C2C" points="269.6445,505.1523,259.6445,509.1523,269.6445,513.1523,265.6445,509.1523" style="stroke:#9B2C2C;stroke-width:1;stroke-linejoin:miter;stroke-miterlimit:10;"/><line style="stroke:#9B2C2C;stroke-width:1;" x1="401.9502" x2="401.9502" y1="302.8867" y2="322.8867"/><polygon fill="#9B2C2C" points="397.9502,312.8867,401.9502,322.8867,405.9502,312.8867,401.9502,316.8867" style="stroke:#9B2C2C;stroke-width:1;stroke-linejoin:miter;stroke-miterlimit:10;"/><line style="stroke:#9B2C2C;stroke-width:1;" x1="185.5215" x2="93.3389" y1="246.7539" y2="246.7539"/><line style="stroke:#9B2C2C;stroke-width:1;" x1="93.3389" x2="93.3389" y1="246.7539" y2="268.7539"/><polygon fill="#9B2C2C" points="89.3389,258.7539,93.3389,268.7539,97.3389,258.7539,93.3389,262.7539" style="stroke:#9B2C2C;stroke-width:1;stroke-linejoin:miter;stroke-miterlimit:10;"/><line style="stroke:#9B2C2C;stroke-width:1;" x1="309.7676" x2="401.9502" y1="246.7539" y2="246.7539"/><line style="stroke:#9B2C2C;stroke-width:1;" x1="401.9502" x2="401.9502" y1="246.7539" y2="268.7539"/><polygon fill="#9B2C2C" points="397.9502,258.7539,401.9502,268.7539,405.9502,258.7539,401.9502,262.7539" style="stroke:#9B2C2C;stroke-width:1;stroke-linejoin:miter;stroke-miterlimit:10;"/><line style="stroke:#9B2C2C;stroke-width:1;" x1="93.3389" x2="93.3389" y1="302.8867" y2="509.1523"/><line style="stroke:#9B2C2C;stroke-width:1;" x1="93.3389" x2="235.6445" y1="509.1523" y2="509.1523"/><polygon fill="#9B2C2C" points="225.6445,505.1523,235.6445,509.1523,225.6445,513.1523,229.6445,509.1523" style="stroke:#9B2C2C;stroke-width:1;stroke-linejoin:miter;stroke-miterlimit:10;"/><line style="stroke:#9B2C2C;stroke-width:1;" x1="247.6445" x2="247.6445" y1="214.7539" y2="234.7539"/><polygon fill="#9B2C2C" points="243.6445,224.7539,247.6445,234.7539,251.6445,224.7539,247.6445,228.7539" style="stroke:#9B2C2C;stroke-width:1;stroke-linejoin:miter;stroke-miterlimit:10;"/><line style="stroke:#9B2C2C;stroke-width:1;" x1="247.6445" x2="247.6445" y1="521.1523" y2="541.1523"/><polygon fill="#9B2C2C" points="243.6445,531.1523,247.6445,541.1523,251.6445,531.1523,247.6445,535.1523" style="stroke:#9B2C2C;stroke-width:1;stroke-linejoin:miter;stroke-miterlimit:10;"/><line style="stroke:#9B2C2C;stroke-width:1;" x1="339.1479" x2="339.1479" y1="663.418" y2="698.418"/><polygon fill="#9B2C2C" points="335.1479,688.418,339.1479,698.418,343.1479,688.418,339.1479,692.418" style="stroke:#9B2C2C;stroke-width:1;stroke-linejoin:miter;stroke-miterlimit:10;"/><line style="stroke:#9B2C2C;stroke-width:1;" x1="182.3525" x2="156.1411" y1="607.2852" y2="607.2852"/><line style="stroke:#9B2C2C;stroke-width:1;" x1="156.1411" x2="156.1411" y1="607.2852" y2="629.2852"/><polygon fill="#9B2C2C" points="152.1411,619.2852,156.1411,629.2852,160.1411,619.2852,156.1411,623.2852" style="stroke:#9B2C2C;stroke-width:1;stroke-linejoin:miter;stroke-miterlimit:10;"/><line style="stroke:#9B2C2C;stroke-width:1;" x1="312.9365" x2="339.1479" y1="607.2852" y2="607.2852"/><line style="stroke:#9B2C2C;stroke-width:1;" x1="339.1479" x2="339.1479" y1="607.2852" y2="629.2852"/><polygon fill="#9B2C2C" points="335.1479,619.2852,339.1479,629.2852,343.1479,619.2852,339.1479,623.2852" style="stroke:#9B2C2C;stroke-width:1;stroke-linejoin:miter;stroke-miterlimit:10;"/><line style="stroke:#9B2C2C;stroke-width:1;" x1="156.1411" x2="156.1411" y1="663.418" y2="750.5508"/><line style="stroke:#9B2C2C;stroke-width:1;" x1="156.1411" x2="235.6445" y1="750.5508" y2="750.5508"/><polygon fill="#9B2C2C" points="225.6445,746.5508,235.6445,750.5508,225.6445,754.5508,229.6445,750.5508" style="stroke:#9B2C2C;stroke-width:1;stroke-linejoin:miter;stroke-miterlimit:10;"/><line style="stroke:#9B2C2C;stroke-width:1;" x1="339.1479" x2="339.1479" y1="732.5508" y2="750.5508"/><line style="stroke:#9B2C2C;stroke-width:1;" x1="339.1479" x2="259.6445" y1="750.5508" y2="750.5508"/><polygon fill="#9B2C2C" points="269.6445,746.5508,259.6445,750.5508,269.6445,754.5508,265.6445,750.5508" style="stroke:#9B2C2C;stroke-width:1;stroke-linejoin:miter;stroke-miterlimit:10;"/><line style="stroke:#9B2C2C;stroke-width:1;" x1="247.6445" x2="247.6445" y1="575.2852" y2="595.2852"/><polygon fill="#9B2C2C" points="243.6445,585.2852,247.6445,595.2852,251.6445,585.2852,247.6445,589.2852" style="stroke:#9B2C2C;stroke-width:1;stroke-linejoin:miter;stroke-miterlimit:10;"/><line style="stroke:#9B2C2C;stroke-width:1;" x1="923.5566" x2="923.5566" y1="391.0195" y2="411.0195"/><polygon fill="#9B2C2C" points="919.5566,401.0195,923.5566,411.0195,927.5566,401.0195,923.5566,405.0195" style="stroke:#9B2C2C;stroke-width:1;stroke-linejoin:miter;stroke-miterlimit:10;"/><line style="stroke:#9B2C2C;stroke-width:1;" x1="1130.7422" x2="1130.7422" y1="391.0195" y2="411.0195"/><polygon fill="#9B2C2C" points="1126.7422,401.0195,1130.7422,411.0195,1134.7422,401.0195,1130.7422,405.0195" style="stroke:#9B2C2C;stroke-width:1;stroke-linejoin:miter;stroke-miterlimit:10;"/><line style="stroke:#9B2C2C;stroke-width:1;" x1="1130.7422" x2="1130.7422" y1="445.1523" y2="465.1523"/><polygon fill="#9B2C2C" points="1126.7422,455.1523,1130.7422,465.1523,1134.7422,455.1523,1130.7422,459.1523" style="stroke:#9B2C2C;stroke-width:1;stroke-linejoin:miter;stroke-miterlimit:10;"/><line style="stroke:#9B2C2C;stroke-width:1;" x1="953.1777" x2="923.5566" y1="334.8867" y2="334.8867"/><line style="stroke:#9B2C2C;stroke-width:1;" x1="923.5566" x2="923.5566" y1="334.8867" y2="356.8867"/><polygon fill="#9B2C2C" points="919.5566,346.8867,923.5566,356.8867,927.5566,346.8867,923.5566,350.8867" style="stroke:#9B2C2C;stroke-width:1;stroke-linejoin:miter;stroke-miterlimit:10;"/><line style="stroke:#9B2C2C;stroke-width:1;" x1="1101.1211" x2="1130.7422" y1="334.8867" y2="334.8867"/><line style="stroke:#9B2C2C;stroke-width:1;" x1="1130.7422" x2="1130.7422" y1="334.8867" y2="356.8867"/><polygon fill="#9B2C2C" points="1126.7422,346.8867,1130.7422,356.8867,1134.7422,346.8867,1130.7422,350.8867" style="stroke:#9B2C2C;stroke-width:1;stroke-linejoin:miter;stroke-miterlimit:10;"/><line style="stroke:#9B2C2C;stroke-width:1;" x1="923.5566" x2="923.5566" y1="445.1523" y2="509.1523"/><line style="stroke:#9B2C2C;stroke-width:1;" x1="923.5566" x2="888.0518" y1="509.1523" y2="509.1523"/><polygon fill="#9B2C2C" points="898.0518,505.1523,888.0518,509.1523,898.0518,513.1523,894.0518,509.1523" style="stroke:#9B2C2C;stroke-width:1;stroke-linejoin:miter;stroke-miterlimit:10;"/><line style="stroke:#9B2C2C;stroke-width:1;" x1="1027.1494" x2="1027.1494" y1="302.8867" y2="322.8867"/><polygon fill="#9B2C2C" points="1023.1494,312.8867,1027.1494,322.8867,1031.1494,312.8867,1027.1494,316.8867" style="stroke:#9B2C2C;stroke-width:1;stroke-linejoin:miter;stroke-miterlimit:10;"/><line style="stroke:#9B2C2C;stroke-width:1;" x1="816.2813" x2="724.9541" y1="246.7539" y2="246.7539"/><line style="stroke:#9B2C2C;stroke-width:1;" x1="724.9541" x2="724.9541" y1="246.7539" y2="268.7539"/><polygon fill="#9B2C2C" points="720.9541,258.7539,724.9541,268.7539,728.9541,258.7539,724.9541,262.7539" style="stroke:#9B2C2C;stroke-width:1;stroke-linejoin:miter;stroke-miterlimit:10;"/><line style="stroke:#9B2C2C;stroke-width:1;" x1="935.8223" x2="1027.1494" y1="246.7539" y2="246.7539"/><line style="stroke:#9B2C2C;stroke-width:1;" x1="1027.1494" x2="1027.1494" y1="246.7539" y2="268.7539"/><polygon fill="#9B2C2C" points="1023.1494,258.7539,1027.1494,268.7539,1031.1494,258.7539,1027.1494,262.7539" style="stroke:#9B2C2C;stroke-width:1;stroke-linejoin:miter;stroke-miterlimit:10;"/><line style="stroke:#9B2C2C;stroke-width:1;" x1="724.9541" x2="724.9541" y1="302.8867" y2="509.1523"/><line style="stroke:#9B2C2C;stroke-width:1;" x1="724.9541" x2="864.0518" y1="509.1523" y2="509.1523"/><polygon fill="#9B2C2C" points="854.0518,505.1523,864.0518,509.1523,854.0518,513.1523,858.0518,509.1523" style="stroke:#9B2C2C;stroke-width:1;stroke-linejoin:miter;stroke-miterlimit:10;"/><line style="stroke:#9B2C2C;stroke-width:1;" x1="876.0518" x2="876.0518" y1="214.7539" y2="234.7539"/><polygon fill="#9B2C2C" points="872.0518,224.7539,876.0518,234.7539,880.0518,224.7539,876.0518,228.7539" style="stroke:#9B2C2C;stroke-width:1;stroke-linejoin:miter;stroke-miterlimit:10;"/><line style="stroke:#9B2C2C;stroke-width:1;" x1="876.0518" x2="876.0518" y1="521.1523" y2="541.1523"/><polygon fill="#9B2C2C" points="872.0518,531.1523,876.0518,541.1523,880.0518,531.1523,876.0518,535.1523" style="stroke:#9B2C2C;stroke-width:1;stroke-linejoin:miter;stroke-miterlimit:10;"/><line style="stroke:#9B2C2C;stroke-width:1;" x1="876.0518" x2="876.0518" y1="575.2852" y2="595.2852"/><polygon fill="#9B2C2C" points="872.0518,585.2852,876.0518,595.2852,880.0518,585.2852,876.0518,589.2852" style="stroke:#9B2C2C;stroke-width:1;stroke-linejoin:miter;stroke-miterlimit:10;"/><line style="stroke:#9B2C2C;stroke-width:1;" x1="749.5732" x2="749.5732" y1="732.5508" y2="767.5508"/><polygon fill="#9B2C2C" points="745.5732,757.5508,749.5732,767.5508,753.5732,757.5508,749.5732,761.5508" style="stroke:#9B2C2C;stroke-width:1;stroke-linejoin:miter;stroke-miterlimit:10;"/><line style="stroke:#9B2C2C;stroke-width:1;" x1="1002.5303" x2="1002.5303" y1="722.418" y2="746.8955"/><polygon fill="#9B2C2C" points="998.5303,736.8955,1002.5303,746.8955,1006.5303,736.8955,1002.5303,740.8955" style="stroke:#9B2C2C;stroke-width:1;stroke-linejoin:miter;stroke-miterlimit:10;"/><line style="stroke:#9B2C2C;stroke-width:1;" x1="1070.4058" x2="1082.7969" y1="710.418" y2="710.418"/><polygon fill="#9B2C2C" points="1078.7969,753.9619,1082.7969,763.9619,1086.7969,753.9619,1082.7969,757.9619" style="stroke:#9B2C2C;stroke-width:1;stroke-linejoin:miter;stroke-miterlimit:10;"/><line style="stroke:#9B2C2C;stroke-width:1;" x1="1082.7969" x2="1082.7969" y1="710.418" y2="817.5059"/><line style="stroke:#9B2C2C;stroke-width:1;" x1="1082.7969" x2="1014.5303" y1="817.5059" y2="817.5059"/><polygon fill="#9B2C2C" points="1024.5303,813.5059,1014.5303,817.5059,1024.5303,821.5059,1020.5303,817.5059" style="stroke:#9B2C2C;stroke-width:1;stroke-linejoin:miter;stroke-miterlimit:10;"/><line style="stroke:#9B2C2C;stroke-width:1;" x1="1002.5303" x2="1002.5303" y1="781.0283" y2="805.5059"/><polygon fill="#9B2C2C" points="998.5303,795.5059,1002.5303,805.5059,1006.5303,795.5059,1002.5303,799.5059" style="stroke:#9B2C2C;stroke-width:1;stroke-linejoin:miter;stroke-miterlimit:10;"/><line style="stroke:#9B2C2C;stroke-width:1;" x1="1002.5303" x2="1002.5303" y1="873.5059" y2="897.9834"/><polygon fill="#9B2C2C" points="998.5303,887.9834,1002.5303,897.9834,1006.5303,887.9834,1002.5303,891.9834" style="stroke:#9B2C2C;stroke-width:1;stroke-linejoin:miter;stroke-miterlimit:10;"/><line style="stroke:#9B2C2C;stroke-width:1;" x1="1070.7979" x2="1131.7314" y1="861.5059" y2="861.5059"/><polygon fill="#9B2C2C" points="1127.7314,905.0498,1131.7314,915.0498,1135.7314,905.0498,1131.7314,909.0498" style="stroke:#9B2C2C;stroke-width:1;stroke-linejoin:miter;stroke-miterlimit:10;"/><line style="stroke:#9B2C2C;stroke-width:1;" x1="1131.7314" x2="1131.7314" y1="861.5059" y2="964.1162"/><line style="stroke:#9B2C2C;stroke-width:1;" x1="1131.7314" x2="1014.5303" y1="964.1162" y2="964.1162"/><polygon fill="#9B2C2C" points="1024.5303,960.1162,1014.5303,964.1162,1024.5303,968.1162,1020.5303,964.1162" style="stroke:#9B2C2C;stroke-width:1;stroke-linejoin:miter;stroke-miterlimit:10;"/><line style="stroke:#9B2C2C;stroke-width:1;" x1="1002.5303" x2="1002.5303" y1="932.1162" y2="952.1162"/><polygon fill="#9B2C2C" points="998.5303,942.1162,1002.5303,952.1162,1006.5303,942.1162,1002.5303,946.1162" style="stroke:#9B2C2C;stroke-width:1;stroke-linejoin:miter;stroke-miterlimit:10;"/><line style="stroke:#9B2C2C;stroke-width:1;" x1="1002.5303" x2="1002.5303" y1="829.5059" y2="849.5059"/><polygon fill="#9B2C2C" points="998.5303,839.5059,1002.5303,849.5059,1006.5303,839.5059,1002.5303,843.5059" style="stroke:#9B2C2C;stroke-width:1;stroke-linejoin:miter;stroke-miterlimit:10;"/><line style="stroke:#9B2C2C;stroke-width:1;" x1="1002.5303" x2="1002.5303" y1="976.1162" y2="996.1162"/><polygon fill="#9B2C2C" points="998.5303,986.1162,1002.5303,996.1162,1006.5303,986.1162,1002.5303,990.1162" style="stroke:#9B2C2C;stroke-width:1;stroke-linejoin:miter;stroke-miterlimit:10;"/><line style="stroke:#9B2C2C;stroke-width:1;" x1="1002.5303" x2="1002.5303" y1="1030.249" y2="1050.249"/><polygon fill="#9B2C2C" points="998.5303,1040.249,1002.5303,1050.249,1006.5303,1040.249,1002.5303,1044.249" style="stroke:#9B2C2C;stroke-width:1;stroke-linejoin:miter;stroke-miterlimit:10;"/><line style="stroke:#9B2C2C;stroke-width:1;" x1="759.5732" x2="749.5732" y1="676.418" y2="676.418"/><line style="stroke:#9B2C2C;stroke-width:1;" x1="749.5732" x2="749.5732" y1="676.418" y2="698.418"/><polygon fill="#9B2C2C" points="745.5732,688.418,749.5732,698.418,753.5732,688.418,749.5732,692.418" style="stroke:#9B2C2C;stroke-width:1;stroke-linejoin:miter;stroke-miterlimit:10;"/><line style="stroke:#9B2C2C;stroke-width:1;" x1="992.5303" x2="1002.5303" y1="676.418" y2="676.418"/><line style="stroke:#9B2C2C;stroke-width:1;" x1="1002.5303" x2="1002.5303" y1="676.418" y2="698.418"/><polygon fill="#9B2C2C" points="998.5303,688.418,1002.5303,698.418,1006.5303,688.418,1002.5303,692.418" style="stroke:#9B2C2C;stroke-width:1;stroke-linejoin:miter;stroke-miterlimit:10;"/><line style="stroke:#9B2C2C;stroke-width:1;" x1="749.5732" x2="749.5732" y1="801.6836" y2="1102.3818"/><line style="stroke:#9B2C2C;stroke-width:1;" x1="749.5732" x2="864.0518" y1="1102.3818" y2="1102.3818"/><polygon fill="#9B2C2C" points="854.0518,1098.3818,864.0518,1102.3818,854.0518,1106.3818,858.0518,1102.3818" style="stroke:#9B2C2C;stroke-width:1;stroke-linejoin:miter;stroke-miterlimit:10;"/><line style="stroke:#9B2C2C;stroke-width:1;" x1="1002.5303" x2="1002.5303" y1="1084.3818" y2="1102.3818"/><line style="stroke:#9B2C2C;stroke-width:1;" x1="1002.5303" x2="888.0518" y1="1102.3818" y2="1102.3818"/><polygon fill="#9B2C2C" points="898.0518,1098.3818,888.0518,1102.3818,898.0518,1106.3818,894.0518,1102.3818" style="stroke:#9B2C2C;stroke-width:1;stroke-linejoin:miter;stroke-miterlimit:10;"/><line style="stroke:#9B2C2C;stroke-width:1;" x1="876.0518" x2="876.0518" y1="629.418" y2="664.418"/><polygon fill="#9B2C2C" points="872.0518,654.418,876.0518,664.418,880.0518,654.418,876.0518,658.418" style="stroke:#9B2C2C;stroke-width:1;stroke-linejoin:miter;stroke-miterlimit:10;"/><line style="stroke:#9B2C2C;stroke-width:1;" x1="502.8054" x2="247.6445" y1="158.6211" y2="158.6211"/><line style="stroke:#9B2C2C;stroke-width:1;" x1="247.6445" x2="247.6445" y1="158.6211" y2="180.6211"/><polygon fill="#9B2C2C" points="243.6445,170.6211,247.6445,180.6211,251.6445,170.6211,247.6445,174.6211" style="stroke:#9B2C2C;stroke-width:1;stroke-linejoin:miter;stroke-miterlimit:10;"/><line style="stroke:#9B2C2C;stroke-width:1;" x1="620.8909" x2="876.0518" y1="158.6211" y2="158.6211"/><line style="stroke:#9B2C2C;stroke-width:1;" x1="876.0518" x2="876.0518" y1="158.6211" y2="180.6211"/><polygon fill="#9B2C2C" points="872.0518,170.6211,876.0518,180.6211,880.0518,170.6211,876.0518,174.6211" style="stroke:#9B2C2C;stroke-width:1;stroke-linejoin:miter;stroke-miterlimit:10;"/><line style="stroke:#9B2C2C;stroke-width:1;" x1="247.6445" x2="247.6445" y1="762.5508" y2="1132.3818"/><line style="stroke:#9B2C2C;stroke-width:1;" x1="247.6445" x2="549.8481" y1="1132.3818" y2="1132.3818"/><polygon fill="#9B2C2C" points="539.8481,1128.3818,549.8481,1132.3818,539.8481,1136.3818,543.8481,1132.3818" style="stroke:#9B2C2C;stroke-width:1;stroke-linejoin:miter;stroke-miterlimit:10;"/><line style="stroke:#9B2C2C;stroke-width:1;" x1="876.0518" x2="876.0518" y1="1114.3818" y2="1132.3818"/><line style="stroke:#9B2C2C;stroke-width:1;" x1="876.0518" x2="573.8481" y1="1132.3818" y2="1132.3818"/><polygon fill="#9B2C2C" points="583.8481,1128.3818,573.8481,1132.3818,583.8481,1136.3818,579.8481,1132.3818" style="stroke:#9B2C2C;stroke-width:1;stroke-linejoin:miter;stroke-miterlimit:10;"/><line style="stroke:#9B2C2C;stroke-width:1;" x1="561.8481" x2="561.8481" y1="126.6211" y2="146.6211"/><polygon fill="#9B2C2C" points="557.8481,136.6211,561.8481,146.6211,565.8481,136.6211,561.8481,140.6211" style="stroke:#9B2C2C;stroke-width:1;stroke-linejoin:miter;stroke-miterlimit:10;"/><line style="stroke:#9B2C2C;stroke-width:1;" x1="561.8481" x2="561.8481" y1="1144.3818" y2="1164.3818"/><polygon fill="#9B2C2C" points="557.8481,1154.3818,561.8481,1164.3818,565.8481,1154.3818,561.8481,1158.3818" style="stroke:#9B2C2C;stroke-width:1;stroke-linejoin:miter;stroke-miterlimit:10;"/><?plantuml-src lLJ1Jjj043t7Np6YXyAXj05QrEHGjQ5Kf8L65FM-s6DxXBrhxOv9pTTtTkq4nmGgggeNM_AyVM_cpLk_X9ze7HazWSFzyNX_7BaRqfMogeHh5TzarjGwcPd2M5ZcnDYhkrmbPaawWrGLhbyfI2Ct5OAnd9jUuOHK9kzJe_b2bGWxC-LgLUniX_oWEuJ3TxtYXM7yD6ZhHPgcnya3bB49sWwH75sFt_GH7wqrowxu_leWFeY7HQ_V0GwFZyPlnzi0cpD4J5mWN2ewArM6yBrYAkbEiTWBIYTmggYehI0mDhTecoXoh2n7qKI-8DqYK3YOaj1KYlDf554AknqHWdAmkFZoOGyuHmsx3RgzQ3IPMLIC44JFLKRnZImaLWbEev4_VgQhca4L0akQBGIZoLV4IdP56MbLU4IdFaBPA-ng4r2NjORIP9RI1jX0tCfwT6ogHj11RMRqRHifS7KS8oQO30M52qknu5vJ6_tAC_dHfm4XF4owHbWIvnig_QQ6lGVhQXtdIcUOT4ogOc-xOqc4XTTGedFYLQWwDfNdr0cbKVUAsbczxGj9D_vYj9wSZP57BjdBSfXzEvEEoj8ljb0DsixjrQb7XvVPfHqDfjjgueSRUlrKpmE2DbzfcwtfUeQMRhxut2xp-K6PB_uK544y8oWU_M-2ufaU2qfVvNy4vTnt5zVMekOWBWCpbjMgmM36lCBioYhTjXZAr7ejuP5VG8OCfcRv8ZS-cBC-iROcO5kG998SkmVRES42nUY-_9QqIPE3XNd1XVo8I7nvKc4jKMsWf_U-1AwhLGFY91N5esINAARQtdAxtvyrvUOGA_A_lXQjyMiTsmedwzlIhJFi-3S0?></g></svg>