<?plantuml 1.2026.2?><svg xmlns="http://www.w3.org/2000/svg" xmlns:xlink="http://www.w3.org/1999/xlink" contentStyleType="text/css" data-diagram-type="ACTIVITY" height="896px" preserveAspectRatio="none" style="width:670px;height:896px;background:#FFFFFF;" version="1.1" viewBox="0 0 670 896" width="670px" zoomAndPan="magnify"><title>RaiImage Background Removal and Transparent Export</title><defs/><g><g class="title" data-source-line="13"><text fill="#000000" font-family="sans-serif" font-size="14" font-weight="bold" lengthAdjust="spacing" textLength="398.3779" x="134.8071" y="33.5352">RaiImage Background Removal and Transparent Export</text></g><ellipse cx="378.0244" cy="57.4883" fill="#222222" rx="10" ry="10" style="stroke:#222222;stroke-width:1;"/><rect fill="#F1F1F1" height="34.1328" rx="12.5" ry="12.5" style="stroke:#181818;stroke-width:0.5;" width="184.5488" x="285.75" y="87.4883"/><text fill="#000000" font-family="sans-serif" font-size="12" lengthAdjust="spacing" textLength="164.5488" x="295.75" y="109.0898">Receive portrait image input</text><rect fill="#F1F1F1" height="34.1328" rx="12.5" ry="12.5" style="stroke:#181818;stroke-width:0.5;" width="179.873" x="288.0879" y="141.6211"/><text fill="#000000" font-family="sans-serif" font-size="12" lengthAdjust="spacing" textLength="159.873" x="298.0879" y="163.2227">Create ImageMagick facade</text><rect fill="#F1F1F1" height="34.1328" rx="12.5" ry="12.5" style="stroke:#181818;stroke-width:0.5;" width="204.1309" x="275.959" y="195.7539"/><text fill="#000000" font-family="sans-serif" font-size="12" lengthAdjust="spacing" textLength="184.1309" x="285.959" y="217.3555">Load or reference source image</text><polygon fill="#F1F1F1" points="312.916,249.8867,443.1328,249.8867,455.1328,261.8867,443.1328,273.8867,312.916,273.8867,300.916,261.8867,312.916,249.8867" style="stroke:#181818;stroke-width:0.5;"/><text fill="#000000" font-family="sans-serif" font-size="11" lengthAdjust="spacing" textLength="130.2168" x="312.916" y="266.0439">Need raster source first?</text><text fill="#374151" font-family="'Casual'" font-size="11" lengthAdjust="spacing" textLength="15.279" x="285.637" y="259.4777">yes</text><text fill="#374151" font-family="'Casual'" font-size="11" lengthAdjust="spacing" textLength="10.824" x="455.1328" y="259.4777">no</text><rect fill="#F1F1F1" height="34.1328" rx="12.5" ry="12.5" style="stroke:#181818;stroke-width:0.5;" width="261.998" x="116.6772" y="283.8867"/><text fill="#000000" font-family="sans-serif" font-size="12" lengthAdjust="spacing" textLength="241.998" x="126.6772" y="305.4883">Convert source into working raster image</text><rect fill="#F1F1F1" height="34.1328" rx="12.5" ry="12.5" style="stroke:#181818;stroke-width:0.5;" width="219.3945" x="398.6753" y="283.8867"/><text fill="#000000" font-family="sans-serif" font-size="12" lengthAdjust="spacing" textLength="199.3945" x="408.6753" y="305.4883">Use input as working raster image</text><polygon fill="#F1F1F1" points="378.0244,324.0195,390.0244,336.0195,378.0244,348.0195,366.0244,336.0195,378.0244,324.0195" style="stroke:#181818;stroke-width:0.5;"/><rect fill="#F1F1F1" height="48.2656" rx="12.5" ry="12.5" style="stroke:#181818;stroke-width:0.5;" width="280.9238" x="237.5625" y="368.0195"/><text fill="#000000" font-family="sans-serif" font-size="12" lengthAdjust="spacing" textLength="257.6543" x="247.5625" y="389.6211">Run background-removal convert command</text><text fill="#000000" font-family="sans-serif" font-size="12" lengthAdjust="spacing" textLength="260.9238" x="247.5625" y="403.7539">(alpha set, fuzz, transparent color or similar)</text><polygon fill="#F1F1F1" points="305.0259,436.2852,451.0229,436.2852,463.0229,448.2852,451.0229,460.2852,305.0259,460.2852,293.0259,448.2852,305.0259,436.2852" style="stroke:#181818;stroke-width:0.5;"/><text fill="#000000" font-family="sans-serif" font-size="11" lengthAdjust="spacing" textLength="145.9971" x="305.0259" y="452.4424">Transparent result created?</text><text fill="#374151" font-family="'Casual'" font-size="11" lengthAdjust="spacing" textLength="15.279" x="277.7469" y="445.8762">yes</text><text fill="#374151" font-family="'Casual'" font-size="11" lengthAdjust="spacing" textLength="10.824" x="463.0229" y="445.8762">no</text><rect fill="#F1F1F1" height="34.1328" rx="12.5" ry="12.5" style="stroke:#181818;stroke-width:0.5;" width="145.0508" x="132.7832" y="470.2852"/><text fill="#000000" font-family="sans-serif" font-size="12" lengthAdjust="spacing" textLength="125.0508" x="142.7832" y="491.8867">Save transparent PNG</text><rect fill="#F1F1F1" height="34.1328" rx="12.5" ry="12.5" style="stroke:#181818;stroke-width:0.5;" width="151.1855" x="129.7158" y="524.418"/><text fill="#000000" font-family="sans-serif" font-size="12" lengthAdjust="spacing" textLength="131.1855" x="139.7158" y="546.0195">Save transparent WEBP</text><rect fill="#F1F1F1" height="48.2656" rx="12.5" ry="12.5" style="stroke:#181818;stroke-width:0.5;" width="279.2012" x="65.708" y="578.5508"/><text fill="#000000" font-family="sans-serif" font-size="12" lengthAdjust="spacing" textLength="259.2012" x="75.708" y="600.1523">Optionally composite onto test backgrounds</text><text fill="#000000" font-family="sans-serif" font-size="12" lengthAdjust="spacing" textLength="148.2656" x="75.708" y="614.2852">(Nomsa red, black, white)</text><rect fill="#F1F1F1" height="48.2656" rx="12.5" ry="12.5" style="stroke:#181818;stroke-width:0.5;" width="238.3086" x="86.1543" y="646.8164"/><text fill="#000000" font-family="sans-serif" font-size="12" lengthAdjust="spacing" textLength="218.3086" x="96.1543" y="668.418">Identify corner and foreground pixels</text><text fill="#000000" font-family="sans-serif" font-size="12" lengthAdjust="spacing" textLength="85.1953" x="96.1543" y="682.5508">for verification</text><polygon fill="#F1F1F1" points="152.8679,715.082,257.7493,715.082,269.7493,727.082,257.7493,739.082,152.8679,739.082,140.8679,727.082,152.8679,715.082" style="stroke:#181818;stroke-width:0.5;"/><text fill="#000000" font-family="sans-serif" font-size="11" lengthAdjust="spacing" textLength="104.8813" x="152.8679" y="731.2393">Verification passes?</text><text fill="#374151" font-family="'Casual'" font-size="11" lengthAdjust="spacing" textLength="15.279" x="125.5889" y="724.673">yes</text><text fill="#374151" font-family="'Casual'" font-size="11" lengthAdjust="spacing" textLength="10.824" x="269.7493" y="724.673">no</text><rect fill="#F1F1F1" height="34.1328" rx="12.5" ry="12.5" style="stroke:#181818;stroke-width:0.5;" width="178.373" x="11" y="749.082"/><text fill="#000000" font-family="sans-serif" font-size="12" lengthAdjust="spacing" textLength="158.373" x="21" y="770.6836">Return transparent outputs</text><rect fill="#F1F1F1" height="34.1328" rx="12.5" ry="12.5" style="stroke:#181818;stroke-width:0.5;" width="202.1152" x="209.373" y="749.082"/><text fill="#000000" font-family="sans-serif" font-size="12" lengthAdjust="spacing" textLength="182.1152" x="219.373" y="770.6836">Return validation failure details</text><polygon fill="#F1F1F1" points="205.3086,789.2148,217.3086,801.2148,205.3086,813.2148,193.3086,801.2148,205.3086,789.2148" style="stroke:#181818;stroke-width:0.5;"/><rect fill="#F1F1F1" height="34.1328" rx="12.5" ry="12.5" style="stroke:#181818;stroke-width:0.5;" width="218.5039" x="441.4883" y="470.2852"/><text fill="#000000" font-family="sans-serif" font-size="12" lengthAdjust="spacing" textLength="198.5039" x="451.4883" y="491.8867">Capture stderr / command output</text><rect fill="#F1F1F1" height="34.1328" rx="12.5" ry="12.5" style="stroke:#181818;stroke-width:0.5;" width="208.8887" x="446.2959" y="524.418"/><text fill="#000000" font-family="sans-serif" font-size="12" lengthAdjust="spacing" textLength="188.8887" x="456.2959" y="546.0195">Return image-processing failure</text><polygon fill="#F1F1F1" points="378.0244,819.2148,390.0244,831.2148,378.0244,843.2148,366.0244,831.2148,378.0244,819.2148" style="stroke:#181818;stroke-width:0.5;"/><ellipse cx="378.0244" cy="874.2148" fill="none" rx="11" ry="11" style="stroke:#222222;stroke-width:1;"/><ellipse cx="378.0244" cy="874.2148" fill="#222222" rx="6" ry="6" style="stroke:#222222;stroke-width:1;"/><line style="stroke:#9B2C2C;stroke-width:1;" x1="378.0244" x2="378.0244" y1="67.4883" y2="87.4883"/><polygon fill="#9B2C2C" points="374.0244,77.4883,378.0244,87.4883,382.0244,77.4883,378.0244,81.4883" style="stroke:#9B2C2C;stroke-width:1;"/><line style="stroke:#9B2C2C;stroke-width:1;" x1="378.0244" x2="378.0244" y1="121.6211" y2="141.6211"/><polygon fill="#9B2C2C" points="374.0244,131.6211,378.0244,141.6211,382.0244,131.6211,378.0244,135.6211" style="stroke:#9B2C2C;stroke-width:1;"/><line style="stroke:#9B2C2C;stroke-width:1;" x1="378.0244" x2="378.0244" y1="175.7539" y2="195.7539"/><polygon fill="#9B2C2C" points="374.0244,185.7539,378.0244,195.7539,382.0244,185.7539,378.0244,189.7539" style="stroke:#9B2C2C;stroke-width:1;"/><line style="stroke:#9B2C2C;stroke-width:1;" x1="300.916" x2="247.6763" y1="261.8867" y2="261.8867"/><line style="stroke:#9B2C2C;stroke-width:1;" x1="247.6763" x2="247.6763" y1="261.8867" y2="283.8867"/><polygon fill="#9B2C2C" points="243.6763,273.8867,247.6763,283.8867,251.6763,273.8867,247.6763,277.8867" style="stroke:#9B2C2C;stroke-width:1;"/><line style="stroke:#9B2C2C;stroke-width:1;" x1="455.1328" x2="508.3726" y1="261.8867" y2="261.8867"/><line style="stroke:#9B2C2C;stroke-width:1;" x1="508.3726" x2="508.3726" y1="261.8867" y2="283.8867"/><polygon fill="#9B2C2C" points="504.3726,273.8867,508.3726,283.8867,512.3726,273.8867,508.3726,277.8867" style="stroke:#9B2C2C;stroke-width:1;"/><line style="stroke:#9B2C2C;stroke-width:1;" x1="247.6763" x2="247.6763" y1="318.0195" y2="336.0195"/><line style="stroke:#9B2C2C;stroke-width:1;" x1="247.6763" x2="366.0244" y1="336.0195" y2="336.0195"/><polygon fill="#9B2C2C" points="356.0244,332.0195,366.0244,336.0195,356.0244,340.0195,360.0244,336.0195" style="stroke:#9B2C2C;stroke-width:1;"/><line style="stroke:#9B2C2C;stroke-width:1;" x1="508.3726" x2="508.3726" y1="318.0195" y2="336.0195"/><line style="stroke:#9B2C2C;stroke-width:1;" x1="508.3726" x2="390.0244" y1="336.0195" y2="336.0195"/><polygon fill="#9B2C2C" points="400.0244,332.0195,390.0244,336.0195,400.0244,340.0195,396.0244,336.0195" style="stroke:#9B2C2C;stroke-width:1;"/><line style="stroke:#9B2C2C;stroke-width:1;" x1="378.0244" x2="378.0244" y1="229.8867" y2="249.8867"/><polygon fill="#9B2C2C" points="374.0244,239.8867,378.0244,249.8867,382.0244,239.8867,378.0244,243.8867" style="stroke:#9B2C2C;stroke-width:1;"/><line style="stroke:#9B2C2C;stroke-width:1;" x1="378.0244" x2="378.0244" y1="348.0195" y2="368.0195"/><polygon fill="#9B2C2C" points="374.0244,358.0195,378.0244,368.0195,382.0244,358.0195,378.0244,362.0195" style="stroke:#9B2C2C;stroke-width:1;"/><line style="stroke:#9B2C2C;stroke-width:1;" x1="205.3086" x2="205.3086" y1="504.418" y2="524.418"/><polygon fill="#9B2C2C" points="201.3086,514.418,205.3086,524.418,209.3086,514.418,205.3086,518.418" style="stroke:#9B2C2C;stroke-width:1;"/><line style="stroke:#9B2C2C;stroke-width:1;" x1="205.3086" x2="205.3086" y1="558.5508" y2="578.5508"/><polygon fill="#9B2C2C" points="201.3086,568.5508,205.3086,578.5508,209.3086,568.5508,205.3086,572.5508" style="stroke:#9B2C2C;stroke-width:1;"/><line style="stroke:#9B2C2C;stroke-width:1;" x1="205.3086" x2="205.3086" y1="626.8164" y2="646.8164"/><polygon fill="#9B2C2C" points="201.3086,636.8164,205.3086,646.8164,209.3086,636.8164,205.3086,640.8164" style="stroke:#9B2C2C;stroke-width:1;"/><line style="stroke:#9B2C2C;stroke-width:1;" x1="140.8679" x2="100.1865" y1="727.082" y2="727.082"/><line style="stroke:#9B2C2C;stroke-width:1;" x1="100.1865" x2="100.1865" y1="727.082" y2="749.082"/><polygon fill="#9B2C2C" points="96.1865,739.082,100.1865,749.082,104.1865,739.082,100.1865,743.082" style="stroke:#9B2C2C;stroke-width:1;"/><line style="stroke:#9B2C2C;stroke-width:1;" x1="269.7493" x2="310.4307" y1="727.082" y2="727.082"/><line style="stroke:#9B2C2C;stroke-width:1;" x1="310.4307" x2="310.4307" y1="727.082" y2="749.082"/><polygon fill="#9B2C2C" points="306.4307,739.082,310.4307,749.082,314.4307,739.082,310.4307,743.082" style="stroke:#9B2C2C;stroke-width:1;"/><line style="stroke:#9B2C2C;stroke-width:1;" x1="100.1865" x2="100.1865" y1="783.2148" y2="801.2148"/><line style="stroke:#9B2C2C;stroke-width:1;" x1="100.1865" x2="193.3086" y1="801.2148" y2="801.2148"/><polygon fill="#9B2C2C" points="183.3086,797.2148,193.3086,801.2148,183.3086,805.2148,187.3086,801.2148" style="stroke:#9B2C2C;stroke-width:1;"/><line style="stroke:#9B2C2C;stroke-width:1;" x1="310.4307" x2="310.4307" y1="783.2148" y2="801.2148"/><line style="stroke:#9B2C2C;stroke-width:1;" x1="310.4307" x2="217.3086" y1="801.2148" y2="801.2148"/><polygon fill="#9B2C2C" points="227.3086,797.2148,217.3086,801.2148,227.3086,805.2148,223.3086,801.2148" style="stroke:#9B2C2C;stroke-width:1;"/><line style="stroke:#9B2C2C;stroke-width:1;" x1="205.3086" x2="205.3086" y1="695.082" y2="715.082"/><polygon fill="#9B2C2C" points="201.3086,705.082,205.3086,715.082,209.3086,705.082,205.3086,709.082" style="stroke:#9B2C2C;stroke-width:1;"/><line style="stroke:#9B2C2C;stroke-width:1;" x1="550.7402" x2="550.7402" y1="504.418" y2="524.418"/><polygon fill="#9B2C2C" points="546.7402,514.418,550.7402,524.418,554.7402,514.418,550.7402,518.418" style="stroke:#9B2C2C;stroke-width:1;"/><line style="stroke:#9B2C2C;stroke-width:1;" x1="293.0259" x2="205.3086" y1="448.2852" y2="448.2852"/><line style="stroke:#9B2C2C;stroke-width:1;" x1="205.3086" x2="205.3086" y1="448.2852" y2="470.2852"/><polygon fill="#9B2C2C" points="201.3086,460.2852,205.3086,470.2852,209.3086,460.2852,205.3086,464.2852" style="stroke:#9B2C2C;stroke-width:1;"/><line style="stroke:#9B2C2C;stroke-width:1;" x1="463.0229" x2="550.7402" y1="448.2852" y2="448.2852"/><line style="stroke:#9B2C2C;stroke-width:1;" x1="550.7402" x2="550.7402" y1="448.2852" y2="470.2852"/><polygon fill="#9B2C2C" points="546.7402,460.2852,550.7402,470.2852,554.7402,460.2852,550.7402,464.2852" style="stroke:#9B2C2C;stroke-width:1;"/><line style="stroke:#9B2C2C;stroke-width:1;" x1="205.3086" x2="205.3086" y1="813.2148" y2="831.2148"/><line style="stroke:#9B2C2C;stroke-width:1;" x1="205.3086" x2="366.0244" y1="831.2148" y2="831.2148"/><polygon fill="#9B2C2C" points="356.0244,827.2148,366.0244,831.2148,356.0244,835.2148,360.0244,831.2148" style="stroke:#9B2C2C;stroke-width:1;"/><line style="stroke:#9B2C2C;stroke-width:1;" x1="550.7402" x2="550.7402" y1="558.5508" y2="831.2148"/><line style="stroke:#9B2C2C;stroke-width:1;" x1="550.7402" x2="390.0244" y1="831.2148" y2="831.2148"/><polygon fill="#9B2C2C" points="400.0244,827.2148,390.0244,831.2148,400.0244,835.2148,396.0244,831.2148" style="stroke:#9B2C2C;stroke-width:1;"/><line style="stroke:#9B2C2C;stroke-width:1;" x1="378.0244" x2="378.0244" y1="416.2852" y2="436.2852"/><polygon fill="#9B2C2C" points="374.0244,426.2852,378.0244,436.2852,382.0244,426.2852,378.0244,430.2852" style="stroke:#9B2C2C;stroke-width:1;"/><line style="stroke:#9B2C2C;stroke-width:1;" x1="378.0244" x2="378.0244" y1="843.2148" y2="863.2148"/><polygon fill="#9B2C2C" points="374.0244,853.2148,378.0244,863.2148,382.0244,853.2148,378.0244,857.2148" style="stroke:#9B2C2C;stroke-width:1;"/><?plantuml-src TLHDRzim33tNluBe3ak0j5i_jcB9OLYpRYYmPKMwTPTU68jEXDYIGT9Dsry_odKxD-i00nB4fqVoFSgluOfOV0nZEDe_sN-VoTg76XahM62-Nd9iWfl6CZ9iLbwf5vSLkhZnOGa5bjAFb3wGtjK4aNKLUu7F7fUsVeb1PrWHx4vH6YntNuPS-dk2etv9iwXqkbNMgw8eJjm_gCYEk4EuuyN1spxY4tFSTC4FYyFyCDyEflmTuEZa-E3TmKk0vprawhKacAC_ht19yBTGc5CLRx04jFrFnY16H47XxBOsYR9C5DCodbDE_eOWdJ9w1TyoMU969zbuoeHAqD9_nwNFroPzZeuizYsYCxs1gI3ZpWaaDcnBIp79Cb_0O4RaW56K-35SU1RzE0HTKO317SamsnbFOxWXrYUAe14saTV9xEvwHqlcF0n2JBT-ILSgeFmF7fmlKgDDwCtN7dVwv5tUF5QLQNKT1bZMAmGX7K7HtD-FG7lovQr1zeclV8ayxDhiIymaJMdGLZgttUWbcjfzoelPrybBvx_FJYzIu4UjzbYmBEzIaNKKUnCGapvAehsUn8gVnKhGAd0ZM9GM6JsyeM4YEdT6wuj4my44IgDHHAPkOcf_Qz9U1pi2ayGNFiUKsQwc3gzwHr2Z2CbMQpisJDfmUDP5RDJi4IFf-VQ4D0UyUw0iq9SD4pXIsxKNMkVwTa-nreGHjPV6yERHjIvBQh8ZRitVgpdc9FBmmsZfd-P1DDRP7m00?></g></svg>