<?plantuml 1.2026.2?><svg xmlns="http://www.w3.org/2000/svg" xmlns:xlink="http://www.w3.org/1999/xlink" contentStyleType="text/css" data-diagram-type="DESCRIPTION" height="840px" preserveAspectRatio="none" style="width:1594px;height:840px;background:#FFFFFF;" version="1.1" viewBox="0 0 1594 840" width="1594px" zoomAndPan="magnify"><title>RaiImage Supported Image Operations</title><defs/><g><g class="title" data-source-line="15"><text fill="#000000" font-family="sans-serif" font-size="14" font-weight="bold" lengthAdjust="spacing" textLength="278.1406" x="651.1426" y="23.5352">RaiImage Supported Image Operations</text></g><!--cluster RaiImage--><g class="cluster" data-qualified-name="RaiImage" data-source-line="20" id="ent0004"><path d="M192.88,43.4883 L260.2091,43.4883 A3.75,3.75 0 0 1 262.7091,45.9883 L269.7091,65.9766 L1066.17,65.9766 A2.5,2.5 0 0 1 1068.67,68.4766 L1068.67,685.9883 A2.5,2.5 0 0 1 1066.17,688.4883 L192.88,688.4883 A2.5,2.5 0 0 1 190.38,685.9883 L190.38,45.9883 A2.5,2.5 0 0 1 192.88,43.4883" fill="none" style="stroke:#000000;stroke-width:1.5;"/><line style="stroke:#000000;stroke-width:1.5;" x1="190.38" x2="269.7091" y1="65.9766" y2="65.9766"/><text fill="#000000" font-family="sans-serif" font-size="14" font-weight="bold" lengthAdjust="spacing" textLength="66.3291" x="194.38" y="59.0234">RaiImage</text></g><!--entity UCConvert--><g class="entity" data-qualified-name="RaiImage.UCConvert" data-source-line="21" id="ent0005"><ellipse cx="635.6771" cy="646.4917" fill="#F1F1F1" rx="117.9171" ry="25.9834" style="stroke:#181818;stroke-width:0.5;"/><text fill="#000000" font-family="sans-serif" font-size="14" lengthAdjust="spacing" textLength="98.793" x="586.2806" y="638.7282">Convert image</text><text fill="#000000" font-family="sans-serif" font-size="14" lengthAdjust="spacing" textLength="194.626" x="538.3641" y="655.2165">(format / resize / transform)</text></g><!--entity UCMogrify--><g class="entity" data-qualified-name="RaiImage.UCMogrify" data-source-line="22" id="ent0006"><ellipse cx="635.6753" cy="103.4931" fill="#F1F1F1" rx="94.0853" ry="24.9248" style="stroke:#181818;stroke-width:0.5;"/><text fill="#000000" font-family="sans-serif" font-size="14" lengthAdjust="spacing" textLength="97.4326" x="586.959" y="97.956">Mogrify image</text><text fill="#000000" font-family="sans-serif" font-size="14" lengthAdjust="spacing" textLength="136.999" x="567.1758" y="114.4443">(in-place transform)</text></g><!--entity UCComposite--><g class="entity" data-qualified-name="RaiImage.UCComposite" data-source-line="23" id="ent0007"><ellipse cx="635.6779" cy="416.4875" fill="#F1F1F1" rx="85.3379" ry="24.5693" style="stroke:#181818;stroke-width:0.5;"/><text fill="#000000" font-family="sans-serif" font-size="14" lengthAdjust="spacing" textLength="125.8838" x="572.736" y="415.5701">Composite overlay</text><text fill="#000000" font-family="sans-serif" font-size="14" lengthAdjust="spacing" textLength="76.9316" x="597.212" y="432.0584">onto image</text></g><!--entity UCIdentify--><g class="entity" data-qualified-name="RaiImage.UCIdentify" data-source-line="24" id="ent0008"><ellipse cx="635.6782" cy="188.4907" fill="#F1F1F1" rx="102.5282" ry="25.3324" style="stroke:#181818;stroke-width:0.5;"/><text fill="#000000" font-family="sans-serif" font-size="14" lengthAdjust="spacing" textLength="118.8564" x="576.2499" y="183.5646">Identify metadata</text><text fill="#000000" font-family="sans-serif" font-size="14" lengthAdjust="spacing" textLength="146.9658" x="562.1952" y="200.0529">and pixel information</text></g><!--entity UCGetSize--><g class="entity" data-qualified-name="RaiImage.UCGetSize" data-source-line="25" id="ent0009"><ellipse cx="332.065" cy="425.4893" fill="#F1F1F1" rx="67.955" ry="15.991" style="stroke:#181818;stroke-width:0.5;"/><text fill="#000000" font-family="sans-serif" font-size="14" lengthAdjust="spacing" textLength="100.3994" x="281.8653" y="430.2334">Get image size</text></g><!--entity UCHistogram--><g class="entity" data-qualified-name="RaiImage.UCHistogram" data-source-line="26" id="ent0010"><ellipse cx="332.0693" cy="584.4921" fill="#F1F1F1" rx="74.7193" ry="17.3439" style="stroke:#181818;stroke-width:0.5;"/><text fill="#000000" font-family="sans-serif" font-size="14" lengthAdjust="spacing" textLength="117.3799" x="273.3793" y="589.2363">Create histogram</text></g><!--entity UCHistogramInfo--><g class="entity" data-qualified-name="RaiImage.UCHistogramInfo" data-source-line="27" id="ent0011"><ellipse cx="332.0719" cy="354.4847" fill="#F1F1F1" rx="88.0819" ry="20.0164" style="stroke:#181818;stroke-width:0.5;"/><text fill="#000000" font-family="sans-serif" font-size="14" lengthAdjust="spacing" textLength="148.8594" x="257.6422" y="359.2288">Export histogram info</text></g><!--entity UCOptiPng--><g class="entity" data-qualified-name="RaiImage.UCOptiPng" data-source-line="28" id="ent0012"><ellipse cx="635.6788" cy="341.492" fill="#F1F1F1" rx="65.7188" ry="15.5438" style="stroke:#181818;stroke-width:0.5;"/><text fill="#000000" font-family="sans-serif" font-size="14" lengthAdjust="spacing" textLength="94.541" x="588.4083" y="346.2362">Optimize PNG</text></g><!--entity UCJpegTran--><g class="entity" data-qualified-name="RaiImage.UCJpegTran" data-source-line="29" id="ent0013"><ellipse cx="635.6838" cy="491.493" fill="#F1F1F1" rx="66.3238" ry="15.6648" style="stroke:#181818;stroke-width:0.5;"/><text fill="#000000" font-family="sans-serif" font-size="14" lengthAdjust="spacing" textLength="96.1406" x="587.6135" y="496.2372">Optimize JPEG</text></g><!--entity UCTiles--><g class="entity" data-qualified-name="RaiImage.UCTiles" data-source-line="30" id="ent0014"><ellipse cx="332.0732" cy="654.4929" fill="#F1F1F1" rx="76.8232" ry="17.7646" style="stroke:#181818;stroke-width:0.5;"/><text fill="#000000" font-family="sans-serif" font-size="14" lengthAdjust="spacing" textLength="122.4863" x="270.8301" y="659.2371">Create image tiles</text></g><!--entity UCEmptyForm--><g class="entity" data-qualified-name="RaiImage.UCEmptyForm" data-source-line="31" id="ent0015"><ellipse cx="332.074" cy="273.492" fill="#F1F1F1" rx="103.374" ry="25.5337" style="stroke:#181818;stroke-width:0.5;"/><text fill="#000000" font-family="sans-serif" font-size="14" lengthAdjust="spacing" textLength="125.166" x="269.491" y="268.8629">Check empty form</text><text fill="#000000" font-family="sans-serif" font-size="14" lengthAdjust="spacing" textLength="146.8906" x="258.6287" y="285.3511">inside a drawn region</text></g><!--entity UCBackgroundRemoval--><g class="entity" data-qualified-name="RaiImage.UCBackgroundRemoval" data-source-line="32" id="ent0016"><ellipse cx="332.0719" cy="504.4867" fill="#F1F1F1" rx="125.6919" ry="27.5384" style="stroke:#181818;stroke-width:0.5;"/><text fill="#000000" font-family="sans-serif" font-size="14" lengthAdjust="spacing" textLength="194.4893" x="234.8273" y="502.5126">Remove portrait background</text><text fill="#000000" font-family="sans-serif" font-size="14" lengthAdjust="spacing" textLength="166.6191" x="248.7623" y="519.0009">and export transparency</text></g><!--entity UCPng--><g class="entity" data-qualified-name="RaiImage.UCPng" data-source-line="33" id="ent0017"><ellipse cx="635.6808" cy="269.4884" fill="#F1F1F1" rx="93.0508" ry="21.0102" style="stroke:#181818;stroke-width:0.5;"/><text fill="#000000" font-family="sans-serif" font-size="14" lengthAdjust="spacing" textLength="160.125" x="555.6183" y="274.2326">Export transparent PNG</text></g><!--entity UCWebp--><g class="entity" data-qualified-name="RaiImage.UCWebp" data-source-line="34" id="ent0018"><ellipse cx="635.6769" cy="563.4877" fill="#F1F1F1" rx="96.2469" ry="21.6494" style="stroke:#181818;stroke-width:0.5;"/><text fill="#000000" font-family="sans-serif" font-size="14" lengthAdjust="spacing" textLength="167.2822" x="552.0358" y="568.2318">Export transparent WEBP</text></g><!--entity UCZip--><g class="entity" data-qualified-name="RaiImage.UCZip" data-source-line="35" id="ent0019"><ellipse cx="933.1444" cy="646.4932" fill="#F1F1F1" rx="85.3244" ry="19.4649" style="stroke:#181818;stroke-width:0.5;"/><text fill="#000000" font-family="sans-serif" font-size="14" lengthAdjust="spacing" textLength="142.5225" x="861.8832" y="651.2373">Zip converted output</text></g><!--entity UCCliExecution--><g class="entity" data-qualified-name="RaiImage.UCCliExecution" data-source-line="36" id="ent0020"><ellipse cx="933.1353" cy="379.4853" fill="#F1F1F1" rx="119.5353" ry="26.3071" style="stroke:#181818;stroke-width:0.5;"/><text fill="#000000" font-family="sans-serif" font-size="14" lengthAdjust="spacing" textLength="170.8096" x="847.7305" y="376.6161">Resolve ImageMagick CLI</text><text fill="#000000" font-family="sans-serif" font-size="14" lengthAdjust="spacing" textLength="158.1631" x="854.0537" y="393.1044">and execute off-thread</text></g><!--entity App--><g class="entity" data-qualified-name="App" data-source-line="17" id="ent0002"><ellipse cx="76.1914" cy="204.7383" fill="#F1F1F1" rx="8" ry="8" style="stroke:#181818;stroke-width:0.5;"/><path d="M76.1914,212.7383 L76.1914,239.7383 M63.1914,220.7383 L89.1914,220.7383 M76.1914,239.7383 L63.1914,254.7383 M76.1914,239.7383 L89.1914,254.7383" fill="none" style="stroke:#181818;stroke-width:0.5;"/><text fill="#000000" font-family="sans-serif" font-size="14" lengthAdjust="spacing" textLength="140.3828" x="6" y="269.7734">Application / Service</text></g><!--entity Batch--><g class="entity" data-qualified-name="Batch" data-source-line="18" id="ent0003"><ellipse cx="76.1888" cy="766.7383" fill="#F1F1F1" rx="8" ry="8" style="stroke:#181818;stroke-width:0.5;"/><path d="M76.1888,774.7383 L76.1888,801.7383 M63.1888,782.7383 L89.1888,782.7383 M76.1888,801.7383 L63.1888,816.7383 M76.1888,801.7383 L89.1888,816.7383" fill="none" style="stroke:#181818;stroke-width:0.5;"/><text fill="#000000" font-family="sans-serif" font-size="14" lengthAdjust="spacing" textLength="132.6377" x="9.87" y="831.7734">Batch / Automation</text></g><g class="entity" data-qualified-name="GMN52" data-source-line="75" id="ent0053"><path d="M1112.67,351.5183 L1112.67,375.4883 L1053.17,379.4883 L1112.67,383.4883 L1112.67,407.4499 A0,0 0 0 0 1112.67,407.4499 L1587.4259,407.4499 A0,0 0 0 0 1587.4259,407.4499 L1587.4259,361.5183 L1577.4259,351.5183 L1112.67,351.5183 A0,0 0 0 0 1112.67,351.5183" fill="#FFF7D6" style="stroke:#D4B106;stroke-width:0.5;"/><path d="M1577.4259,351.5183 L1577.4259,361.5183 L1587.4259,361.5183 L1577.4259,351.5183" fill="#FFF7D6" style="stroke:#D4B106;stroke-width:0.5;"/><text fill="#000000" font-family="sans-serif" font-size="13" lengthAdjust="spacing" textLength="67.5391" x="1118.67" y="369.0866">Backed by:</text><text fill="#000000" font-family="sans-serif" font-size="13" lengthAdjust="spacing" textLength="453.7559" x="1118.67" y="384.3972">ImageMagick -&gt; ImageMagickCommand -&gt; CliCommand -&gt; RaiSystem</text><text fill="#000000" font-family="sans-serif" font-size="13" lengthAdjust="spacing" textLength="407.2974" x="1118.67" y="399.7077">with external process execution dispatched off the caller thread.</text></g><!--link App to UCConvert--><g class="link" data-entity-1="ent0002" data-entity-2="ent0005" data-link-type="dependency" data-source-line="39" id="lnk21"><path d="M146.7,236.5683 C273.61,236.5683 527.43,236.5683 527.43,236.5683 C527.43,236.5683 527.43,565.7783 527.43,629.9383" fill="none" id="App-to-UCConvert" style="stroke:#9B2C2C;stroke-width:1;"/><polygon fill="#9B2C2C" points="527.43,635.9383,531.43,626.9383,527.43,630.9383,523.43,626.9383,527.43,635.9383" style="stroke:#9B2C2C;stroke-width:1;"/></g><!--link App to UCMogrify--><g class="link" data-entity-1="ent0002" data-entity-2="ent0006" data-link-type="dependency" data-source-line="40" id="lnk22"><path d="M76.43,195.8883 C76.43,157.2483 76.43,103.4883 76.43,103.4883 C76.43,103.4883 375.66,103.4883 535.13,103.4883" fill="none" id="App-to-UCMogrify" style="stroke:#9B2C2C;stroke-width:1;"/><polygon fill="#9B2C2C" points="541.13,103.4883,532.13,99.4883,536.13,103.4883,532.13,107.4883,541.13,103.4883" style="stroke:#9B2C2C;stroke-width:1;"/></g><!--link App to UCComposite--><g class="link" data-entity-1="ent0002" data-entity-2="ent0007" data-link-type="dependency" data-source-line="41" id="lnk23"><path d="M98.43,273.1783 C98.43,321.4683 98.43,397.7783 98.43,397.7783 C98.43,397.7783 434.43,397.7783 572.7,397.7783" fill="none" id="App-to-UCComposite" style="stroke:#9B2C2C;stroke-width:1;"/><polygon fill="#9B2C2C" points="578.7,397.7783,569.7,393.7783,573.7,397.7783,569.7,401.7783,578.7,397.7783" style="stroke:#9B2C2C;stroke-width:1;"/></g><!--link App to UCIdentify--><g class="link" data-entity-1="ent0002" data-entity-2="ent0008" data-link-type="dependency" data-source-line="42" id="lnk24"><path d="M146.77,202.0983 C248.85,202.0983 431.58,202.0983 542.32,202.0983" fill="none" id="App-to-UCIdentify" style="stroke:#9B2C2C;stroke-width:1;"/><polygon fill="#9B2C2C" points="548.32,202.0983,539.32,198.0983,543.32,202.0983,539.32,206.0983,548.32,202.0983" style="stroke:#9B2C2C;stroke-width:1;"/></g><!--link App to UCGetSize--><g class="link" data-entity-1="ent0002" data-entity-2="ent0009" data-link-type="dependency" data-source-line="43" id="lnk25"><path d="M83.43,273.1383 C83.43,328.9483 83.43,425.4883 83.43,425.4883 C83.43,425.4883 184.19,425.4883 257.8,425.4883" fill="none" id="App-to-UCGetSize" style="stroke:#9B2C2C;stroke-width:1;"/><polygon fill="#9B2C2C" points="263.8,425.4883,254.8,421.4883,258.8,425.4883,254.8,429.4883,263.8,425.4883" style="stroke:#9B2C2C;stroke-width:1;"/></g><!--link App to UCHistogram--><g class="link" data-entity-1="ent0002" data-entity-2="ent0010" data-link-type="dependency" data-source-line="44" id="lnk26"><path d="M68.43,272.9383 C68.43,363.8583 68.43,584.4883 68.43,584.4883 C68.43,584.4883 172.95,584.4883 250.88,584.4883" fill="none" id="App-to-UCHistogram" style="stroke:#9B2C2C;stroke-width:1;"/><polygon fill="#9B2C2C" points="256.88,584.4883,247.88,580.4883,251.88,584.4883,247.88,588.4883,256.88,584.4883" style="stroke:#9B2C2C;stroke-width:1;"/></g><!--link App to UCHistogramInfo--><g class="link" data-entity-1="ent0002" data-entity-2="ent0011" data-link-type="dependency" data-source-line="45" id="lnk27"><path d="M127.43,273.1183 C127.43,308.1883 127.43,354.4883 127.43,354.4883 C127.43,354.4883 182.2,354.4883 237.5,354.4883" fill="none" id="App-to-UCHistogramInfo" style="stroke:#9B2C2C;stroke-width:1;"/><polygon fill="#9B2C2C" points="243.5,354.4883,234.5,350.4883,238.5,354.4883,234.5,358.4883,243.5,354.4883" style="stroke:#9B2C2C;stroke-width:1;"/></g><!--link App to UCOptiPng--><g class="link" data-entity-1="ent0002" data-entity-2="ent0012" data-link-type="dependency" data-source-line="46" id="lnk28"><path d="M146.62,266.5383 C163.34,266.5383 176.43,266.5383 176.43,266.5383 C176.43,266.5383 176.43,330.2083 176.43,330.2083 C176.43,330.2083 465.64,330.2083 582.69,330.2083" fill="none" id="App-to-UCOptiPng" style="stroke:#9B2C2C;stroke-width:1;"/><polygon fill="#9B2C2C" points="588.69,330.2083,579.69,326.2083,583.69,330.2083,579.69,334.2083,588.69,330.2083" style="stroke:#9B2C2C;stroke-width:1;"/></g><!--link App to UCJpegTran--><g class="link" data-entity-1="ent0002" data-entity-2="ent0013" data-link-type="dependency" data-source-line="47" id="lnk29"><path d="M146.67,225.1983 C274.25,225.1983 530.43,225.1983 530.43,225.1983 C530.43,225.1983 530.43,489.0283 530.43,489.0283 C530.43,489.0283 542.64,489.0283 563.92,489.0283" fill="none" id="App-to-UCJpegTran" style="stroke:#9B2C2C;stroke-width:1;"/><polygon fill="#9B2C2C" points="569.92,489.0283,560.92,485.0283,564.92,489.0283,560.92,493.0283,569.92,489.0283" style="stroke:#9B2C2C;stroke-width:1;"/></g><!--link App to UCTiles--><g class="link" data-entity-1="ent0002" data-entity-2="ent0014" data-link-type="dependency" data-source-line="48" id="lnk30"><path d="M54.43,273.0683 C54.43,375.8583 54.43,648.5583 54.43,648.5583 C54.43,648.5583 170.86,648.5583 253.13,648.5583" fill="none" id="App-to-UCTiles" style="stroke:#9B2C2C;stroke-width:1;"/><polygon fill="#9B2C2C" points="259.13,648.5583,250.13,644.5583,254.13,648.5583,250.13,652.5583,259.13,648.5583" style="stroke:#9B2C2C;stroke-width:1;"/></g><!--link App to UCEmptyForm--><g class="link" data-entity-1="ent0002" data-entity-2="ent0015" data-link-type="dependency" data-source-line="49" id="lnk31"><path d="M146.79,254.1483 C182.88,254.1483 220.66,254.1483 256.59,254.1483" fill="none" id="App-to-UCEmptyForm" style="stroke:#9B2C2C;stroke-width:1;"/><polygon fill="#9B2C2C" points="262.59,254.1483,253.59,250.1483,257.59,254.1483,253.59,258.1483,262.59,254.1483" style="stroke:#9B2C2C;stroke-width:1;"/></g><!--link App to UCBackgroundRemoval--><g class="link" data-entity-1="ent0002" data-entity-2="ent0016" data-link-type="dependency" data-source-line="50" id="lnk32"><path d="M146.81,260.3383 C182.12,260.3383 217.43,260.3383 217.43,260.3383 C217.43,260.3383 217.43,438.7683 217.43,487.0383" fill="none" id="App-to-UCBackgroundRemoval" style="stroke:#9B2C2C;stroke-width:1;"/><polygon fill="#9B2C2C" points="217.43,493.0383,221.43,484.0383,217.43,488.0383,213.43,484.0383,217.43,493.0383" style="stroke:#9B2C2C;stroke-width:1;"/></g><!--link Batch to UCConvert--><g class="link" data-entity-1="ent0003" data-entity-2="ent0005" data-link-type="dependency" data-source-line="52" id="lnk33"><path d="M39.43,757.9683 C39.43,708.4083 39.43,628.6083 39.43,628.6083 C39.43,628.6083 376.73,628.6083 542.34,628.6083" fill="none" id="Batch-to-UCConvert" style="stroke:#9B2C2C;stroke-width:1;"/><polygon fill="#9B2C2C" points="548.34,628.6083,539.34,624.6083,543.34,628.6083,539.34,632.6083,548.34,628.6083" style="stroke:#9B2C2C;stroke-width:1;"/></g><!--link Batch to UCComposite--><g class="link" data-entity-1="ent0003" data-entity-2="ent0007" data-link-type="dependency" data-source-line="53" id="lnk34"><path d="M24.43,757.7383 C24.43,658.6283 24.43,403.6383 24.43,403.6383 C24.43,403.6383 393.84,403.6383 556.26,403.6383" fill="none" id="Batch-to-UCComposite" style="stroke:#9B2C2C;stroke-width:1;"/><polygon fill="#9B2C2C" points="562.26,403.6383,553.26,399.6383,557.26,403.6383,553.26,407.6383,562.26,403.6383" style="stroke:#9B2C2C;stroke-width:1;"/></g><!--link Batch to UCOptiPng--><g class="link" data-entity-1="ent0003" data-entity-2="ent0012" data-link-type="dependency" data-source-line="54" id="lnk35"><path d="M142.9,783.7383 C256.99,783.7383 477.43,783.7383 477.43,783.7383 C477.43,783.7383 477.43,345.7483 477.43,345.7483 C477.43,345.7483 522.2,345.7483 566.23,345.7483" fill="none" id="Batch-to-UCOptiPng" style="stroke:#9B2C2C;stroke-width:1;"/><polygon fill="#9B2C2C" points="572.23,345.7483,563.23,341.7483,567.23,345.7483,563.23,349.7483,572.23,345.7483" style="stroke:#9B2C2C;stroke-width:1;"/></g><!--link Batch to UCJpegTran--><g class="link" data-entity-1="ent0003" data-entity-2="ent0013" data-link-type="dependency" data-source-line="55" id="lnk36"><path d="M142.94,809.2283 C261.71,809.2283 497.43,809.2283 497.43,809.2283 C497.43,809.2283 497.43,501.1083 497.43,501.1083 C497.43,501.1083 537.32,501.1083 576.23,501.1083" fill="none" id="Batch-to-UCJpegTran" style="stroke:#9B2C2C;stroke-width:1;"/><polygon fill="#9B2C2C" points="582.23,501.1083,573.23,497.1083,577.23,501.1083,573.23,505.1083,582.23,501.1083" style="stroke:#9B2C2C;stroke-width:1;"/></g><!--link Batch to UCTiles--><g class="link" data-entity-1="ent0003" data-entity-2="ent0014" data-link-type="dependency" data-source-line="56" id="lnk37"><path d="M113.43,757.8583 C113.43,717.6183 113.43,660.4083 113.43,660.4083 C113.43,660.4083 189.4,660.4083 252.96,660.4083" fill="none" id="Batch-to-UCTiles" style="stroke:#9B2C2C;stroke-width:1;"/><polygon fill="#9B2C2C" points="258.96,660.4083,249.96,656.4083,253.96,660.4083,249.96,664.4083,258.96,660.4083" style="stroke:#9B2C2C;stroke-width:1;"/></g><!--link UCGetSize to UCIdentify--><g class="link" data-entity-1="ent0009" data-entity-2="ent0008" data-link-type="dependency" data-source-line="58" id="lnk38"><path d="M400.25,425.2683 C424.73,425.2683 446.43,425.2683 446.43,425.2683 C446.43,425.2683 446.43,207.9583 446.43,207.9583 C446.43,207.9583 507.81,207.9583 562.16,207.9583" fill="none" id="UCGetSize-to-UCIdentify" style="stroke:#9B2C2C;stroke-width:1;stroke-dasharray:7,7;"/><polygon fill="#9B2C2C" points="568.16,207.9583,559.16,203.9583,563.16,207.9583,559.16,211.9583,568.16,207.9583" style="stroke:#9B2C2C;stroke-width:1;"/><text fill="#374151" font-family="'Casual'" font-size="13" lengthAdjust="spacing" textLength="56.03" x="447.43" y="290.2383">&#171;include&#187;</text></g><!--link UCHistogram to UCConvert--><g class="link" data-entity-1="ent0010" data-entity-2="ent0005" data-link-type="dependency" data-source-line="59" id="lnk39"><path d="M396.89,593.4783 C451.38,593.4783 520.43,593.4783 520.43,593.4783 C520.43,593.4783 520.43,621.1383 520.43,634.8083" fill="none" id="UCHistogram-to-UCConvert" style="stroke:#9B2C2C;stroke-width:1;stroke-dasharray:7,7;"/><polygon fill="#9B2C2C" points="520.43,640.8083,524.43,631.8083,520.43,635.8083,516.43,631.8083,520.43,640.8083" style="stroke:#9B2C2C;stroke-width:1;"/><text fill="#374151" font-family="'Casual'" font-size="13" lengthAdjust="spacing" textLength="56.03" x="425.33" y="604.8783">&#171;include&#187;</text></g><!--link UCTiles to UCConvert--><g class="link" data-entity-1="ent0014" data-entity-2="ent0005" data-link-type="dependency" data-source-line="60" id="lnk40"><path d="M409.08,654.4883 C443.6,654.4883 479,654.4883 516.92,654.4883" fill="none" id="UCTiles-to-UCConvert" style="stroke:#9B2C2C;stroke-width:1;stroke-dasharray:7,7;"/><polygon fill="#9B2C2C" points="522.92,654.4883,513.92,650.4883,517.92,654.4883,513.92,658.4883,522.92,654.4883" style="stroke:#9B2C2C;stroke-width:1;"/><text fill="#374151" font-family="'Casual'" font-size="13" lengthAdjust="spacing" textLength="56.03" x="409" y="665.8883">&#171;include&#187;</text></g><!--link UCBackgroundRemoval to UCConvert--><g class="link" data-entity-1="ent0016" data-entity-2="ent0005" data-link-type="dependency" data-source-line="61" id="lnk41"><path d="M423.83,523.7283 C472.94,523.7283 523.43,523.7283 523.43,523.7283 C523.43,523.7283 523.43,605.1183 523.43,632.4283" fill="none" id="UCBackgroundRemoval-to-UCConvert" style="stroke:#9B2C2C;stroke-width:1;stroke-dasharray:7,7;"/><polygon fill="#9B2C2C" points="523.43,638.4283,527.43,629.4283,523.43,633.4283,519.43,629.4283,523.43,638.4283" style="stroke:#9B2C2C;stroke-width:1;"/><text fill="#374151" font-family="'Casual'" font-size="13" lengthAdjust="spacing" textLength="56.03" x="466.43" y="542.6783">&#171;include&#187;</text></g><!--link UCBackgroundRemoval to UCComposite--><g class="link" data-entity-1="ent0016" data-entity-2="ent0007" data-link-type="dependency" data-source-line="62" id="lnk42"><path d="M450.74,495.0683 C505.87,495.0683 559.43,495.0683 559.43,495.0683 C559.43,495.0683 559.43,455.4683 559.43,433.7383" fill="none" id="UCBackgroundRemoval-to-UCComposite" style="stroke:#9B2C2C;stroke-width:1;stroke-dasharray:7,7;"/><polygon fill="#9B2C2C" points="559.43,427.7383,555.43,436.7383,559.43,432.7383,563.43,436.7383,559.43,427.7383" style="stroke:#9B2C2C;stroke-width:1;"/><text fill="#374151" font-family="'Casual'" font-size="13" lengthAdjust="spacing" textLength="56.03" x="481.75" y="506.4683">&#171;include&#187;</text></g><!--link UCBackgroundRemoval to UCPng--><g class="link" data-entity-1="ent0016" data-entity-2="ent0017" data-link-type="dependency" data-source-line="63" id="lnk43"><path d="M413.04,482.9883 C473.39,482.9883 545.43,482.9883 545.43,482.9883 C545.43,482.9883 545.43,313.6383 545.43,280.7583" fill="none" id="UCBackgroundRemoval-to-UCPng" style="stroke:#9B2C2C;stroke-width:1;stroke-dasharray:7,7;"/><polygon fill="#9B2C2C" points="545.43,274.7583,541.43,283.7583,545.43,279.7583,549.43,283.7583,545.43,274.7583" style="stroke:#9B2C2C;stroke-width:1;"/><text fill="#374151" font-family="'Casual'" font-size="13" lengthAdjust="spacing" textLength="56.03" x="488.43" y="456.4683">&#171;include&#187;</text></g><!--link UCBackgroundRemoval to UCWebp--><g class="link" data-entity-1="ent0016" data-entity-2="ent0018" data-link-type="dependency" data-source-line="64" id="lnk44"><path d="M447.95,515.4383 C498.92,515.4383 547.43,515.4383 547.43,515.4383 C547.43,515.4383 547.43,534.7983 547.43,548.6683" fill="none" id="UCBackgroundRemoval-to-UCWebp" style="stroke:#9B2C2C;stroke-width:1;stroke-dasharray:7,7;"/><polygon fill="#9B2C2C" points="547.43,554.6683,551.43,545.6683,547.43,549.6683,543.43,545.6683,547.43,554.6683" style="stroke:#9B2C2C;stroke-width:1;"/><text fill="#374151" font-family="'Casual'" font-size="13" lengthAdjust="spacing" textLength="56.03" x="460.3" y="526.8383">&#171;include&#187;</text></g><!--link UCConvert to UCZip--><g class="link" data-entity-1="ent0005" data-entity-2="ent0019" data-link-type="dependency" data-source-line="65" id="lnk45"><path d="M754.1,646.4883 C785.37,646.4883 812.5,646.4883 841.65,646.4883" fill="none" id="UCConvert-to-UCZip" style="stroke:#9B2C2C;stroke-width:1;stroke-dasharray:7,7;"/><polygon fill="#9B2C2C" points="847.65,646.4883,838.65,642.4883,842.65,646.4883,838.65,650.4883,847.65,646.4883" style="stroke:#9B2C2C;stroke-width:1;"/><text fill="#374151" font-family="'Casual'" font-size="13" lengthAdjust="spacing" textLength="53.391" x="746.88" y="657.8883">&#171;extend&#187;</text></g><!--link UCConvert to UCCliExecution--><g class="link" data-entity-1="ent0005" data-entity-2="ent0020" data-link-type="dependency" data-source-line="67" id="lnk46"><path d="M745.43,636.5683 C745.43,590.6683 745.43,401.1683 745.43,401.1683 C745.43,401.1683 803.44,401.1683 856.71,401.1683" fill="none" id="UCConvert-to-UCCliExecution" style="stroke:#9B2C2C;stroke-width:1;stroke-dasharray:7,7;"/><polygon fill="#9B2C2C" points="862.71,401.1683,853.71,397.1683,857.71,401.1683,853.71,405.1683,862.71,401.1683" style="stroke:#9B2C2C;stroke-width:1;"/><text fill="#374151" font-family="'Casual'" font-size="13" lengthAdjust="spacing" textLength="56.03" x="688.43" y="471.6283">&#171;include&#187;</text></g><!--link UCMogrify to UCCliExecution--><g class="link" data-entity-1="ent0006" data-entity-2="ent0020" data-link-type="dependency" data-source-line="68" id="lnk47"><path d="M730.21,103.4883 C830.13,103.4883 973.43,103.4883 973.43,103.4883 C973.43,103.4883 973.43,280.5683 973.43,348.5083" fill="none" id="UCMogrify-to-UCCliExecution" style="stroke:#9B2C2C;stroke-width:1;stroke-dasharray:7,7;"/><polygon fill="#9B2C2C" points="973.43,354.5083,977.43,345.5083,973.43,349.5083,969.43,345.5083,973.43,354.5083" style="stroke:#9B2C2C;stroke-width:1;"/><text fill="#374151" font-family="'Casual'" font-size="13" lengthAdjust="spacing" textLength="56.03" x="916.43" y="118.7883">&#171;include&#187;</text></g><!--link UCComposite to UCCliExecution--><g class="link" data-entity-1="ent0007" data-entity-2="ent0020" data-link-type="dependency" data-source-line="69" id="lnk48"><path d="M687.5,396.5383 C729.69,396.5383 784.32,396.5383 834.78,396.5383" fill="none" id="UCComposite-to-UCCliExecution" style="stroke:#9B2C2C;stroke-width:1;stroke-dasharray:7,7;"/><polygon fill="#9B2C2C" points="840.78,396.5383,831.78,392.5383,835.78,396.5383,831.78,400.5383,840.78,396.5383" style="stroke:#9B2C2C;stroke-width:1;"/><text fill="#374151" font-family="'Casual'" font-size="13" lengthAdjust="spacing" textLength="56.03" x="707.14" y="392.9383">&#171;include&#187;</text></g><!--link UCIdentify to UCCliExecution--><g class="link" data-entity-1="ent0008" data-entity-2="ent0020" data-link-type="dependency" data-source-line="70" id="lnk49"><path d="M738.66,188.4883 C810.45,188.4883 893.43,188.4883 893.43,188.4883 C893.43,188.4883 893.43,296.7383 893.43,348.5183" fill="none" id="UCIdentify-to-UCCliExecution" style="stroke:#9B2C2C;stroke-width:1;stroke-dasharray:7,7;"/><polygon fill="#9B2C2C" points="893.43,354.5183,897.43,345.5183,893.43,349.5183,889.43,345.5183,893.43,354.5183" style="stroke:#9B2C2C;stroke-width:1;"/><text fill="#374151" font-family="'Casual'" font-size="13" lengthAdjust="spacing" textLength="56.03" x="836.43" y="205.5183">&#171;include&#187;</text></g><!--link UCOptiPng to UCCliExecution--><g class="link" data-entity-1="ent0012" data-entity-2="ent0020" data-link-type="dependency" data-source-line="71" id="lnk50"><path d="M635.43,357.2683 C635.43,361.9083 635.43,365.7683 635.43,365.7683 C635.43,365.7683 738.21,365.7683 824.26,365.7683" fill="none" id="UCOptiPng-to-UCCliExecution" style="stroke:#9B2C2C;stroke-width:1;stroke-dasharray:7,7;"/><polygon fill="#9B2C2C" points="830.26,365.7683,821.26,361.7683,825.26,365.7683,821.26,369.7683,830.26,365.7683" style="stroke:#9B2C2C;stroke-width:1;"/><text fill="#374151" font-family="'Casual'" font-size="13" lengthAdjust="spacing" textLength="56.03" x="671.6" y="377.1683">&#171;include&#187;</text></g><!--link UCJpegTran to UCCliExecution--><g class="link" data-entity-1="ent0013" data-entity-2="ent0020" data-link-type="dependency" data-source-line="72" id="lnk51"><path d="M702.43,491.4883 C758.81,491.4883 830.43,491.4883 830.43,491.4883 C830.43,491.4883 830.43,429.1283 830.43,399.2183" fill="none" id="UCJpegTran-to-UCCliExecution" style="stroke:#9B2C2C;stroke-width:1;stroke-dasharray:7,7;"/><polygon fill="#9B2C2C" points="830.43,393.2183,826.43,402.2183,830.43,398.2183,834.43,402.2183,830.43,393.2183" style="stroke:#9B2C2C;stroke-width:1;"/><text fill="#374151" font-family="'Casual'" font-size="13" lengthAdjust="spacing" textLength="56.03" x="758.56" y="502.8883">&#171;include&#187;</text></g><?plantuml-src dPRVRzGu4CUVcxzYj3pSyT25KexgAbIftLku8YWL2uU4-k9D9ebLnxPifzlbnF_EEB4ttirAh7XgFVFnP7vyFUqVy1yQovKyXzFfsVGii_TSQcPO0qkMtrT6jRAOAQ4Ch6hkCF7RcXLgnMK59HCszGWkqQqrWZAkLedZ7yug-lb6INV36eJ9ZDcMYSb-PC6_8vo-Ifmtok7LJbfFoh8yAqQKCWMQG1GlboVFK-BI6BKAph-NB_8N-QxJVpy0fsSlJ_uwsGTiro2mTE0K65xL3WfkC7VKsEIYfjHPXGkt5WYb4fHXbZdkwFI9yUk6VB1ejQQsOG7z-QD6mtmScsKiTvJGv59hmVFE2CzWWUQ1vpW1Pe4y4RfYBg_9VTawrNHiHtJcB0kPm2H-TmB_PqUjnPnPNvAI3sWSSE-wat-Mob0CYcRG-g4y0sUOjDxyj0lxPHQk944-gChmShq9mkMn5Yp7yTr0RYNGQ6L9Rw0egc3hEqdzLdsipHS3azoxBb0w_z467IkOOtUIoG8qVqG1NFPrn5vycKKyYV0MGzdWAmqS6RqOqmGDCigkvjOfhzS0_XlF2Jf_z0CTq2wFNVwQRCcTZzhnndVwzkPjGBtfLbRxe7UtyqYzqrXzflwEK-sBSboW3Und_tiArfZV0pRQhS5twavoQNc1mA0mR2Lf-jNGkxddtX2MHFY43SqBVBs6SPUia7uEsBUY4m0z2PJvEaGRNdKNWubn0uTRBcdBTalse5_dLxU1_OfBdS3Vk8QyboqzDzKwtRf0ackhBAi4rTMzb0-iujIcsVlhM1FchHTgMHwxcdfTH7qAFkzyVWdyo39wd71yV96ybS4INq3AH7KFjerS1rDKvc0P9BZ7ribii4TD3PQDVWPJBvFXF0n-i8t7b_KBQBlWRLiiCBN6Z5BR9gVKs6ULRJe0qsdQ8ZY7rw-vp4LRuCL5bhGWW775xN9Tt5ymesf_cuzRxj0Rr9g3MQ_s4HnJx17_0Zo1ZmvbGS28I4Ky2XOt_07eKEe1y6Q81x11C8UWKKU_PZD9_qA4F-Igt7tBHxxZj36Mw_FiADq99CpaI2KtVa6GbQud9_gRkrXRXxGvLzpLuBjl9CrD6vMZjM6b-BGAJckCHE_tKrc2gn5o9WGQw5VDDAEvWSys-ma0?></g></svg>