<?plantuml 1.2026.2?><svg xmlns="http://www.w3.org/2000/svg" xmlns:xlink="http://www.w3.org/1999/xlink" contentStyleType="text/css" data-diagram-type="DESCRIPTION" height="1254px" preserveAspectRatio="none" style="width:1778px;height:1254px;background:#FFFFFF;" version="1.1" viewBox="0 0 1778 1254" width="1778px" zoomAndPan="magnify"><title>RaiImage Supported Image Operations</title><defs/><g><g class="title" data-source-line="5"><text fill="#000000" font-family="Verdana" font-size="22" font-weight="bold" lengthAdjust="spacing" textLength="485.751" x="641.8082" y="37.1182">RaiImage Supported Image Operations</text></g><!--cluster RaiImage--><g class="cluster" data-qualified-name="RaiImage" data-source-line="10" id="ent0004"><rect fill="#FFFFFF" height="659" rx="2.5" ry="2.5" style="stroke:#000000;stroke-width:1;" width="1031.76" x="202.96" y="253.7573"/><text fill="#000000" font-family="Verdana" font-size="14" font-weight="bold" lengthAdjust="spacing" textLength="75.9814" x="680.8493" y="269.8325">RaiImage</text></g><!--entity UCConvert--><g class="entity" data-qualified-name="RaiImage.UCConvert" data-source-line="11" id="ent0005"><ellipse cx="724.9277" cy="869.7589" fill="#FFFFFF" rx="122.0577" ry="26.8115" style="stroke:#000000;stroke-width:1;"/><text fill="#000000" font-family="Verdana" font-size="14" lengthAdjust="spacing" textLength="103.0996" x="673.3779" y="861.8097">Convert image</text><text fill="#000000" font-family="Verdana" font-size="14" lengthAdjust="spacing" textLength="202.2617" x="623.7969" y="878.8244">(format / resize / transform)</text></g><!--entity UCMogrify--><g class="entity" data-qualified-name="RaiImage.UCMogrify" data-source-line="12" id="ent0006"><ellipse cx="724.9255" cy="315.7544" fill="#FFFFFF" rx="97.4955" ry="25.5871" style="stroke:#000000;stroke-width:1;"/><text fill="#000000" font-family="Verdana" font-size="14" lengthAdjust="spacing" textLength="99.8936" x="674.9787" y="310.095">Mogrify image</text><text fill="#000000" font-family="Verdana" font-size="14" lengthAdjust="spacing" textLength="142.3652" x="653.7429" y="327.1096">(in-place transform)</text></g><!--entity UCComposite--><g class="entity" data-qualified-name="RaiImage.UCComposite" data-source-line="13" id="ent0007"><ellipse cx="724.9274" cy="567.7591" fill="#FFFFFF" rx="88.3974" ry="25.2418" style="stroke:#000000;stroke-width:1;"/><text fill="#000000" font-family="Verdana" font-size="14" lengthAdjust="spacing" textLength="130.6553" x="659.5998" y="566.9489">Composite overlay</text><text fill="#000000" font-family="Verdana" font-size="14" lengthAdjust="spacing" textLength="79.2217" x="685.3166" y="583.9636">onto image</text></g><!--entity UCIdentify--><g class="entity" data-qualified-name="RaiImage.UCIdentify" data-source-line="14" id="ent0008"><ellipse cx="724.9332" cy="402.757" fill="#FFFFFF" rx="105.1032" ry="26.2097" style="stroke:#000000;stroke-width:1;"/><text fill="#000000" font-family="Verdana" font-size="14" lengthAdjust="spacing" textLength="126.2393" x="661.8136" y="398.0282">Identify metadata</text><text fill="#000000" font-family="Verdana" font-size="14" lengthAdjust="spacing" textLength="149.7002" x="650.0831" y="415.0429">and pixel information</text></g><!--entity UCGetSize--><g class="entity" data-qualified-name="RaiImage.UCGetSize" data-source-line="15" id="ent0009"><ellipse cx="348.9241" cy="616.7581" fill="#FFFFFF" rx="70.3041" ry="16.4608" style="stroke:#000000;stroke-width:1;"/><text fill="#000000" font-family="Verdana" font-size="14" lengthAdjust="spacing" textLength="104.3164" x="296.7659" y="621.7654">Get image size</text></g><!--entity UCHistogram--><g class="entity" data-qualified-name="RaiImage.UCHistogram" data-source-line="16" id="ent0010"><ellipse cx="348.9196" cy="777.7612" fill="#FFFFFF" rx="77.3696" ry="17.8739" style="stroke:#000000;stroke-width:1;"/><text fill="#000000" font-family="Verdana" font-size="14" lengthAdjust="spacing" textLength="122.0078" x="287.9157" y="782.7686">Create histogram</text></g><!--entity UCHistogramInfo--><g class="entity" data-qualified-name="RaiImage.UCHistogramInfo" data-source-line="17" id="ent0011"><ellipse cx="348.9214" cy="456.7536" fill="#FFFFFF" rx="90.3314" ry="20.4663" style="stroke:#000000;stroke-width:1;"/><text fill="#000000" font-family="Verdana" font-size="14" lengthAdjust="spacing" textLength="152.5439" x="272.6495" y="461.7609">Export histogram info</text></g><!--entity UCOptiPng--><g class="entity" data-qualified-name="RaiImage.UCOptiPng" data-source-line="18" id="ent0012"><ellipse cx="724.9308" cy="643.7555" fill="#FFFFFF" rx="67.4908" ry="15.8982" style="stroke:#000000;stroke-width:1;"/><text fill="#000000" font-family="Verdana" font-size="14" lengthAdjust="spacing" textLength="96.9473" x="676.4571" y="648.7628">Optimize PNG</text></g><!--entity UCJpegTran--><g class="entity" data-qualified-name="RaiImage.UCJpegTran" data-source-line="19" id="ent0013"><ellipse cx="724.9322" cy="710.7557" fill="#FFFFFF" rx="69.2922" ry="16.2584" style="stroke:#000000;stroke-width:1;"/><text fill="#000000" font-family="Verdana" font-size="14" lengthAdjust="spacing" textLength="101.6914" x="674.0865" y="715.7631">Optimize JPEG</text></g><!--entity UCTiles--><g class="entity" data-qualified-name="RaiImage.UCTiles" data-source-line="20" id="ent0014"><ellipse cx="348.9205" cy="848.7534" fill="#FFFFFF" rx="79.8305" ry="18.3661" style="stroke:#000000;stroke-width:1;"/><text fill="#000000" font-family="Verdana" font-size="14" lengthAdjust="spacing" textLength="127.9619" x="284.9396" y="853.7607">Create image tiles</text></g><!--entity UCEmptyForm--><g class="entity" data-qualified-name="RaiImage.UCEmptyForm" data-source-line="21" id="ent0015"><ellipse cx="348.9185" cy="538.7599" fill="#FFFFFF" rx="106.7685" ry="26.2726" style="stroke:#000000;stroke-width:1;"/><text fill="#000000" font-family="Verdana" font-size="14" lengthAdjust="spacing" textLength="129.8896" x="283.9736" y="534.1235">Check empty form</text><text fill="#000000" font-family="Verdana" font-size="14" lengthAdjust="spacing" textLength="151.7305" x="273.0532" y="551.1381">inside a drawn region</text></g><!--entity UCBackgroundRemoval--><g class="entity" data-qualified-name="RaiImage.UCBackgroundRemoval" data-source-line="22" id="ent0016"><ellipse cx="348.923" cy="696.7579" fill="#FFFFFF" rx="129.953" ry="28.3906" style="stroke:#000000;stroke-width:1;"/><text fill="#000000" font-family="Verdana" font-size="14" lengthAdjust="spacing" textLength="201.4551" x="248.1954" y="694.8181">Remove portrait background</text><text fill="#000000" font-family="Verdana" font-size="14" lengthAdjust="spacing" textLength="173.1064" x="262.3698" y="711.8327">and export transparency</text></g><!--entity UCPng--><g class="entity" data-qualified-name="RaiImage.UCPng" data-source-line="23" id="ent0017"><ellipse cx="724.9304" cy="485.7594" fill="#FFFFFF" rx="96.8604" ry="21.7721" style="stroke:#000000;stroke-width:1;"/><text fill="#000000" font-family="Verdana" font-size="14" lengthAdjust="spacing" textLength="167.3369" x="641.2619" y="490.7667">Export transparent PNG</text></g><!--entity UCWebp--><g class="entity" data-qualified-name="RaiImage.UCWebp" data-source-line="24" id="ent0018"><ellipse cx="724.9288" cy="784.7531" fill="#FFFFFF" rx="101.7788" ry="22.7558" style="stroke:#000000;stroke-width:1;"/><text fill="#000000" font-family="Verdana" font-size="14" lengthAdjust="spacing" textLength="178.3018" x="635.7779" y="789.7604">Export transparent WEBP</text></g><!--entity UCZip--><g class="entity" data-qualified-name="RaiImage.UCZip" data-source-line="25" id="ent0019"><ellipse cx="1094.8476" cy="861.7608" fill="#FFFFFF" rx="88.2676" ry="20.0535" style="stroke:#000000;stroke-width:1;"/><text fill="#000000" font-family="Verdana" font-size="14" lengthAdjust="spacing" textLength="147.7998" x="1020.9477" y="866.7681">Zip converted output</text></g><!--entity UCCliExecution--><g class="entity" data-qualified-name="RaiImage.UCCliExecution" data-source-line="26" id="ent0020"><ellipse cx="1094.8471" cy="605.7607" fill="#FFFFFF" rx="123.8671" ry="27.1734" style="stroke:#000000;stroke-width:1;"/><text fill="#000000" font-family="Verdana" font-size="14" lengthAdjust="spacing" textLength="180.9678" x="1004.3632" y="603.2485">Resolve ImageMagick CLI</text><text fill="#000000" font-family="Verdana" font-size="14" lengthAdjust="spacing" textLength="161.3281" x="1014.1831" y="620.2631">and execute off-thread</text></g><!--entity App--><g class="entity" data-qualified-name="App" data-source-line="7" id="ent0002"><ellipse cx="83.4814" cy="467.7473" fill="#FFFFFF" rx="8" ry="8" style="stroke:#000000;stroke-width:1;"/><path d="M83.4814,475.7473 L83.4814,502.7473 M70.4814,483.7473 L96.4814,483.7473 M83.4814,502.7473 L70.4814,517.7473 M83.4814,502.7473 L96.4814,517.7473" fill="none" style="stroke:#000000;stroke-width:1;"/><text fill="#000000" font-family="Verdana" font-size="14" lengthAdjust="spacing" textLength="144.9629" x="11" y="533.8225">Application / Service</text></g><!--entity Batch--><g class="entity" data-qualified-name="Batch" data-source-line="8" id="ent0003"><ellipse cx="83.4803" cy="1031.7473" fill="#FFFFFF" rx="8" ry="8" style="stroke:#000000;stroke-width:1;"/><path d="M83.4803,1039.7473 L83.4803,1066.7473 M70.4803,1047.7473 L96.4803,1047.7473 M83.4803,1066.7473 L70.4803,1081.7473 M83.4803,1066.7473 L96.4803,1081.7473" fill="none" style="stroke:#000000;stroke-width:1;"/><text fill="#000000" font-family="Verdana" font-size="14" lengthAdjust="spacing" textLength="137.0605" x="14.95" y="1097.8225">Batch / Automation</text></g><g class="entity" data-qualified-name="GMN52" data-source-line="65" id="ent0053"><path d="M1281.72,577.0573 L1281.72,601.7573 L1218.98,605.7573 L1281.72,609.7573 L1281.72,634.4553 A0,0 0 0 0 1281.72,634.4553 L1771.3675,634.4553 A0,0 0 0 0 1771.3675,634.4553 L1771.3675,587.0573 L1761.3675,577.0573 L1281.72,577.0573 A0,0 0 0 0 1281.72,577.0573" fill="#FFFFFF" style="stroke:#000000;stroke-width:1;"/><path d="M1761.3675,577.0573 L1761.3675,587.0573 L1771.3675,587.0573 L1761.3675,577.0573" fill="#FFFFFF" style="stroke:#000000;stroke-width:1;"/><text fill="#000000" font-family="Verdana" font-size="13" lengthAdjust="spacing" textLength="73.2964" x="1287.72" y="595.1271">Backed by:</text><text fill="#000000" font-family="Verdana" font-size="13" lengthAdjust="spacing" textLength="468.6475" x="1287.72" y="610.9264">ImageMagick -&gt; ImageMagickCommand -&gt; CliCommand -&gt; RaiSystem</text><text fill="#000000" font-family="Verdana" font-size="13" lengthAdjust="spacing" textLength="420.8813" x="1287.72" y="626.7258">with external process execution dispatched off the caller thread.</text></g><!--link App to UCConvert--><g class="link" data-entity-1="ent0002" data-entity-2="ent0005" data-link-type="dependency" data-source-line="29" id="lnk21"><path d="M89.73,537.1373 C102.59,626.9373 138.77,842.3573 194.96,884.7573 C334.12,989.7473 551.9417,932.8532 658.2817,895.3432" fill="none" id="App-to-UCConvert" style="stroke:#000000;stroke-width:1;"/><polygon fill="#000000" points="663.94,893.3473,654.1219,892.5689,659.2247,895.0105,656.7831,900.1133,663.94,893.3473" style="stroke:#000000;stroke-width:1;"/></g><!--link App to UCMogrify--><g class="link" data-entity-1="ent0002" data-entity-2="ent0006" data-link-type="dependency" data-source-line="30" id="lnk22"><path d="M83.66,458.3373 C84.54,384.8373 98.3,227.9773 194.96,157.7573 C331.24,58.7373 425.28,105.5473 572.87,186.7573 C623.78,214.7673 668.9505,257.4631 696.7305,286.3431" fill="none" id="App-to-UCMogrify" style="stroke:#000000;stroke-width:1;"/><polygon fill="#000000" points="700.89,290.6673,697.5336,281.408,697.4238,287.0638,691.768,286.954,700.89,290.6673" style="stroke:#000000;stroke-width:1;"/></g><!--link App to UCComposite--><g class="link" data-entity-1="ent0002" data-entity-2="ent0007" data-link-type="dependency" data-source-line="31" id="lnk23"><path d="M90.62,458.2673 C100.72,408.3473 126.08,324.3973 185.96,286.7573 C331.54,195.2273 443.9,173.0173 572.87,286.7573 C652.83,357.2673 536.04,441.6773 602.87,524.7573 C614.33,539.0073 625.2449,546.4496 642.4349,552.8296" fill="none" id="App-to-UCComposite" style="stroke:#000000;stroke-width:1;"/><polygon fill="#000000" points="648.06,554.9173,641.0142,548.0357,643.3724,553.1775,638.2306,555.5358,648.06,554.9173" style="stroke:#000000;stroke-width:1;"/></g><!--link App to UCIdentify--><g class="link" data-entity-1="ent0002" data-entity-2="ent0008" data-link-type="dependency" data-source-line="32" id="lnk24"><path d="M86.82,458.2873 C92.93,395.1673 115.03,273.0673 194.96,218.7573 C334.06,124.2273 451.39,121.4573 572.87,237.7573 C612.89,276.0673 565.81,317.5673 602.87,358.7573 C613.71,370.8073 622.591,377.227 637.681,383.587" fill="none" id="App-to-UCIdentify" style="stroke:#000000;stroke-width:1;"/><polygon fill="#000000" points="643.21,385.9173,636.4701,378.7359,638.6025,383.9754,633.363,386.1078,643.21,385.9173" style="stroke:#000000;stroke-width:1;"/></g><!--link App to UCGetSize--><g class="link" data-entity-1="ent0002" data-entity-2="ent0009" data-link-type="dependency" data-source-line="33" id="lnk25"><path d="M126.46,537.0673 C145.98,553.4173 170.3,571.2273 194.96,582.7573 C223.3,595.9973 251.1405,603.169 279.7105,608.189" fill="none" id="App-to-UCGetSize" style="stroke:#000000;stroke-width:1;"/><polygon fill="#000000" points="285.62,609.2273,277.448,603.7301,280.6954,608.362,276.0636,611.6094,285.62,609.2273" style="stroke:#000000;stroke-width:1;"/></g><!--link App to UCHistogram--><g class="link" data-entity-1="ent0002" data-entity-2="ent0010" data-link-type="dependency" data-source-line="34" id="lnk26"><path d="M91.01,537.0173 C102.23,591.6973 130.52,689.9873 194.96,742.7573 C216.67,760.5273 239.7547,768.6627 266.6647,773.2327" fill="none" id="App-to-UCHistogram" style="stroke:#000000;stroke-width:1;"/><polygon fill="#000000" points="272.58,774.2373,264.3768,768.7869,267.6506,773.4002,263.0373,776.674,272.58,774.2373" style="stroke:#000000;stroke-width:1;"/></g><!--link App to UCHistogramInfo--><g class="link" data-entity-1="ent0002" data-entity-2="ent0011" data-link-type="dependency" data-source-line="35" id="lnk27"><path d="M156.12,486.6073 C192.53,480.9373 230.8114,474.9804 267.6114,469.2504" fill="none" id="App-to-UCHistogramInfo" style="stroke:#000000;stroke-width:1;"/><polygon fill="#000000" points="273.54,468.3273,264.0317,465.7596,268.5995,469.0966,265.2626,473.6644,273.54,468.3273" style="stroke:#000000;stroke-width:1;"/></g><!--link App to UCOptiPng--><g class="link" data-entity-1="ent0002" data-entity-2="ent0012" data-link-type="dependency" data-source-line="36" id="lnk28"><path d="M100.52,458.4673 C116.61,424.8573 144.92,378.6973 185.96,357.7573 C262.55,318.6773 508.59,300.6473 572.87,357.7573 C615.19,395.3573 565.91,567.8673 602.87,610.7573 C616.88,627.0073 632.1649,634.372 652.8849,638.842" fill="none" id="App-to-UCOptiPng" style="stroke:#000000;stroke-width:1;"/><polygon fill="#000000" points="658.75,640.1073,650.7959,634.2993,653.8624,639.0529,649.1089,642.1194,658.75,640.1073" style="stroke:#000000;stroke-width:1;"/></g><!--link App to UCJpegTran--><g class="link" data-entity-1="ent0002" data-entity-2="ent0013" data-link-type="dependency" data-source-line="37" id="lnk29"><path d="M126.41,458.3373 C145.74,442.8073 169.93,426.7873 194.96,418.7573 C355.1,367.3873 458.47,314.4873 572.87,437.7573 C645.69,516.2273 533.01,595.6273 602.87,676.7573 C616.69,692.7973 631.5629,700.2215 651.9829,704.9215" fill="none" id="App-to-UCJpegTran" style="stroke:#000000;stroke-width:1;"/><polygon fill="#000000" points="657.83,706.2673,649.9565,700.3505,652.9574,705.1458,648.1621,708.1467,657.83,706.2673" style="stroke:#000000;stroke-width:1;"/></g><!--link App to UCTiles--><g class="link" data-entity-1="ent0002" data-entity-2="ent0014" data-link-type="dependency" data-source-line="38" id="lnk30"><path d="M86.58,537.2073 C92.34,604.1773 113.94,739.9073 194.96,812.7573 C215.45,831.1773 237.6734,839.6128 264.2234,844.3528" fill="none" id="App-to-UCTiles" style="stroke:#000000;stroke-width:1;"/><polygon fill="#000000" points="270.13,845.4073,261.9731,839.8878,265.2078,844.5285,260.5671,847.7633,270.13,845.4073" style="stroke:#000000;stroke-width:1;"/></g><!--link App to UCEmptyForm--><g class="link" data-entity-1="ent0002" data-entity-2="ent0015" data-link-type="dependency" data-source-line="39" id="lnk31"><path d="M156.12,508.9073 C187.5,513.7873 218.7513,518.6549 251.9813,523.8249" fill="none" id="App-to-UCEmptyForm" style="stroke:#000000;stroke-width:1;"/><polygon fill="#000000" points="257.91,524.7473,249.6319,519.4113,252.9694,523.9786,248.4021,527.3162,257.91,524.7473" style="stroke:#000000;stroke-width:1;"/></g><!--link App to UCBackgroundRemoval--><g class="link" data-entity-1="ent0002" data-entity-2="ent0016" data-link-type="dependency" data-source-line="40" id="lnk32"><path d="M103.37,536.9873 C122.02,571.7473 153.73,621.3973 194.96,650.7573 C211.45,662.4973 225.2835,669.3633 244.7735,675.9233" fill="none" id="App-to-UCBackgroundRemoval" style="stroke:#000000;stroke-width:1;"/><polygon fill="#000000" points="250.46,677.8373,243.2062,671.1753,245.7212,676.2423,240.6542,678.7573,250.46,677.8373" style="stroke:#000000;stroke-width:1;"/></g><!--link Batch to UCConvert--><g class="link" data-entity-1="ent0003" data-entity-2="ent0005" data-link-type="dependency" data-source-line="42" id="lnk33"><path d="M113.08,1101.0473 C131.24,1122.5073 156.78,1147.0473 185.96,1158.7573 C345.56,1222.7573 425.79,1247.8373 572.87,1158.7573 C669.72,1100.0973 706.2743,962.583 718.1443,902.653" fill="none" id="Batch-to-UCConvert" style="stroke:#000000;stroke-width:1;"/><polygon fill="#000000" points="719.31,896.7673,713.6376,904.8186,718.3385,901.672,721.4852,906.373,719.31,896.7673" style="stroke:#000000;stroke-width:1;"/></g><!--link Batch to UCComposite--><g class="link" data-entity-1="ent0003" data-entity-2="ent0007" data-link-type="dependency" data-source-line="43" id="lnk34"><path d="M152.2,1045.2273 C273.39,1014.2373 519.69,944.3073 572.87,875.7573 C645.52,782.1073 529.16,703.5773 602.87,610.7573 C614.24,596.4273 625.1249,588.965 642.3149,582.585" fill="none" id="Batch-to-UCComposite" style="stroke:#000000;stroke-width:1;"/><polygon fill="#000000" points="647.94,580.4973,638.1106,579.8788,643.2524,582.2371,640.8942,587.3789,647.94,580.4973" style="stroke:#000000;stroke-width:1;"/></g><!--link Batch to UCOptiPng--><g class="link" data-entity-1="ent0003" data-entity-2="ent0012" data-link-type="dependency" data-source-line="44" id="lnk35"><path d="M152.32,1065.6873 C272.5,1071.0673 515.56,1074.2873 572.87,1016.7573 C626.4,963.0173 554.22,734.9473 602.87,676.7573 C616.63,660.2873 631.8635,652.876 652.6035,648.426" fill="none" id="Batch-to-UCOptiPng" style="stroke:#000000;stroke-width:1;"/><polygon fill="#000000" points="658.47,647.1673,648.8311,645.1444,653.5813,648.2162,650.5094,652.9664,658.47,647.1673" style="stroke:#000000;stroke-width:1;"/></g><!--link Batch to UCJpegTran--><g class="link" data-entity-1="ent0003" data-entity-2="ent0013" data-link-type="dependency" data-source-line="45" id="lnk36"><path d="M152.17,1092.1573 C256.87,1134.0173 458,1193.0173 572.87,1087.7573 C629.28,1036.0573 554.04,803.6573 602.87,744.7573 C616.38,728.4473 631.1913,720.9564 651.6313,716.2764" fill="none" id="Batch-to-UCJpegTran" style="stroke:#000000;stroke-width:1;"/><polygon fill="#000000" points="657.48,714.9373,647.8143,713.0469,652.6061,716.0532,649.5998,720.8451,657.48,714.9373" style="stroke:#000000;stroke-width:1;"/></g><!--link Batch to UCTiles--><g class="link" data-entity-1="ent0003" data-entity-2="ent0014" data-link-type="dependency" data-source-line="46" id="lnk37"><path d="M127.94,1022.3173 C148.05,1004.4073 172.42,983.1573 194.96,964.7573 C239.24,928.6073 287.9953,892.3669 318.5453,870.0469" fill="none" id="Batch-to-UCTiles" style="stroke:#000000;stroke-width:1;"/><polygon fill="#000000" points="323.39,866.5073,313.7632,868.5869,319.3527,869.457,318.4826,875.0465,323.39,866.5073" style="stroke:#000000;stroke-width:1;"/></g><!--link UCGetSize to UCIdentify--><g class="link" data-entity-1="ent0009" data-entity-2="ent0008" data-link-type="dependency" data-source-line="48" id="lnk38"><path d="M415.22,611.0273 C437.44,606.2873 461.13,597.8073 478.87,582.7573 C503.74,561.6373 488.37,541.1373 508.87,515.7573 C541.43,475.4373 557.16,471.1873 602.87,446.7573 C619.83,437.6873 633.4199,431.794 651.4699,425.244" fill="none" id="UCGetSize-to-UCIdentify" style="stroke:#000000;stroke-width:1;stroke-dasharray:7,7;"/><polygon fill="#000000" points="657.11,423.1973,647.2853,422.5073,652.4099,424.9029,650.0143,430.0274,657.11,423.1973" style="stroke:#000000;stroke-width:1;"/><text fill="#000000" font-family="Verdana" font-size="13" lengthAdjust="spacing" textLength="62.9624" x="509.87" y="459.7771">&#171;include&#187;</text></g><!--link UCHistogram to UCConvert--><g class="link" data-entity-1="ent0010" data-entity-2="ent0005" data-link-type="dependency" data-source-line="49" id="lnk39"><path d="M403.11,790.8373 C465.52,806.1873 563.8837,830.3842 636.5337,848.2542" fill="none" id="UCHistogram-to-UCConvert" style="stroke:#000000;stroke-width:1;stroke-dasharray:7,7;"/><polygon fill="#000000" points="642.36,849.6873,634.5759,843.6534,637.5047,848.493,632.6651,851.4218,642.36,849.6873" style="stroke:#000000;stroke-width:1;"/><text fill="#000000" font-family="Verdana" font-size="13" lengthAdjust="spacing" textLength="62.9624" x="509.87" y="815.3171">&#171;include&#187;</text></g><!--link UCTiles to UCConvert--><g class="link" data-entity-1="ent0014" data-entity-2="ent0005" data-link-type="dependency" data-source-line="50" id="lnk40"><path d="M420.64,857.0473 C448.14,859.9673 479.94,862.9673 508.87,864.7573 C539.25,866.6373 566.0817,867.6825 596.7317,868.4225" fill="none" id="UCTiles-to-UCConvert" style="stroke:#000000;stroke-width:1;stroke-dasharray:7,7;"/><polygon fill="#000000" points="602.73,868.5673,593.8292,864.3512,597.7315,868.4466,593.6361,872.3489,602.73,868.5673" style="stroke:#000000;stroke-width:1;"/><text fill="#000000" font-family="Verdana" font-size="13" lengthAdjust="spacing" textLength="62.9624" x="509.87" y="861.8271">&#171;include&#187;</text></g><!--link UCBackgroundRemoval to UCConvert--><g class="link" data-entity-1="ent0016" data-entity-2="ent0005" data-link-type="dependency" data-source-line="51" id="lnk41"><path d="M422.6,720.5873 C441.16,727.2373 460.93,734.8373 478.87,742.7573 C522.16,761.8673 535.29,763.9973 572.87,792.7573 C588.35,804.5973 586.63,813.9573 602.87,824.7573 C617.06,834.1873 627.9025,839.8009 644.0025,846.1009" fill="none" id="UCBackgroundRemoval-to-UCConvert" style="stroke:#000000;stroke-width:1;stroke-dasharray:7,7;"/><polygon fill="#000000" points="649.59,848.2873,642.6664,841.2827,644.9338,846.4653,639.7512,848.7327,649.59,848.2873" style="stroke:#000000;stroke-width:1;"/><text fill="#000000" font-family="Verdana" font-size="13" lengthAdjust="spacing" textLength="62.9624" x="509.87" y="752.8371">&#171;include&#187;</text></g><!--link UCBackgroundRemoval to UCComposite--><g class="link" data-entity-1="ent0016" data-entity-2="ent0007" data-link-type="dependency" data-source-line="52" id="lnk42"><path d="M419.83,672.6373 C491.29,647.9973 595.2581,612.1341 661.5181,589.2741" fill="none" id="UCBackgroundRemoval-to-UCComposite" style="stroke:#000000;stroke-width:1;stroke-dasharray:7,7;"/><polygon fill="#000000" points="667.19,587.3173,657.3775,586.4713,662.4634,588.948,659.9867,594.0339,667.19,587.3173" style="stroke:#000000;stroke-width:1;"/><text fill="#000000" font-family="Verdana" font-size="13" lengthAdjust="spacing" textLength="62.9624" x="509.87" y="617.7671">&#171;include&#187;</text></g><!--link UCBackgroundRemoval to UCPng--><g class="link" data-entity-1="ent0016" data-entity-2="ent0017" data-link-type="dependency" data-source-line="53" id="lnk43"><path d="M436.86,675.6173 C451.94,669.2973 466.67,661.1773 478.87,650.7573 C500.04,632.6673 490.68,616.8373 508.87,595.7573 C543.06,556.1073 556.41,548.8973 602.87,524.7573 C620.5,515.5873 634.9776,509.8512 653.7576,503.9312" fill="none" id="UCBackgroundRemoval-to-UCPng" style="stroke:#000000;stroke-width:1;stroke-dasharray:7,7;"/><polygon fill="#000000" points="659.48,502.1273,649.6938,501.0182,654.7113,503.6305,652.099,508.6481,659.48,502.1273" style="stroke:#000000;stroke-width:1;"/><text fill="#000000" font-family="Verdana" font-size="13" lengthAdjust="spacing" textLength="62.9624" x="509.87" y="538.0871">&#171;include&#187;</text></g><!--link UCBackgroundRemoval to UCWebp--><g class="link" data-entity-1="ent0016" data-entity-2="ent0018" data-link-type="dependency" data-source-line="54" id="lnk44"><path d="M470.09,707.4473 C503.84,712.3473 540.21,719.4673 572.87,729.7573 C587.09,734.2373 589.09,739.0673 602.87,744.7573 C622,752.6473 637.5942,758.2616 656.9342,764.5516" fill="none" id="UCBackgroundRemoval-to-UCWebp" style="stroke:#000000;stroke-width:1;stroke-dasharray:7,7;"/><polygon fill="#000000" points="662.64,766.4073,655.3184,759.8199,657.8852,764.8609,652.8441,767.4276,662.64,766.4073" style="stroke:#000000;stroke-width:1;"/><text fill="#000000" font-family="Verdana" font-size="13" lengthAdjust="spacing" textLength="62.9624" x="509.87" y="711.8271">&#171;include&#187;</text></g><!--link UCConvert to UCZip--><g class="link" data-entity-1="ent0005" data-entity-2="ent0019" data-link-type="dependency" data-source-line="55" id="lnk45"><path d="M846.91,867.1273 C899.06,865.9873 952.8914,864.8181 1000.6014,863.7781" fill="none" id="UCConvert-to-UCZip" style="stroke:#000000;stroke-width:1;stroke-dasharray:7,7;"/><polygon fill="#000000" points="1006.6,863.6473,997.515,859.8444,1001.6012,863.7563,997.6893,867.8425,1006.6,863.6473" style="stroke:#000000;stroke-width:1;"/><text fill="#000000" font-family="Verdana" font-size="13" lengthAdjust="spacing" textLength="61.3882" x="878.48" y="862.3471">&#171;extend&#187;</text></g><!--link UCConvert to UCCliExecution--><g class="link" data-entity-1="ent0005" data-entity-2="ent0020" data-link-type="dependency" data-source-line="57" id="lnk46"><path d="M798.05,847.9173 C814.68,841.5473 831.89,833.8173 846.98,824.7573 C939.08,769.4473 1024.6466,682.1011 1066.0166,636.9511" fill="none" id="UCConvert-to-UCCliExecution" style="stroke:#000000;stroke-width:1;stroke-dasharray:7,7;"/><polygon fill="#000000" points="1070.07,632.5273,1061.0407,636.4607,1066.6922,636.2138,1066.9391,641.8653,1070.07,632.5273" style="stroke:#000000;stroke-width:1;"/><text fill="#000000" font-family="Verdana" font-size="13" lengthAdjust="spacing" textLength="62.9624" x="877.98" y="758.6371">&#171;include&#187;</text></g><!--link UCMogrify to UCCliExecution--><g class="link" data-entity-1="ent0006" data-entity-2="ent0020" data-link-type="dependency" data-source-line="58" id="lnk47"><path d="M792.65,334.4173 C810.89,340.8473 830.24,348.9573 846.98,358.7573 C947.72,417.6873 1032.9705,522.832 1070.8305,573.762" fill="none" id="UCMogrify-to-UCCliExecution" style="stroke:#000000;stroke-width:1;stroke-dasharray:7,7;"/><polygon fill="#000000" points="1074.41,578.5773,1072.2509,568.968,1071.427,574.5646,1065.8305,573.7408,1074.41,578.5773" style="stroke:#000000;stroke-width:1;"/><text fill="#000000" font-family="Verdana" font-size="13" lengthAdjust="spacing" textLength="62.9624" x="877.98" y="376.2371">&#171;include&#187;</text></g><!--link UCComposite to UCCliExecution--><g class="link" data-entity-1="ent0007" data-entity-2="ent0020" data-link-type="dependency" data-source-line="59" id="lnk48"><path d="M808.5,576.2773 C859.66,581.5673 920.0818,587.8108 975.9418,593.5808" fill="none" id="UCComposite-to-UCCliExecution" style="stroke:#000000;stroke-width:1;stroke-dasharray:7,7;"/><polygon fill="#000000" points="981.91,594.1973,973.3686,589.2937,976.9365,593.6836,972.5466,597.2514,981.91,594.1973" style="stroke:#000000;stroke-width:1;"/><text fill="#000000" font-family="Verdana" font-size="13" lengthAdjust="spacing" textLength="62.9624" x="877.98" y="581.5471">&#171;include&#187;</text></g><!--link UCIdentify to UCCliExecution--><g class="link" data-entity-1="ent0008" data-entity-2="ent0020" data-link-type="dependency" data-source-line="60" id="lnk49"><path d="M791.13,423.4373 C809.54,430.0773 829.35,438.0073 846.98,446.7573 C926.45,486.1673 1007.0897,541.9254 1053.6997,575.8654" fill="none" id="UCIdentify-to-UCCliExecution" style="stroke:#000000;stroke-width:1;stroke-dasharray:7,7;"/><polygon fill="#000000" points="1058.55,579.3973,1053.6291,570.8659,1054.508,576.4541,1048.9199,577.3331,1058.55,579.3973" style="stroke:#000000;stroke-width:1;"/><text fill="#000000" font-family="Verdana" font-size="13" lengthAdjust="spacing" textLength="62.9624" x="877.98" y="462.3671">&#171;include&#187;</text></g><!--link UCOptiPng to UCCliExecution--><g class="link" data-entity-1="ent0012" data-entity-2="ent0020" data-link-type="dependency" data-source-line="61" id="lnk50"><path d="M787.51,637.3973 C840.49,631.9173 912.2917,624.5036 976.2117,617.9036" fill="none" id="UCOptiPng-to-UCCliExecution" style="stroke:#000000;stroke-width:1;stroke-dasharray:7,7;"/><polygon fill="#000000" points="982.18,617.2873,972.8168,614.2328,977.2064,617.8008,973.6384,622.1905,982.18,617.2873" style="stroke:#000000;stroke-width:1;"/><text fill="#000000" font-family="Verdana" font-size="13" lengthAdjust="spacing" textLength="62.9624" x="877.98" y="619.5471">&#171;include&#187;</text></g><!--link UCJpegTran to UCCliExecution--><g class="link" data-entity-1="ent0013" data-entity-2="ent0020" data-link-type="dependency" data-source-line="62" id="lnk51"><path d="M772.16,698.4173 C815.78,686.7073 882.94,668.4473 940.98,651.7573 C967.22,644.2073 990.1565,637.3928 1015.5065,629.7328" fill="none" id="UCJpegTran-to-UCCliExecution" style="stroke:#000000;stroke-width:1;stroke-dasharray:7,7;"/><polygon fill="#000000" points="1021.25,627.9973,1011.4777,626.7716,1016.4637,629.4436,1013.7917,634.4296,1021.25,627.9973" style="stroke:#000000;stroke-width:1;"/><text fill="#000000" font-family="Verdana" font-size="13" lengthAdjust="spacing" textLength="62.9624" x="877.98" y="648.8271">&#171;include&#187;</text></g><?plantuml-src dPPHJzim4CUVyQUuzMbxA7j720cgZXMDKL4GqjGNarnIYyIsR0V8fdttdHCxSGaIrTxmtpzVxlu-N_daTbWZw8eBoIei73W5HfGx1xamc3cX9BDFGcfkU0sQPq-yn8rhAmI_pMLP8MDEE19kkLZLj0sRHcjb7ERGhsyq6kv3MSPuvfI1sRdMbSWw4Rx21ispo706t0BjHEY2ksn7s-UDKtN7TaGdCpPy7sRnopFumuuQYnctf2wKV4RZGFYjhVnSA4DHA9v1AtuZ_U4CbzRBNxh0zujm90bohKeZYdO88kIStCfmUZQGUmdKMbdX41H5hNYxbKgImQBFDNmnCCcvLOxI-O_Mw7ZE7TzABdFGuXKh4BAl8xfnluXu4k4IGzdWAmqSYHjQfGaQv9JTJbX7oVCwWD_ZEa6Nh_vAHxJBuos_8YqvSwETgBtJwv-N0VNIMfRlGLVhPQIkD9PtvEyqrRue9ogqWRtpVwVW3hCdm5gx5hnJMoca5Ja2Xzpm5qctNuxUBJttZR0amYtMT5_WwpLSE7YahY-DQcJUtmFsLdGDGEy2PTQ6Q1S3sSNWrTJ0yPHBRDctv1tqONcn3km3Fke4_YKqP7tRqeDJZTED2oHjxPLbLKLrTI_bcfU2R5hyMCMQC6jyenR5tEt8wppsPoMMtPwV17yPe-S9y_bPybP69Rw0b8dTFMf3kuvIxCnH6Llm7Qrhir6FFJKgG_-CKjycutgy-56RNX_hHz1-mVjQB31LOqQfDkIKYdrMR700ZezJY-04Ja-5pAecnxCpbbWGm3ZYtd9Tt0-OIRN_pSSfT-W9ikPWrdVx18ufzeX_0Px0LuSo9s12f4qy2HOd_07eMEe1y7291x2XOGv1Onzzp3AfADF-rrmLRz_oaNUS9iPZUyAEqfb0ZPaigUJQ3mXIwNYoej_SJMiTqkHy4Mu7tdqZwTwqKHbQ6qQAJoiNDCQewVryAWgW_paWurM51lfHSypeti1do_u1?></g></svg>