<?plantuml 1.2026.2?><svg xmlns="http://www.w3.org/2000/svg" xmlns:xlink="http://www.w3.org/1999/xlink" contentStyleType="text/css" data-diagram-type="ACTIVITY" height="902px" preserveAspectRatio="none" style="width:721px;height:902px;background:#FFFFFF;" version="1.1" viewBox="0 0 721 902" width="721px" zoomAndPan="magnify"><title>RaiImage Background Removal and Transparent Export</title><defs/><g><g class="title" data-source-line="3"><text fill="#000000" font-family="Verdana" font-size="22" font-weight="bold" lengthAdjust="spacing" textLength="688.6279" x="15" y="37.1182">RaiImage Background Removal and Transparent Export</text></g><ellipse cx="405.1345" cy="62.7373" fill="#FFFFFF" rx="10" ry="10" style="stroke:#000000;stroke-width:1;"/><rect fill="#FFFFFF" height="34.584" rx="12.5" ry="12.5" style="stroke:#000000;stroke-width:1;" width="191.5332" x="309.3679" y="92.7373"/><text fill="#000000" font-family="Verdana" font-size="12" lengthAdjust="spacing" textLength="171.5332" x="319.3679" y="114.8018">Receive portrait image input</text><rect fill="#FFFFFF" height="34.584" rx="12.5" ry="12.5" style="stroke:#000000;stroke-width:1;" width="187.6777" x="311.2957" y="147.3213"/><text fill="#000000" font-family="Verdana" font-size="12" lengthAdjust="spacing" textLength="167.6777" x="321.2957" y="169.3857">Create ImageMagick facade</text><rect fill="#FFFFFF" height="34.584" rx="12.5" ry="12.5" style="stroke:#000000;stroke-width:1;" width="211.2734" x="299.4978" y="201.9053"/><text fill="#000000" font-family="Verdana" font-size="12" lengthAdjust="spacing" textLength="191.2734" x="309.4978" y="223.9697">Load or reference source image</text><polygon fill="#FFFFFF" points="336.9377,256.4893,473.3313,256.4893,485.3313,268.4893,473.3313,280.4893,336.9377,280.4893,324.9377,268.4893,336.9377,256.4893" style="stroke:#000000;stroke-width:1;"/><text fill="#000000" font-family="Verdana" font-size="11" lengthAdjust="spacing" textLength="136.3936" x="336.9377" y="272.864">Need raster source first?</text><text fill="#000000" font-family="Verdana" font-size="11" lengthAdjust="spacing" textLength="18.7935" x="306.1443" y="266.1797">yes</text><text fill="#000000" font-family="Verdana" font-size="11" lengthAdjust="spacing" textLength="13.6372" x="485.3313" y="266.1797">no</text><rect fill="#FFFFFF" height="34.584" rx="12.5" ry="12.5" style="stroke:#000000;stroke-width:1;" width="271.0625" x="134.9661" y="290.4893"/><text fill="#000000" font-family="Verdana" font-size="12" lengthAdjust="spacing" textLength="251.0625" x="144.9661" y="312.5537">Convert source into working raster image</text><rect fill="#FFFFFF" height="34.584" rx="12.5" ry="12.5" style="stroke:#000000;stroke-width:1;" width="227.4863" x="426.0286" y="290.4893"/><text fill="#000000" font-family="Verdana" font-size="12" lengthAdjust="spacing" textLength="207.4863" x="436.0286" y="312.5537">Use input as working raster image</text><polygon fill="#FFFFFF" points="405.1345,331.0732,417.1345,343.0732,405.1345,355.0732,393.1345,343.0732,405.1345,331.0732" style="stroke:#000000;stroke-width:1;"/><rect fill="#FFFFFF" height="49.168" rx="12.5" ry="12.5" style="stroke:#000000;stroke-width:1;" width="292.2148" x="259.0271" y="375.0732"/><text fill="#000000" font-family="Verdana" font-size="12" lengthAdjust="spacing" textLength="265.4297" x="269.0271" y="397.1377">Run background-removal convert command</text><text fill="#000000" font-family="Verdana" font-size="12" lengthAdjust="spacing" textLength="272.2148" x="269.0271" y="411.7217">(alpha set, fuzz, transparent color or similar)</text><polygon fill="#FFFFFF" points="328.5723,444.2412,481.6968,444.2412,493.6968,456.2412,481.6968,468.2412,328.5723,468.2412,316.5723,456.2412,328.5723,444.2412" style="stroke:#000000;stroke-width:1;"/><text fill="#000000" font-family="Verdana" font-size="11" lengthAdjust="spacing" textLength="153.1245" x="328.5723" y="460.616">Transparent result created?</text><text fill="#000000" font-family="Verdana" font-size="11" lengthAdjust="spacing" textLength="18.7935" x="297.7788" y="453.9316">yes</text><text fill="#000000" font-family="Verdana" font-size="11" lengthAdjust="spacing" textLength="13.6372" x="493.6968" y="453.9316">no</text><rect fill="#FFFFFF" height="34.584" rx="12.5" ry="12.5" style="stroke:#000000;stroke-width:1;" width="153.793" x="150.6904" y="478.2412"/><text fill="#000000" font-family="Verdana" font-size="12" lengthAdjust="spacing" textLength="133.793" x="160.6904" y="500.3057">Save transparent PNG</text><rect fill="#FFFFFF" height="34.584" rx="12.5" ry="12.5" style="stroke:#000000;stroke-width:1;" width="163.1914" x="145.9912" y="532.8252"/><text fill="#000000" font-family="Verdana" font-size="12" lengthAdjust="spacing" textLength="143.1914" x="155.9912" y="554.8896">Save transparent WEBP</text><rect fill="#FFFFFF" height="49.168" rx="12.5" ry="12.5" style="stroke:#000000;stroke-width:1;" width="285.5586" x="84.8076" y="587.4092"/><text fill="#000000" font-family="Verdana" font-size="12" lengthAdjust="spacing" textLength="265.5586" x="94.8076" y="609.4736">Optionally composite onto test backgrounds</text><text fill="#000000" font-family="Verdana" font-size="12" lengthAdjust="spacing" textLength="157.3359" x="94.8076" y="624.0576">(Nomsa red, black, white)</text><rect fill="#FFFFFF" height="49.168" rx="12.5" ry="12.5" style="stroke:#000000;stroke-width:1;" width="245.1641" x="105.0049" y="656.5771"/><text fill="#000000" font-family="Verdana" font-size="12" lengthAdjust="spacing" textLength="225.1641" x="115.0049" y="678.6416">Identify corner and foreground pixels</text><text fill="#000000" font-family="Verdana" font-size="12" lengthAdjust="spacing" textLength="87.375" x="115.0049" y="693.2256">for verification</text><polygon fill="#FFFFFF" points="173.0515,725.7451,282.1223,725.7451,294.1223,737.7451,282.1223,749.7451,173.0515,749.7451,161.0515,737.7451,173.0515,725.7451" style="stroke:#000000;stroke-width:1;"/><text fill="#000000" font-family="Verdana" font-size="11" lengthAdjust="spacing" textLength="109.0708" x="173.0515" y="742.1199">Verification passes?</text><text fill="#000000" font-family="Verdana" font-size="11" lengthAdjust="spacing" textLength="18.7935" x="142.2581" y="735.4355">yes</text><text fill="#000000" font-family="Verdana" font-size="11" lengthAdjust="spacing" textLength="13.6372" x="294.1223" y="735.4355">no</text><rect fill="#FFFFFF" height="34.584" rx="12.5" ry="12.5" style="stroke:#000000;stroke-width:1;" width="184.8008" x="26.7524" y="759.7451"/><text fill="#000000" font-family="Verdana" font-size="12" lengthAdjust="spacing" textLength="164.8008" x="36.7524" y="781.8096">Return transparent outputs</text><rect fill="#FFFFFF" height="34.584" rx="12.5" ry="12.5" style="stroke:#000000;stroke-width:1;" width="208.9355" x="231.5532" y="759.7451"/><text fill="#000000" font-family="Verdana" font-size="12" lengthAdjust="spacing" textLength="188.9355" x="241.5532" y="781.8096">Return validation failure details</text><polygon fill="#FFFFFF" points="227.5869,800.3291,239.5869,812.3291,227.5869,824.3291,215.5869,812.3291,227.5869,800.3291" style="stroke:#000000;stroke-width:1;"/><rect fill="#FFFFFF" height="34.584" rx="12.5" ry="12.5" style="stroke:#000000;stroke-width:1;" width="224.3867" x="470.4888" y="478.2412"/><text fill="#000000" font-family="Verdana" font-size="12" lengthAdjust="spacing" textLength="204.3867" x="480.4888" y="500.3057">Capture stderr / command output</text><rect fill="#FFFFFF" height="34.584" rx="12.5" ry="12.5" style="stroke:#000000;stroke-width:1;" width="213.2363" x="476.064" y="532.8252"/><text fill="#000000" font-family="Verdana" font-size="12" lengthAdjust="spacing" textLength="193.2363" x="486.064" y="554.8896">Return image-processing failure</text><polygon fill="#FFFFFF" points="405.1345,830.3291,417.1345,842.3291,405.1345,854.3291,393.1345,842.3291,405.1345,830.3291" style="stroke:#000000;stroke-width:1;"/><ellipse cx="405.1345" cy="885.3291" fill="none" rx="11" ry="11" style="stroke:#000000;stroke-width:1;"/><ellipse cx="405.1345" cy="885.3291" fill="#FFFFFF" rx="6" ry="6" style="stroke:#000000;stroke-width:1;"/><line style="stroke:#000000;stroke-width:1;" x1="405.1345" x2="405.1345" y1="72.7373" y2="92.7373"/><polygon fill="#000000" points="401.1345,82.7373,405.1345,92.7373,409.1345,82.7373,405.1345,86.7373" style="stroke:#000000;stroke-width:1;"/><line style="stroke:#000000;stroke-width:1;" x1="405.1345" x2="405.1345" y1="127.3213" y2="147.3213"/><polygon fill="#000000" points="401.1345,137.3213,405.1345,147.3213,409.1345,137.3213,405.1345,141.3213" style="stroke:#000000;stroke-width:1;"/><line style="stroke:#000000;stroke-width:1;" x1="405.1345" x2="405.1345" y1="181.9053" y2="201.9053"/><polygon fill="#000000" points="401.1345,191.9053,405.1345,201.9053,409.1345,191.9053,405.1345,195.9053" style="stroke:#000000;stroke-width:1;"/><line style="stroke:#000000;stroke-width:1;" x1="324.9377" x2="270.4973" y1="268.4893" y2="268.4893"/><line style="stroke:#000000;stroke-width:1;" x1="270.4973" x2="270.4973" y1="268.4893" y2="290.4893"/><polygon fill="#000000" points="266.4973,280.4893,270.4973,290.4893,274.4973,280.4893,270.4973,284.4893" style="stroke:#000000;stroke-width:1;"/><line style="stroke:#000000;stroke-width:1;" x1="485.3313" x2="539.7717" y1="268.4893" y2="268.4893"/><line style="stroke:#000000;stroke-width:1;" x1="539.7717" x2="539.7717" y1="268.4893" y2="290.4893"/><polygon fill="#000000" points="535.7717,280.4893,539.7717,290.4893,543.7717,280.4893,539.7717,284.4893" style="stroke:#000000;stroke-width:1;"/><line style="stroke:#000000;stroke-width:1;" x1="270.4973" x2="270.4973" y1="325.0732" y2="343.0732"/><line style="stroke:#000000;stroke-width:1;" x1="270.4973" x2="393.1345" y1="343.0732" y2="343.0732"/><polygon fill="#000000" points="383.1345,339.0732,393.1345,343.0732,383.1345,347.0732,387.1345,343.0732" style="stroke:#000000;stroke-width:1;"/><line style="stroke:#000000;stroke-width:1;" x1="539.7717" x2="539.7717" y1="325.0732" y2="343.0732"/><line style="stroke:#000000;stroke-width:1;" x1="539.7717" x2="417.1345" y1="343.0732" y2="343.0732"/><polygon fill="#000000" points="427.1345,339.0732,417.1345,343.0732,427.1345,347.0732,423.1345,343.0732" style="stroke:#000000;stroke-width:1;"/><line style="stroke:#000000;stroke-width:1;" x1="405.1345" x2="405.1345" y1="236.4893" y2="256.4893"/><polygon fill="#000000" points="401.1345,246.4893,405.1345,256.4893,409.1345,246.4893,405.1345,250.4893" style="stroke:#000000;stroke-width:1;"/><line style="stroke:#000000;stroke-width:1;" x1="405.1345" x2="405.1345" y1="355.0732" y2="375.0732"/><polygon fill="#000000" points="401.1345,365.0732,405.1345,375.0732,409.1345,365.0732,405.1345,369.0732" style="stroke:#000000;stroke-width:1;"/><line style="stroke:#000000;stroke-width:1;" x1="227.5869" x2="227.5869" y1="512.8252" y2="532.8252"/><polygon fill="#000000" points="223.5869,522.8252,227.5869,532.8252,231.5869,522.8252,227.5869,526.8252" style="stroke:#000000;stroke-width:1;"/><line style="stroke:#000000;stroke-width:1;" x1="227.5869" x2="227.5869" y1="567.4092" y2="587.4092"/><polygon fill="#000000" points="223.5869,577.4092,227.5869,587.4092,231.5869,577.4092,227.5869,581.4092" style="stroke:#000000;stroke-width:1;"/><line style="stroke:#000000;stroke-width:1;" x1="227.5869" x2="227.5869" y1="636.5771" y2="656.5771"/><polygon fill="#000000" points="223.5869,646.5771,227.5869,656.5771,231.5869,646.5771,227.5869,650.5771" style="stroke:#000000;stroke-width:1;"/><line style="stroke:#000000;stroke-width:1;" x1="161.0515" x2="119.1528" y1="737.7451" y2="737.7451"/><line style="stroke:#000000;stroke-width:1;" x1="119.1528" x2="119.1528" y1="737.7451" y2="759.7451"/><polygon fill="#000000" points="115.1528,749.7451,119.1528,759.7451,123.1528,749.7451,119.1528,753.7451" style="stroke:#000000;stroke-width:1;"/><line style="stroke:#000000;stroke-width:1;" x1="294.1223" x2="336.021" y1="737.7451" y2="737.7451"/><line style="stroke:#000000;stroke-width:1;" x1="336.021" x2="336.021" y1="737.7451" y2="759.7451"/><polygon fill="#000000" points="332.021,749.7451,336.021,759.7451,340.021,749.7451,336.021,753.7451" style="stroke:#000000;stroke-width:1;"/><line style="stroke:#000000;stroke-width:1;" x1="119.1528" x2="119.1528" y1="794.3291" y2="812.3291"/><line style="stroke:#000000;stroke-width:1;" x1="119.1528" x2="215.5869" y1="812.3291" y2="812.3291"/><polygon fill="#000000" points="205.5869,808.3291,215.5869,812.3291,205.5869,816.3291,209.5869,812.3291" style="stroke:#000000;stroke-width:1;"/><line style="stroke:#000000;stroke-width:1;" x1="336.021" x2="336.021" y1="794.3291" y2="812.3291"/><line style="stroke:#000000;stroke-width:1;" x1="336.021" x2="239.5869" y1="812.3291" y2="812.3291"/><polygon fill="#000000" points="249.5869,808.3291,239.5869,812.3291,249.5869,816.3291,245.5869,812.3291" style="stroke:#000000;stroke-width:1;"/><line style="stroke:#000000;stroke-width:1;" x1="227.5869" x2="227.5869" y1="705.7451" y2="725.7451"/><polygon fill="#000000" points="223.5869,715.7451,227.5869,725.7451,231.5869,715.7451,227.5869,719.7451" style="stroke:#000000;stroke-width:1;"/><line style="stroke:#000000;stroke-width:1;" x1="582.6821" x2="582.6821" y1="512.8252" y2="532.8252"/><polygon fill="#000000" points="578.6821,522.8252,582.6821,532.8252,586.6821,522.8252,582.6821,526.8252" style="stroke:#000000;stroke-width:1;"/><line style="stroke:#000000;stroke-width:1;" x1="316.5723" x2="227.5869" y1="456.2412" y2="456.2412"/><line style="stroke:#000000;stroke-width:1;" x1="227.5869" x2="227.5869" y1="456.2412" y2="478.2412"/><polygon fill="#000000" points="223.5869,468.2412,227.5869,478.2412,231.5869,468.2412,227.5869,472.2412" style="stroke:#000000;stroke-width:1;"/><line style="stroke:#000000;stroke-width:1;" x1="493.6968" x2="582.6821" y1="456.2412" y2="456.2412"/><line style="stroke:#000000;stroke-width:1;" x1="582.6821" x2="582.6821" y1="456.2412" y2="478.2412"/><polygon fill="#000000" points="578.6821,468.2412,582.6821,478.2412,586.6821,468.2412,582.6821,472.2412" style="stroke:#000000;stroke-width:1;"/><line style="stroke:#000000;stroke-width:1;" x1="227.5869" x2="227.5869" y1="824.3291" y2="842.3291"/><line style="stroke:#000000;stroke-width:1;" x1="227.5869" x2="393.1345" y1="842.3291" y2="842.3291"/><polygon fill="#000000" points="383.1345,838.3291,393.1345,842.3291,383.1345,846.3291,387.1345,842.3291" style="stroke:#000000;stroke-width:1;"/><line style="stroke:#000000;stroke-width:1;" x1="582.6821" x2="582.6821" y1="567.4092" y2="842.3291"/><line style="stroke:#000000;stroke-width:1;" x1="582.6821" x2="417.1345" y1="842.3291" y2="842.3291"/><polygon fill="#000000" points="427.1345,838.3291,417.1345,842.3291,427.1345,846.3291,423.1345,842.3291" style="stroke:#000000;stroke-width:1;"/><line style="stroke:#000000;stroke-width:1;" x1="405.1345" x2="405.1345" y1="424.2412" y2="444.2412"/><polygon fill="#000000" points="401.1345,434.2412,405.1345,444.2412,409.1345,434.2412,405.1345,438.2412" style="stroke:#000000;stroke-width:1;"/><line style="stroke:#000000;stroke-width:1;" x1="405.1345" x2="405.1345" y1="854.3291" y2="874.3291"/><polygon fill="#000000" points="401.1345,864.3291,405.1345,874.3291,409.1345,864.3291,405.1345,868.3291" style="stroke:#000000;stroke-width:1;"/><?plantuml-src TL9DQnj133rdVuLwiy6XT_jGI0WbqBh1_RhaekneRU7PcK7IEX-_lfhjncn32WCpwEEDtdlwO0Vg2Kf4JarZR95WXtpRuvxW2jlZNlAG0koepoUCWFx-8PYqe50ok7agMQnfrB1Uwnsrn2S7zAWW6_28nAaCjcdMrq9e12FyLznpUuGEMmpakIyP0sG1eOuSkoNGF8XV8yIcQRY3nPOeWA0QoMkwOr7xj0Hdac3nJBfiBjRNEPr8x0oHBCDZbYEd_Mlx14jH2HOfrwwVEeqAgFyhJu6xIdH8y73Mvr8cVThftpRtlMjrdnOOom51oLRG3IylAx2PV6sEpjYFSiyHPJdHd4iif4Fqqb6wy9ReTtIrvv1tsy-Rz-A_RwxkQk9RCSu9OtokGvQix8Rage-HseoJ-l3Rt2lw16453z4pAtWyUFso0jq6X-MkmaXoWUfgT5besfZ2JoxjVV8Gk2JSSOlrPs-j37_DGb1GbVGDjGjV9Xia_SCY3-Rsg8FCV3jNkWCS_a9so74GWa3chx5XT6vkzpKMgpLgWKJWuwjhqo-Lv0GycdzP9BUaMfTYWZ_lWrekpHy0?></g></svg>