<?plantuml 1.2026.2?><svg xmlns="http://www.w3.org/2000/svg" xmlns:xlink="http://www.w3.org/1999/xlink" contentStyleType="text/css" data-diagram-type="ACTIVITY" height="1295px" preserveAspectRatio="none" style="width:589px;height:1295px;background:#FFFFFF;" version="1.1" viewBox="0 0 589 1295" width="589px" zoomAndPan="magnify"><title>RaiImage Tile Creation Workflow</title><defs/><g><g class="title" data-source-line="13"><text fill="#000000" font-family="sans-serif" font-size="14" font-weight="bold" lengthAdjust="spacing" textLength="236.4688" x="175.085" y="33.5352">RaiImage Tile Creation Workflow</text></g><ellipse cx="315.5381" cy="57.4883" fill="#222222" rx="10" ry="10" style="stroke:#222222;stroke-width:1;"/><rect fill="#F1F1F1" height="34.1328" rx="12.5" ry="12.5" style="stroke:#181818;stroke-width:0.5;" width="243.9863" x="193.5449" y="87.4883"/><text fill="#000000" font-family="sans-serif" font-size="12" lengthAdjust="spacing" textLength="223.9863" x="203.5449" y="109.0898">Receive master image and tile settings</text><polygon fill="#F1F1F1" points="247.8892,141.6211,383.187,141.6211,395.187,153.6211,383.187,165.6211,247.8892,165.6211,235.8892,153.6211,247.8892,141.6211" style="stroke:#181818;stroke-width:0.5;"/><text fill="#000000" font-family="sans-serif" font-size="11" lengthAdjust="spacing" textLength="135.2979" x="247.8892" y="157.7783">Delete existing tiles first?</text><text fill="#374151" font-family="'Casual'" font-size="11" lengthAdjust="spacing" textLength="15.279" x="220.6102" y="151.2121">yes</text><text fill="#374151" font-family="'Casual'" font-size="11" lengthAdjust="spacing" textLength="10.824" x="395.187" y="151.2121">no</text><rect fill="#F1F1F1" height="34.1328" rx="12.5" ry="12.5" style="stroke:#181818;stroke-width:0.5;" width="249.1777" x="60.0527" y="175.6211"/><text fill="#000000" font-family="sans-serif" font-size="12" lengthAdjust="spacing" textLength="229.1777" x="70.0527" y="197.2227">Find existing tile files matching pattern</text><rect fill="#F1F1F1" height="34.1328" rx="12.5" ry="12.5" style="stroke:#181818;stroke-width:0.5;" width="135.3418" x="116.9707" y="244.7539"/><text fill="#000000" font-family="sans-serif" font-size="12" lengthAdjust="spacing" textLength="115.3418" x="126.9707" y="266.3555">Delete existing tiles</text><rect fill="#F1F1F1" height="34.1328" rx="12.5" ry="12.5" style="stroke:#181818;stroke-width:0.5;" width="214.4082" x="339.2305" y="223.6211"/><text fill="#000000" font-family="sans-serif" font-size="12" lengthAdjust="spacing" textLength="194.4082" x="349.2305" y="245.2227">Return success without new work</text><ellipse cx="446.4346" cy="303.7539" fill="none" rx="11" ry="11" style="stroke:#222222;stroke-width:1;"/><ellipse cx="446.4346" cy="303.7539" fill="#222222" rx="6" ry="6" style="stroke:#222222;stroke-width:1;"/><polygon fill="#F1F1F1" points="383.9365,175.6211,508.9326,175.6211,520.9326,187.6211,508.9326,199.6211,383.9365,199.6211,371.9365,187.6211,383.9365,175.6211" style="stroke:#181818;stroke-width:0.5;"/><text fill="#374151" font-family="'Casual'" font-size="11" lengthAdjust="spacing" textLength="15.279" x="450.4346" y="208.4211">yes</text><text fill="#000000" font-family="sans-serif" font-size="11" lengthAdjust="spacing" textLength="124.9961" x="383.9365" y="191.7783">First tile already exists?</text><text fill="#374151" font-family="'Casual'" font-size="11" lengthAdjust="spacing" textLength="10.824" x="520.9326" y="185.2121">no</text><polygon fill="#F1F1F1" points="315.5381,342.7539,327.5381,354.7539,315.5381,366.7539,303.5381,354.7539,315.5381,342.7539" style="stroke:#181818;stroke-width:0.5;"/><rect fill="#F1F1F1" height="34.1328" rx="12.5" ry="12.5" style="stroke:#181818;stroke-width:0.5;" width="173.8203" x="228.6279" y="386.7539"/><text fill="#000000" font-family="sans-serif" font-size="12" lengthAdjust="spacing" textLength="153.8203" x="238.6279" y="408.3555">Identify master image size</text><polygon fill="#F1F1F1" points="241.1672,440.8867,389.9089,440.8867,401.9089,452.8867,389.9089,464.8867,241.1672,464.8867,229.1672,452.8867,241.1672,440.8867" style="stroke:#181818;stroke-width:0.5;"/><text fill="#000000" font-family="sans-serif" font-size="11" lengthAdjust="spacing" textLength="148.7417" x="241.1672" y="457.0439">Resize dimensions missing?</text><text fill="#374151" font-family="'Casual'" font-size="11" lengthAdjust="spacing" textLength="15.279" x="213.8882" y="450.4777">yes</text><text fill="#374151" font-family="'Casual'" font-size="11" lengthAdjust="spacing" textLength="10.824" x="401.9089" y="450.4777">no</text><rect fill="#F1F1F1" height="48.2656" rx="12.5" ry="12.5" style="stroke:#181818;stroke-width:0.5;" width="233.7969" x="74.7734" y="474.8867"/><text fill="#000000" font-family="sans-serif" font-size="12" lengthAdjust="spacing" textLength="178.7109" x="84.7734" y="496.4883">Calculate resize width / height</text><text fill="#000000" font-family="sans-serif" font-size="12" lengthAdjust="spacing" textLength="213.7969" x="84.7734" y="510.6211">from tile proportions and image size</text><rect fill="#F1F1F1" height="34.1328" rx="12.5" ry="12.5" style="stroke:#181818;stroke-width:0.5;" width="221.668" x="328.5703" y="474.8867"/><text fill="#000000" font-family="sans-serif" font-size="12" lengthAdjust="spacing" textLength="201.668" x="338.5703" y="496.4883">Use provided resize width / height</text><polygon fill="#F1F1F1" points="315.5381,529.1523,327.5381,541.1523,315.5381,553.1523,303.5381,541.1523,315.5381,529.1523" style="stroke:#181818;stroke-width:0.5;"/><rect fill="#F1F1F1" height="34.1328" rx="12.5" ry="12.5" style="stroke:#181818;stroke-width:0.5;" width="223.3145" x="203.8809" y="573.1523"/><text fill="#000000" font-family="sans-serif" font-size="12" lengthAdjust="spacing" textLength="203.3145" x="213.8809" y="594.7539">Determine total output canvas size</text><polygon fill="#F1F1F1" points="228.3545,627.2852,402.7217,627.2852,414.7217,639.2852,402.7217,651.2852,228.3545,651.2852,216.3545,639.2852,228.3545,627.2852" style="stroke:#181818;stroke-width:0.5;"/><text fill="#000000" font-family="sans-serif" font-size="11" lengthAdjust="spacing" textLength="174.3672" x="228.3545" y="643.4424">Canvas size differs from master?</text><text fill="#374151" font-family="'Casual'" font-size="11" lengthAdjust="spacing" textLength="15.279" x="201.0755" y="636.8762">yes</text><text fill="#374151" font-family="'Casual'" font-size="11" lengthAdjust="spacing" textLength="10.824" x="414.7217" y="636.8762">no</text><rect fill="#F1F1F1" height="34.1328" rx="12.5" ry="12.5" style="stroke:#181818;stroke-width:0.5;" width="239.7852" x="86.4619" y="661.2852"/><text fill="#000000" font-family="sans-serif" font-size="12" lengthAdjust="spacing" textLength="219.7852" x="96.4619" y="682.8867">Build resize / adaptive-resize options</text><rect fill="#F1F1F1" height="34.1328" rx="12.5" ry="12.5" style="stroke:#181818;stroke-width:0.5;" width="123.7461" x="362.8486" y="661.2852"/><text fill="#000000" font-family="sans-serif" font-size="12" lengthAdjust="spacing" textLength="103.7461" x="372.8486" y="682.8867">Keep original size</text><polygon fill="#F1F1F1" points="315.5381,701.418,327.5381,713.418,315.5381,725.418,303.5381,713.418,315.5381,701.418" style="stroke:#181818;stroke-width:0.5;"/><polygon fill="#F1F1F1" points="254.8018,745.418,376.2744,745.418,388.2744,757.418,376.2744,769.418,254.8018,769.418,242.8018,757.418,254.8018,745.418" style="stroke:#181818;stroke-width:0.5;"/><text fill="#000000" font-family="sans-serif" font-size="11" lengthAdjust="spacing" textLength="121.4727" x="254.8018" y="761.5752">Sharpening requested?</text><text fill="#374151" font-family="'Casual'" font-size="11" lengthAdjust="spacing" textLength="15.279" x="227.5228" y="755.009">yes</text><text fill="#374151" font-family="'Casual'" font-size="11" lengthAdjust="spacing" textLength="10.824" x="388.2744" y="755.009">no</text><rect fill="#F1F1F1" height="34.1328" rx="12.5" ry="12.5" style="stroke:#181818;stroke-width:0.5;" width="319.8477" x="11" y="779.418"/><text fill="#000000" font-family="sans-serif" font-size="12" lengthAdjust="spacing" textLength="299.8477" x="21" y="801.0195">Add sharpen / adaptive-sharpen / unsharp options</text><rect fill="#F1F1F1" height="34.1328" rx="12.5" ry="12.5" style="stroke:#181818;stroke-width:0.5;" width="218.6094" x="350.8477" y="779.418"/><text fill="#000000" font-family="sans-serif" font-size="12" lengthAdjust="spacing" textLength="198.6094" x="360.8477" y="801.0195">Continue without sharpen options</text><polygon fill="#F1F1F1" points="315.5381,819.5508,327.5381,831.5508,315.5381,843.5508,303.5381,831.5508,315.5381,819.5508" style="stroke:#181818;stroke-width:0.5;"/><polygon fill="#F1F1F1" points="245.8884,863.5508,385.1877,863.5508,397.1877,875.5508,385.1877,887.5508,245.8884,887.5508,233.8884,875.5508,245.8884,863.5508" style="stroke:#181818;stroke-width:0.5;"/><text fill="#000000" font-family="sans-serif" font-size="11" lengthAdjust="spacing" textLength="139.2993" x="245.8884" y="879.708">Strip metadata requested?</text><text fill="#374151" font-family="'Casual'" font-size="11" lengthAdjust="spacing" textLength="15.279" x="218.6094" y="873.1418">yes</text><text fill="#374151" font-family="'Casual'" font-size="11" lengthAdjust="spacing" textLength="10.824" x="397.1877" y="873.1418">no</text><rect fill="#F1F1F1" height="34.1328" rx="12.5" ry="12.5" style="stroke:#181818;stroke-width:0.5;" width="115.2148" x="161.876" y="897.5508"/><text fill="#000000" font-family="sans-serif" font-size="12" lengthAdjust="spacing" textLength="95.2148" x="171.876" y="919.1523">Add strip option</text><rect fill="#F1F1F1" height="34.1328" rx="12.5" ry="12.5" style="stroke:#181818;stroke-width:0.5;" width="229.0039" x="297.0908" y="897.5508"/><text fill="#000000" font-family="sans-serif" font-size="12" lengthAdjust="spacing" textLength="209.0039" x="307.0908" y="919.1523">Keep metadata behavior unchanged</text><polygon fill="#F1F1F1" points="315.5381,937.6836,327.5381,949.6836,315.5381,961.6836,303.5381,949.6836,315.5381,937.6836" style="stroke:#181818;stroke-width:0.5;"/><rect fill="#F1F1F1" height="34.1328" rx="12.5" ry="12.5" style="stroke:#181818;stroke-width:0.5;" width="308.3984" x="161.3389" y="981.6836"/><text fill="#000000" font-family="sans-serif" font-size="12" lengthAdjust="spacing" textLength="288.3984" x="171.3389" y="1003.2852">Convert master image into temporary total image</text><polygon fill="#F1F1F1" points="230.9407,1035.8164,400.1355,1035.8164,412.1355,1047.8164,400.1355,1059.8164,230.9407,1059.8164,218.9407,1047.8164,230.9407,1035.8164" style="stroke:#181818;stroke-width:0.5;"/><text fill="#000000" font-family="sans-serif" font-size="11" lengthAdjust="spacing" textLength="169.1948" x="230.9407" y="1051.9736">Temporary total image created?</text><text fill="#374151" font-family="'Casual'" font-size="11" lengthAdjust="spacing" textLength="15.279" x="203.6617" y="1045.4074">yes</text><text fill="#374151" font-family="'Casual'" font-size="11" lengthAdjust="spacing" textLength="10.824" x="412.1355" y="1045.4074">no</text><rect fill="#F1F1F1" height="34.1328" rx="12.5" ry="12.5" style="stroke:#181818;stroke-width:0.5;" width="299.334" x="28.8784" y="1069.8164"/><text fill="#000000" font-family="sans-serif" font-size="12" lengthAdjust="spacing" textLength="279.334" x="38.8784" y="1091.418">Crop temporary total image into numbered tiles</text><rect fill="#F1F1F1" height="34.1328" rx="12.5" ry="12.5" style="stroke:#181818;stroke-width:0.5;" width="190.3203" x="83.3853" y="1123.9492"/><text fill="#000000" font-family="sans-serif" font-size="12" lengthAdjust="spacing" textLength="170.3203" x="93.3853" y="1145.5508">Delete temporary total image</text><rect fill="#F1F1F1" height="34.1328" rx="12.5" ry="12.5" style="stroke:#181818;stroke-width:0.5;" width="168.3301" x="94.3804" y="1178.082"/><text fill="#000000" font-family="sans-serif" font-size="12" lengthAdjust="spacing" textLength="148.3301" x="104.3804" y="1199.6836">Return tile creation result</text><rect fill="#F1F1F1" height="34.1328" rx="12.5" ry="12.5" style="stroke:#181818;stroke-width:0.5;" width="208.6367" x="348.2124" y="1069.8164"/><text fill="#000000" font-family="sans-serif" font-size="12" lengthAdjust="spacing" textLength="188.6367" x="358.2124" y="1091.418">Capture convert failure and stop</text><polygon fill="#F1F1F1" points="315.5381,1218.2148,327.5381,1230.2148,315.5381,1242.2148,303.5381,1230.2148,315.5381,1218.2148" style="stroke:#181818;stroke-width:0.5;"/><ellipse cx="315.5381" cy="1273.2148" fill="none" rx="11" ry="11" style="stroke:#222222;stroke-width:1;"/><ellipse cx="315.5381" cy="1273.2148" fill="#222222" rx="6" ry="6" style="stroke:#222222;stroke-width:1;"/><line style="stroke:#9B2C2C;stroke-width:1;" x1="315.5381" x2="315.5381" y1="67.4883" y2="87.4883"/><polygon fill="#9B2C2C" points="311.5381,77.4883,315.5381,87.4883,319.5381,77.4883,315.5381,81.4883" style="stroke:#9B2C2C;stroke-width:1;"/><line style="stroke:#9B2C2C;stroke-width:1;" x1="184.6416" x2="184.6416" y1="209.7539" y2="244.7539"/><polygon fill="#9B2C2C" points="180.6416,234.7539,184.6416,244.7539,188.6416,234.7539,184.6416,238.7539" style="stroke:#9B2C2C;stroke-width:1;"/><line style="stroke:#9B2C2C;stroke-width:1;" x1="446.4346" x2="446.4346" y1="257.7539" y2="292.7539"/><polygon fill="#9B2C2C" points="442.4346,282.7539,446.4346,292.7539,450.4346,282.7539,446.4346,286.7539" style="stroke:#9B2C2C;stroke-width:1;"/><line style="stroke:#9B2C2C;stroke-width:1;" x1="446.4346" x2="446.4346" y1="199.6211" y2="223.6211"/><polygon fill="#9B2C2C" points="442.4346,213.6211,446.4346,223.6211,450.4346,213.6211,446.4346,217.6211" style="stroke:#9B2C2C;stroke-width:1;"/><line style="stroke:#9B2C2C;stroke-width:1;" x1="520.9326" x2="563.6387" y1="187.6211" y2="187.6211"/><polygon fill="#9B2C2C" points="559.6387,265.1875,563.6387,275.1875,567.6387,265.1875,563.6387,269.1875" style="stroke:#9B2C2C;stroke-width:1;"/><line style="stroke:#9B2C2C;stroke-width:1;" x1="563.6387" x2="563.6387" y1="187.6211" y2="354.7539"/><line style="stroke:#9B2C2C;stroke-width:1;" x1="563.6387" x2="327.5381" y1="354.7539" y2="354.7539"/><polygon fill="#9B2C2C" points="337.5381,350.7539,327.5381,354.7539,337.5381,358.7539,333.5381,354.7539" style="stroke:#9B2C2C;stroke-width:1;"/><line style="stroke:#9B2C2C;stroke-width:1;" x1="235.8892" x2="184.6416" y1="153.6211" y2="153.6211"/><line style="stroke:#9B2C2C;stroke-width:1;" x1="184.6416" x2="184.6416" y1="153.6211" y2="175.6211"/><polygon fill="#9B2C2C" points="180.6416,165.6211,184.6416,175.6211,188.6416,165.6211,184.6416,169.6211" style="stroke:#9B2C2C;stroke-width:1;"/><line style="stroke:#9B2C2C;stroke-width:1;" x1="395.187" x2="446.4346" y1="153.6211" y2="153.6211"/><line style="stroke:#9B2C2C;stroke-width:1;" x1="446.4346" x2="446.4346" y1="153.6211" y2="175.6211"/><polygon fill="#9B2C2C" points="442.4346,165.6211,446.4346,175.6211,450.4346,165.6211,446.4346,169.6211" style="stroke:#9B2C2C;stroke-width:1;"/><line style="stroke:#9B2C2C;stroke-width:1;" x1="184.6416" x2="184.6416" y1="278.8867" y2="354.7539"/><line style="stroke:#9B2C2C;stroke-width:1;" x1="184.6416" x2="303.5381" y1="354.7539" y2="354.7539"/><polygon fill="#9B2C2C" points="293.5381,350.7539,303.5381,354.7539,293.5381,358.7539,297.5381,354.7539" style="stroke:#9B2C2C;stroke-width:1;"/><line style="stroke:#9B2C2C;stroke-width:1;" x1="315.5381" x2="315.5381" y1="121.6211" y2="141.6211"/><polygon fill="#9B2C2C" points="311.5381,131.6211,315.5381,141.6211,319.5381,131.6211,315.5381,135.6211" style="stroke:#9B2C2C;stroke-width:1;"/><line style="stroke:#9B2C2C;stroke-width:1;" x1="315.5381" x2="315.5381" y1="366.7539" y2="386.7539"/><polygon fill="#9B2C2C" points="311.5381,376.7539,315.5381,386.7539,319.5381,376.7539,315.5381,380.7539" style="stroke:#9B2C2C;stroke-width:1;"/><line style="stroke:#9B2C2C;stroke-width:1;" x1="229.1672" x2="191.6719" y1="452.8867" y2="452.8867"/><line style="stroke:#9B2C2C;stroke-width:1;" x1="191.6719" x2="191.6719" y1="452.8867" y2="474.8867"/><polygon fill="#9B2C2C" points="187.6719,464.8867,191.6719,474.8867,195.6719,464.8867,191.6719,468.8867" style="stroke:#9B2C2C;stroke-width:1;"/><line style="stroke:#9B2C2C;stroke-width:1;" x1="401.9089" x2="439.4043" y1="452.8867" y2="452.8867"/><line style="stroke:#9B2C2C;stroke-width:1;" x1="439.4043" x2="439.4043" y1="452.8867" y2="474.8867"/><polygon fill="#9B2C2C" points="435.4043,464.8867,439.4043,474.8867,443.4043,464.8867,439.4043,468.8867" style="stroke:#9B2C2C;stroke-width:1;"/><line style="stroke:#9B2C2C;stroke-width:1;" x1="191.6719" x2="191.6719" y1="523.1523" y2="541.1523"/><line style="stroke:#9B2C2C;stroke-width:1;" x1="191.6719" x2="303.5381" y1="541.1523" y2="541.1523"/><polygon fill="#9B2C2C" points="293.5381,537.1523,303.5381,541.1523,293.5381,545.1523,297.5381,541.1523" style="stroke:#9B2C2C;stroke-width:1;"/><line style="stroke:#9B2C2C;stroke-width:1;" x1="439.4043" x2="439.4043" y1="509.0195" y2="541.1523"/><line style="stroke:#9B2C2C;stroke-width:1;" x1="439.4043" x2="327.5381" y1="541.1523" y2="541.1523"/><polygon fill="#9B2C2C" points="337.5381,537.1523,327.5381,541.1523,337.5381,545.1523,333.5381,541.1523" style="stroke:#9B2C2C;stroke-width:1;"/><line style="stroke:#9B2C2C;stroke-width:1;" x1="315.5381" x2="315.5381" y1="420.8867" y2="440.8867"/><polygon fill="#9B2C2C" points="311.5381,430.8867,315.5381,440.8867,319.5381,430.8867,315.5381,434.8867" style="stroke:#9B2C2C;stroke-width:1;"/><line style="stroke:#9B2C2C;stroke-width:1;" x1="315.5381" x2="315.5381" y1="553.1523" y2="573.1523"/><polygon fill="#9B2C2C" points="311.5381,563.1523,315.5381,573.1523,319.5381,563.1523,315.5381,567.1523" style="stroke:#9B2C2C;stroke-width:1;"/><line style="stroke:#9B2C2C;stroke-width:1;" x1="216.3545" x2="206.3545" y1="639.2852" y2="639.2852"/><line style="stroke:#9B2C2C;stroke-width:1;" x1="206.3545" x2="206.3545" y1="639.2852" y2="661.2852"/><polygon fill="#9B2C2C" points="202.3545,651.2852,206.3545,661.2852,210.3545,651.2852,206.3545,655.2852" style="stroke:#9B2C2C;stroke-width:1;"/><line style="stroke:#9B2C2C;stroke-width:1;" x1="414.7217" x2="424.7217" y1="639.2852" y2="639.2852"/><line style="stroke:#9B2C2C;stroke-width:1;" x1="424.7217" x2="424.7217" y1="639.2852" y2="661.2852"/><polygon fill="#9B2C2C" points="420.7217,651.2852,424.7217,661.2852,428.7217,651.2852,424.7217,655.2852" style="stroke:#9B2C2C;stroke-width:1;"/><line style="stroke:#9B2C2C;stroke-width:1;" x1="206.3545" x2="206.3545" y1="695.418" y2="713.418"/><line style="stroke:#9B2C2C;stroke-width:1;" x1="206.3545" x2="303.5381" y1="713.418" y2="713.418"/><polygon fill="#9B2C2C" points="293.5381,709.418,303.5381,713.418,293.5381,717.418,297.5381,713.418" style="stroke:#9B2C2C;stroke-width:1;"/><line style="stroke:#9B2C2C;stroke-width:1;" x1="424.7217" x2="424.7217" y1="695.418" y2="713.418"/><line style="stroke:#9B2C2C;stroke-width:1;" x1="424.7217" x2="327.5381" y1="713.418" y2="713.418"/><polygon fill="#9B2C2C" points="337.5381,709.418,327.5381,713.418,337.5381,717.418,333.5381,713.418" style="stroke:#9B2C2C;stroke-width:1;"/><line style="stroke:#9B2C2C;stroke-width:1;" x1="315.5381" x2="315.5381" y1="607.2852" y2="627.2852"/><polygon fill="#9B2C2C" points="311.5381,617.2852,315.5381,627.2852,319.5381,617.2852,315.5381,621.2852" style="stroke:#9B2C2C;stroke-width:1;"/><line style="stroke:#9B2C2C;stroke-width:1;" x1="242.8018" x2="170.9238" y1="757.418" y2="757.418"/><line style="stroke:#9B2C2C;stroke-width:1;" x1="170.9238" x2="170.9238" y1="757.418" y2="779.418"/><polygon fill="#9B2C2C" points="166.9238,769.418,170.9238,779.418,174.9238,769.418,170.9238,773.418" style="stroke:#9B2C2C;stroke-width:1;"/><line style="stroke:#9B2C2C;stroke-width:1;" x1="388.2744" x2="460.1523" y1="757.418" y2="757.418"/><line style="stroke:#9B2C2C;stroke-width:1;" x1="460.1523" x2="460.1523" y1="757.418" y2="779.418"/><polygon fill="#9B2C2C" points="456.1523,769.418,460.1523,779.418,464.1523,769.418,460.1523,773.418" style="stroke:#9B2C2C;stroke-width:1;"/><line style="stroke:#9B2C2C;stroke-width:1;" x1="170.9238" x2="170.9238" y1="813.5508" y2="831.5508"/><line style="stroke:#9B2C2C;stroke-width:1;" x1="170.9238" x2="303.5381" y1="831.5508" y2="831.5508"/><polygon fill="#9B2C2C" points="293.5381,827.5508,303.5381,831.5508,293.5381,835.5508,297.5381,831.5508" style="stroke:#9B2C2C;stroke-width:1;"/><line style="stroke:#9B2C2C;stroke-width:1;" x1="460.1523" x2="460.1523" y1="813.5508" y2="831.5508"/><line style="stroke:#9B2C2C;stroke-width:1;" x1="460.1523" x2="327.5381" y1="831.5508" y2="831.5508"/><polygon fill="#9B2C2C" points="337.5381,827.5508,327.5381,831.5508,337.5381,835.5508,333.5381,831.5508" style="stroke:#9B2C2C;stroke-width:1;"/><line style="stroke:#9B2C2C;stroke-width:1;" x1="315.5381" x2="315.5381" y1="725.418" y2="745.418"/><polygon fill="#9B2C2C" points="311.5381,735.418,315.5381,745.418,319.5381,735.418,315.5381,739.418" style="stroke:#9B2C2C;stroke-width:1;"/><line style="stroke:#9B2C2C;stroke-width:1;" x1="233.8884" x2="219.4834" y1="875.5508" y2="875.5508"/><line style="stroke:#9B2C2C;stroke-width:1;" x1="219.4834" x2="219.4834" y1="875.5508" y2="897.5508"/><polygon fill="#9B2C2C" points="215.4834,887.5508,219.4834,897.5508,223.4834,887.5508,219.4834,891.5508" style="stroke:#9B2C2C;stroke-width:1;"/><line style="stroke:#9B2C2C;stroke-width:1;" x1="397.1877" x2="411.5928" y1="875.5508" y2="875.5508"/><line style="stroke:#9B2C2C;stroke-width:1;" x1="411.5928" x2="411.5928" y1="875.5508" y2="897.5508"/><polygon fill="#9B2C2C" points="407.5928,887.5508,411.5928,897.5508,415.5928,887.5508,411.5928,891.5508" style="stroke:#9B2C2C;stroke-width:1;"/><line style="stroke:#9B2C2C;stroke-width:1;" x1="219.4834" x2="219.4834" y1="931.6836" y2="949.6836"/><line style="stroke:#9B2C2C;stroke-width:1;" x1="219.4834" x2="303.5381" y1="949.6836" y2="949.6836"/><polygon fill="#9B2C2C" points="293.5381,945.6836,303.5381,949.6836,293.5381,953.6836,297.5381,949.6836" style="stroke:#9B2C2C;stroke-width:1;"/><line style="stroke:#9B2C2C;stroke-width:1;" x1="411.5928" x2="411.5928" y1="931.6836" y2="949.6836"/><line style="stroke:#9B2C2C;stroke-width:1;" x1="411.5928" x2="327.5381" y1="949.6836" y2="949.6836"/><polygon fill="#9B2C2C" points="337.5381,945.6836,327.5381,949.6836,337.5381,953.6836,333.5381,949.6836" style="stroke:#9B2C2C;stroke-width:1;"/><line style="stroke:#9B2C2C;stroke-width:1;" x1="315.5381" x2="315.5381" y1="843.5508" y2="863.5508"/><polygon fill="#9B2C2C" points="311.5381,853.5508,315.5381,863.5508,319.5381,853.5508,315.5381,857.5508" style="stroke:#9B2C2C;stroke-width:1;"/><line style="stroke:#9B2C2C;stroke-width:1;" x1="315.5381" x2="315.5381" y1="961.6836" y2="981.6836"/><polygon fill="#9B2C2C" points="311.5381,971.6836,315.5381,981.6836,319.5381,971.6836,315.5381,975.6836" style="stroke:#9B2C2C;stroke-width:1;"/><line style="stroke:#9B2C2C;stroke-width:1;" x1="178.5454" x2="178.5454" y1="1103.9492" y2="1123.9492"/><polygon fill="#9B2C2C" points="174.5454,1113.9492,178.5454,1123.9492,182.5454,1113.9492,178.5454,1117.9492" style="stroke:#9B2C2C;stroke-width:1;"/><line style="stroke:#9B2C2C;stroke-width:1;" x1="178.5454" x2="178.5454" y1="1158.082" y2="1178.082"/><polygon fill="#9B2C2C" points="174.5454,1168.082,178.5454,1178.082,182.5454,1168.082,178.5454,1172.082" style="stroke:#9B2C2C;stroke-width:1;"/><line style="stroke:#9B2C2C;stroke-width:1;" x1="218.9407" x2="178.5454" y1="1047.8164" y2="1047.8164"/><line style="stroke:#9B2C2C;stroke-width:1;" x1="178.5454" x2="178.5454" y1="1047.8164" y2="1069.8164"/><polygon fill="#9B2C2C" points="174.5454,1059.8164,178.5454,1069.8164,182.5454,1059.8164,178.5454,1063.8164" style="stroke:#9B2C2C;stroke-width:1;"/><line style="stroke:#9B2C2C;stroke-width:1;" x1="412.1355" x2="452.5308" y1="1047.8164" y2="1047.8164"/><line style="stroke:#9B2C2C;stroke-width:1;" x1="452.5308" x2="452.5308" y1="1047.8164" y2="1069.8164"/><polygon fill="#9B2C2C" points="448.5308,1059.8164,452.5308,1069.8164,456.5308,1059.8164,452.5308,1063.8164" style="stroke:#9B2C2C;stroke-width:1;"/><line style="stroke:#9B2C2C;stroke-width:1;" x1="178.5454" x2="178.5454" y1="1212.2148" y2="1230.2148"/><line style="stroke:#9B2C2C;stroke-width:1;" x1="178.5454" x2="303.5381" y1="1230.2148" y2="1230.2148"/><polygon fill="#9B2C2C" points="293.5381,1226.2148,303.5381,1230.2148,293.5381,1234.2148,297.5381,1230.2148" style="stroke:#9B2C2C;stroke-width:1;"/><line style="stroke:#9B2C2C;stroke-width:1;" x1="452.5308" x2="452.5308" y1="1103.9492" y2="1230.2148"/><line style="stroke:#9B2C2C;stroke-width:1;" x1="452.5308" x2="327.5381" y1="1230.2148" y2="1230.2148"/><polygon fill="#9B2C2C" points="337.5381,1226.2148,327.5381,1230.2148,337.5381,1234.2148,333.5381,1230.2148" style="stroke:#9B2C2C;stroke-width:1;"/><line style="stroke:#9B2C2C;stroke-width:1;" x1="315.5381" x2="315.5381" y1="1015.8164" y2="1035.8164"/><polygon fill="#9B2C2C" points="311.5381,1025.8164,315.5381,1035.8164,319.5381,1025.8164,315.5381,1029.8164" style="stroke:#9B2C2C;stroke-width:1;"/><line style="stroke:#9B2C2C;stroke-width:1;" x1="315.5381" x2="315.5381" y1="1242.2148" y2="1262.2148"/><polygon fill="#9B2C2C" points="311.5381,1252.2148,315.5381,1262.2148,319.5381,1252.2148,315.5381,1256.2148" style="stroke:#9B2C2C;stroke-width:1;"/><?plantuml-src XLHDRzD043t7ls9K3hG7Mle14Sa1jQagLKWSsW8NBXFlE1xLtZMxuvZmwvcrtSH9ZRWasPstyzwRZxo5x-G3Epk3ozFfwJG9psmhz5Z24jFdbNUrDGjNE0zDpaA3UCZHk8Rj2Z8imZ1Ii2NPL0JEI-u6WLl6bNxVEIjViIGuMc2eiJWQXppo7uBBZuFWLoTqSo3hJPPbK_CAvRmXtoFCrVBy_H1nxRrh-k2dvKLwaHu68tyFk9nUdNyu7mFiUqY4fI1uGBulSKNmn7fQU4BHyi8Fvv-pmZL94WIz9CdiWLBYDK69GSW3ju_G6f3uC928rZRCauGpEBwbWeI0VdE8roqcGCO-oESJa9mi76yed2IJsHrhZZsWuYAwH4dpU5UXAAETAtWqxpmXRIWSMwVv8ljTvEbIOQ6EpAPx4Gwu9sfAQcyXr6bA8K33EW2rWAK66gs0Kaw2k2gP31Z86iwIxZEPtHkomjbclov1Pw4lnGF50nWkoSR9LMCSWee_BCG2YxGkKEtvxad3Hd8uWvnubSjFctbNTgugxoeTrZPRRC6GTA1qzYsqs3KRCkDPvriZjrfON-egW3Z10hGEbPOYHRl6C3IqsDsegopJXOHMMbU1GritDHTRyZD0WvNe7BthRrpLsjZN_OMeqcta5LjLqllgT4O5ZpdwYcmS04-_Qb9QSqXxRKnS-OWRikwkQjl-7XUmq7LXMzDs8bxUxT03EUAvWf94MGJ_8wd5Tbb6F6-JB2d7DUi-rpRDqQx8x3gbujRaPN_Ys8e3eLBd0lscxs4RwjlsD1Q3D2xyQwaB7R3nR1sHhSibUJ8l2xZTp7yes6vQExxfox-Cpa1To47fjLErLr3lCaCkuZdEUTp5RHtQnVmB?></g></svg>