<svg xmlns="http://www.w3.org/2000/svg" xmlns:xlink="http://www.w3.org/1999/xlink" contentStyleType="text/css" data-diagram-type="ACTIVITY" height="1309px" preserveAspectRatio="none" style="width:603px;height:1309px;background:#FFFFFF;" version="1.1" viewBox="0 0 603 1309" width="603px" zoomAndPan="magnify"><?plantuml 1.2026.5?><defs/><g><g class="title" data-source-line="13"><text fill="#000000" font-family="sans-serif" font-size="14" font-weight="700" lengthAdjust="spacing" textLength="236.4688" x="182.585" y="33.5352">RaiImage Tile Creation Workflow</text></g><ellipse cx="320.5381" cy="62.4883" fill="#222222" rx="10" ry="10" style="stroke:#222222;stroke-width:1;"/><rect fill="#F1F1F1" height="34.1328" rx="12.5" ry="12.5" style="stroke:#181818;stroke-width:0.5;" width="243.9863" x="198.5449" y="92.4883"/><text fill="#000000" font-family="sans-serif" font-size="12" lengthAdjust="spacing" textLength="223.9863" x="208.5449" y="114.0898">Receive master image and tile settings</text><polygon fill="#F1F1F1" points="252.8892,146.6211,388.187,146.6211,400.187,158.6211,388.187,170.6211,252.8892,170.6211,240.8892,158.6211,252.8892,146.6211" style="stroke:#181818;stroke-width:0.5;stroke-linejoin:miter;stroke-miterlimit:10;"/><text fill="#000000" font-family="sans-serif" font-size="11" lengthAdjust="spacing" textLength="135.2979" x="252.8892" y="162.7783">Delete existing tiles first?</text><text fill="#374151" font-family="'Casual'" font-size="11" lengthAdjust="spacing" textLength="17.4829" x="223.4063" y="156.3008">yes</text><text fill="#374151" font-family="'Casual'" font-size="11" lengthAdjust="spacing" textLength="13.5835" x="400.187" y="156.3008">no</text><rect fill="#F1F1F1" height="34.1328" rx="12.5" ry="12.5" style="stroke:#181818;stroke-width:0.5;" width="249.1777" x="65.0527" y="180.6211"/><text fill="#000000" font-family="sans-serif" font-size="12" lengthAdjust="spacing" textLength="229.1777" x="75.0527" y="202.2227">Find existing tile files matching pattern</text><rect fill="#F1F1F1" height="34.1328" rx="12.5" ry="12.5" style="stroke:#181818;stroke-width:0.5;" width="135.3418" x="121.9707" y="249.7539"/><text fill="#000000" font-family="sans-serif" font-size="12" lengthAdjust="spacing" textLength="115.3418" x="131.9707" y="271.3555">Delete existing tiles</text><rect fill="#F1F1F1" height="34.1328" rx="12.5" ry="12.5" style="stroke:#181818;stroke-width:0.5;" width="214.4082" x="344.2305" y="229.0986"/><text fill="#000000" font-family="sans-serif" font-size="12" lengthAdjust="spacing" textLength="194.4082" x="354.2305" y="250.7002">Return success without new work</text><ellipse cx="451.4346" cy="309.2314" fill="none" rx="11" ry="11" style="stroke:#222222;stroke-width:1;"/><ellipse cx="451.4346" cy="309.2314" fill="#222222" rx="6" ry="6" style="stroke:#222222;stroke-width:1;"/><polygon fill="#F1F1F1" points="388.9365,180.6211,513.9326,180.6211,525.9326,192.6211,513.9326,204.6211,388.9365,204.6211,376.9365,192.6211,388.9365,180.6211" style="stroke:#181818;stroke-width:0.5;stroke-linejoin:miter;stroke-miterlimit:10;"/><text fill="#374151" font-family="'Casual'" font-size="11" lengthAdjust="spacing" textLength="17.4829" x="455.4346" y="215.2559">yes</text><text fill="#000000" font-family="sans-serif" font-size="11" lengthAdjust="spacing" textLength="124.9961" x="388.9365" y="196.7783">First tile already exists?</text><text fill="#374151" font-family="'Casual'" font-size="11" lengthAdjust="spacing" textLength="13.5835" x="525.9326" y="190.3008">no</text><polygon fill="#F1F1F1" points="320.5381,348.2314,332.5381,360.2314,320.5381,372.2314,308.5381,360.2314,320.5381,348.2314" style="stroke:#181818;stroke-width:0.5;stroke-linejoin:miter;stroke-miterlimit:10;"/><rect fill="#F1F1F1" height="34.1328" rx="12.5" ry="12.5" style="stroke:#181818;stroke-width:0.5;" width="173.8203" x="233.6279" y="392.2314"/><text fill="#000000" font-family="sans-serif" font-size="12" lengthAdjust="spacing" textLength="153.8203" x="243.6279" y="413.833">Identify master image size</text><polygon fill="#F1F1F1" points="246.1672,446.3643,394.9089,446.3643,406.9089,458.3643,394.9089,470.3643,246.1672,470.3643,234.1672,458.3643,246.1672,446.3643" style="stroke:#181818;stroke-width:0.5;stroke-linejoin:miter;stroke-miterlimit:10;"/><text fill="#000000" font-family="sans-serif" font-size="11" lengthAdjust="spacing" textLength="148.7417" x="246.1672" y="462.5215">Resize dimensions missing?</text><text fill="#374151" font-family="'Casual'" font-size="11" lengthAdjust="spacing" textLength="17.4829" x="216.6843" y="456.0439">yes</text><text fill="#374151" font-family="'Casual'" font-size="11" lengthAdjust="spacing" textLength="13.5835" x="406.9089" y="456.0439">no</text><rect fill="#F1F1F1" height="48.2656" rx="12.5" ry="12.5" style="stroke:#181818;stroke-width:0.5;" width="233.7969" x="79.7734" y="480.3643"/><text fill="#000000" font-family="sans-serif" font-size="12" lengthAdjust="spacing" textLength="178.7109" x="89.7734" y="501.9658">Calculate resize width / height</text><text fill="#000000" font-family="sans-serif" font-size="12" lengthAdjust="spacing" textLength="213.7969" x="89.7734" y="516.0986">from tile proportions and image size</text><rect fill="#F1F1F1" height="34.1328" rx="12.5" ry="12.5" style="stroke:#181818;stroke-width:0.5;" width="221.668" x="333.5703" y="480.3643"/><text fill="#000000" font-family="sans-serif" font-size="12" lengthAdjust="spacing" textLength="201.668" x="343.5703" y="501.9658">Use provided resize width / height</text><polygon fill="#F1F1F1" points="320.5381,534.6299,332.5381,546.6299,320.5381,558.6299,308.5381,546.6299,320.5381,534.6299" style="stroke:#181818;stroke-width:0.5;stroke-linejoin:miter;stroke-miterlimit:10;"/><rect fill="#F1F1F1" height="34.1328" rx="12.5" ry="12.5" style="stroke:#181818;stroke-width:0.5;" width="223.3145" x="208.8809" y="578.6299"/><text fill="#000000" font-family="sans-serif" font-size="12" lengthAdjust="spacing" textLength="203.3145" x="218.8809" y="600.2314">Determine total output canvas size</text><polygon fill="#F1F1F1" points="233.3545,632.7627,407.7217,632.7627,419.7217,644.7627,407.7217,656.7627,233.3545,656.7627,221.3545,644.7627,233.3545,632.7627" style="stroke:#181818;stroke-width:0.5;stroke-linejoin:miter;stroke-miterlimit:10;"/><text fill="#000000" font-family="sans-serif" font-size="11" lengthAdjust="spacing" textLength="174.3672" x="233.3545" y="648.9199">Canvas size differs from master?</text><text fill="#374151" font-family="'Casual'" font-size="11" lengthAdjust="spacing" textLength="17.4829" x="203.8716" y="642.4424">yes</text><text fill="#374151" font-family="'Casual'" font-size="11" lengthAdjust="spacing" textLength="13.5835" x="419.7217" y="642.4424">no</text><rect fill="#F1F1F1" height="34.1328" rx="12.5" ry="12.5" style="stroke:#181818;stroke-width:0.5;" width="239.7852" x="91.4619" y="666.7627"/><text fill="#000000" font-family="sans-serif" font-size="12" lengthAdjust="spacing" textLength="219.7852" x="101.4619" y="688.3643">Build resize / adaptive-resize options</text><rect fill="#F1F1F1" height="34.1328" rx="12.5" ry="12.5" style="stroke:#181818;stroke-width:0.5;" width="123.7461" x="367.8486" y="666.7627"/><text fill="#000000" font-family="sans-serif" font-size="12" lengthAdjust="spacing" textLength="103.7461" x="377.8486" y="688.3643">Keep original size</text><polygon fill="#F1F1F1" points="320.5381,706.8955,332.5381,718.8955,320.5381,730.8955,308.5381,718.8955,320.5381,706.8955" style="stroke:#181818;stroke-width:0.5;stroke-linejoin:miter;stroke-miterlimit:10;"/><polygon fill="#F1F1F1" points="259.8018,750.8955,381.2744,750.8955,393.2744,762.8955,381.2744,774.8955,259.8018,774.8955,247.8018,762.8955,259.8018,750.8955" style="stroke:#181818;stroke-width:0.5;stroke-linejoin:miter;stroke-miterlimit:10;"/><text fill="#000000" font-family="sans-serif" font-size="11" lengthAdjust="spacing" textLength="121.4727" x="259.8018" y="767.0527">Sharpening requested?</text><text fill="#374151" font-family="'Casual'" font-size="11" lengthAdjust="spacing" textLength="17.4829" x="230.3188" y="760.5752">yes</text><text fill="#374151" font-family="'Casual'" font-size="11" lengthAdjust="spacing" textLength="13.5835" x="393.2744" y="760.5752">no</text><rect fill="#F1F1F1" height="34.1328" rx="12.5" ry="12.5" style="stroke:#181818;stroke-width:0.5;" width="319.8477" x="16" y="784.8955"/><text fill="#000000" font-family="sans-serif" font-size="12" lengthAdjust="spacing" textLength="299.8477" x="26" y="806.4971">Add sharpen / adaptive-sharpen / unsharp options</text><rect fill="#F1F1F1" height="34.1328" rx="12.5" ry="12.5" style="stroke:#181818;stroke-width:0.5;" width="218.6094" x="355.8477" y="784.8955"/><text fill="#000000" font-family="sans-serif" font-size="12" lengthAdjust="spacing" textLength="198.6094" x="365.8477" y="806.4971">Continue without sharpen options</text><polygon fill="#F1F1F1" points="320.5381,825.0283,332.5381,837.0283,320.5381,849.0283,308.5381,837.0283,320.5381,825.0283" style="stroke:#181818;stroke-width:0.5;stroke-linejoin:miter;stroke-miterlimit:10;"/><polygon fill="#F1F1F1" points="250.8884,869.0283,390.1877,869.0283,402.1877,881.0283,390.1877,893.0283,250.8884,893.0283,238.8884,881.0283,250.8884,869.0283" style="stroke:#181818;stroke-width:0.5;stroke-linejoin:miter;stroke-miterlimit:10;"/><text fill="#000000" font-family="sans-serif" font-size="11" lengthAdjust="spacing" textLength="139.2993" x="250.8884" y="885.1855">Strip metadata requested?</text><text fill="#374151" font-family="'Casual'" font-size="11" lengthAdjust="spacing" textLength="17.4829" x="221.4055" y="878.708">yes</text><text fill="#374151" font-family="'Casual'" font-size="11" lengthAdjust="spacing" textLength="13.5835" x="402.1877" y="878.708">no</text><rect fill="#F1F1F1" height="34.1328" rx="12.5" ry="12.5" style="stroke:#181818;stroke-width:0.5;" width="115.2148" x="166.876" y="903.0283"/><text fill="#000000" font-family="sans-serif" font-size="12" lengthAdjust="spacing" textLength="95.2148" x="176.876" y="924.6299">Add strip option</text><rect fill="#F1F1F1" height="34.1328" rx="12.5" ry="12.5" style="stroke:#181818;stroke-width:0.5;" width="229.0039" x="302.0908" y="903.0283"/><text fill="#000000" font-family="sans-serif" font-size="12" lengthAdjust="spacing" textLength="209.0039" x="312.0908" y="924.6299">Keep metadata behavior unchanged</text><polygon fill="#F1F1F1" points="320.5381,943.1611,332.5381,955.1611,320.5381,967.1611,308.5381,955.1611,320.5381,943.1611" style="stroke:#181818;stroke-width:0.5;stroke-linejoin:miter;stroke-miterlimit:10;"/><rect fill="#F1F1F1" height="34.1328" rx="12.5" ry="12.5" style="stroke:#181818;stroke-width:0.5;" width="308.3984" x="166.3389" y="987.1611"/><text fill="#000000" font-family="sans-serif" font-size="12" lengthAdjust="spacing" textLength="288.3984" x="176.3389" y="1008.7627">Convert master image into temporary total image</text><polygon fill="#F1F1F1" points="235.9407,1041.2939,405.1355,1041.2939,417.1355,1053.2939,405.1355,1065.2939,235.9407,1065.2939,223.9407,1053.2939,235.9407,1041.2939" style="stroke:#181818;stroke-width:0.5;stroke-linejoin:miter;stroke-miterlimit:10;"/><text fill="#000000" font-family="sans-serif" font-size="11" lengthAdjust="spacing" textLength="169.1948" x="235.9407" y="1057.4512">Temporary total image created?</text><text fill="#374151" font-family="'Casual'" font-size="11" lengthAdjust="spacing" textLength="17.4829" x="206.4578" y="1050.9736">yes</text><text fill="#374151" font-family="'Casual'" font-size="11" lengthAdjust="spacing" textLength="13.5835" x="417.1355" y="1050.9736">no</text><rect fill="#F1F1F1" height="34.1328" rx="12.5" ry="12.5" style="stroke:#181818;stroke-width:0.5;" width="299.334" x="33.8784" y="1075.2939"/><text fill="#000000" font-family="sans-serif" font-size="12" lengthAdjust="spacing" textLength="279.334" x="43.8784" y="1096.8955">Crop temporary total image into numbered tiles</text><rect fill="#F1F1F1" height="34.1328" rx="12.5" ry="12.5" style="stroke:#181818;stroke-width:0.5;" width="190.3203" x="88.3853" y="1129.4268"/><text fill="#000000" font-family="sans-serif" font-size="12" lengthAdjust="spacing" textLength="170.3203" x="98.3853" y="1151.0283">Delete temporary total image</text><rect fill="#F1F1F1" height="34.1328" rx="12.5" ry="12.5" style="stroke:#181818;stroke-width:0.5;" width="168.3301" x="99.3804" y="1183.5596"/><text fill="#000000" font-family="sans-serif" font-size="12" lengthAdjust="spacing" textLength="148.3301" x="109.3804" y="1205.1611">Return tile creation result</text><rect fill="#F1F1F1" height="34.1328" rx="12.5" ry="12.5" style="stroke:#181818;stroke-width:0.5;" width="208.6367" x="353.2124" y="1075.2939"/><text fill="#000000" font-family="sans-serif" font-size="12" lengthAdjust="spacing" textLength="188.6367" x="363.2124" y="1096.8955">Capture convert failure and stop</text><polygon fill="#F1F1F1" points="320.5381,1223.6924,332.5381,1235.6924,320.5381,1247.6924,308.5381,1235.6924,320.5381,1223.6924" style="stroke:#181818;stroke-width:0.5;stroke-linejoin:miter;stroke-miterlimit:10;"/><ellipse cx="320.5381" cy="1278.6924" fill="none" rx="11" ry="11" style="stroke:#222222;stroke-width:1;"/><ellipse cx="320.5381" cy="1278.6924" fill="#222222" rx="6" ry="6" style="stroke:#222222;stroke-width:1;"/><line style="stroke:#9B2C2C;stroke-width:1;" x1="320.5381" x2="320.5381" y1="72.4883" y2="92.4883"/><polygon fill="#9B2C2C" points="316.5381,82.4883,320.5381,92.4883,324.5381,82.4883,320.5381,86.4883" style="stroke:#9B2C2C;stroke-width:1;stroke-linejoin:miter;stroke-miterlimit:10;"/><line style="stroke:#9B2C2C;stroke-width:1;" x1="189.6416" x2="189.6416" y1="214.7539" y2="249.7539"/><polygon fill="#9B2C2C" points="185.6416,239.7539,189.6416,249.7539,193.6416,239.7539,189.6416,243.7539" style="stroke:#9B2C2C;stroke-width:1;stroke-linejoin:miter;stroke-miterlimit:10;"/><line style="stroke:#9B2C2C;stroke-width:1;" x1="451.4346" x2="451.4346" y1="263.2314" y2="298.2314"/><polygon fill="#9B2C2C" points="447.4346,288.2314,451.4346,298.2314,455.4346,288.2314,451.4346,292.2314" style="stroke:#9B2C2C;stroke-width:1;stroke-linejoin:miter;stroke-miterlimit:10;"/><line style="stroke:#9B2C2C;stroke-width:1;" x1="451.4346" x2="451.4346" y1="204.6211" y2="229.0986"/><polygon fill="#9B2C2C" points="447.4346,219.0986,451.4346,229.0986,455.4346,219.0986,451.4346,223.0986" style="stroke:#9B2C2C;stroke-width:1;stroke-linejoin:miter;stroke-miterlimit:10;"/><line style="stroke:#9B2C2C;stroke-width:1;" x1="525.9326" x2="568.6387" y1="192.6211" y2="192.6211"/><polygon fill="#9B2C2C" points="564.6387,270.665,568.6387,280.665,572.6387,270.665,568.6387,274.665" style="stroke:#9B2C2C;stroke-width:1;stroke-linejoin:miter;stroke-miterlimit:10;"/><line style="stroke:#9B2C2C;stroke-width:1;" x1="568.6387" x2="568.6387" y1="192.6211" y2="360.2314"/><line style="stroke:#9B2C2C;stroke-width:1;" x1="568.6387" x2="332.5381" y1="360.2314" y2="360.2314"/><polygon fill="#9B2C2C" points="342.5381,356.2314,332.5381,360.2314,342.5381,364.2314,338.5381,360.2314" style="stroke:#9B2C2C;stroke-width:1;stroke-linejoin:miter;stroke-miterlimit:10;"/><line style="stroke:#9B2C2C;stroke-width:1;" x1="240.8892" x2="189.6416" y1="158.6211" y2="158.6211"/><line style="stroke:#9B2C2C;stroke-width:1;" x1="189.6416" x2="189.6416" y1="158.6211" y2="180.6211"/><polygon fill="#9B2C2C" points="185.6416,170.6211,189.6416,180.6211,193.6416,170.6211,189.6416,174.6211" style="stroke:#9B2C2C;stroke-width:1;stroke-linejoin:miter;stroke-miterlimit:10;"/><line style="stroke:#9B2C2C;stroke-width:1;" x1="400.187" x2="451.4346" y1="158.6211" y2="158.6211"/><line style="stroke:#9B2C2C;stroke-width:1;" x1="451.4346" x2="451.4346" y1="158.6211" y2="180.6211"/><polygon fill="#9B2C2C" points="447.4346,170.6211,451.4346,180.6211,455.4346,170.6211,451.4346,174.6211" style="stroke:#9B2C2C;stroke-width:1;stroke-linejoin:miter;stroke-miterlimit:10;"/><line style="stroke:#9B2C2C;stroke-width:1;" x1="189.6416" x2="189.6416" y1="283.8867" y2="360.2314"/><line style="stroke:#9B2C2C;stroke-width:1;" x1="189.6416" x2="308.5381" y1="360.2314" y2="360.2314"/><polygon fill="#9B2C2C" points="298.5381,356.2314,308.5381,360.2314,298.5381,364.2314,302.5381,360.2314" style="stroke:#9B2C2C;stroke-width:1;stroke-linejoin:miter;stroke-miterlimit:10;"/><line style="stroke:#9B2C2C;stroke-width:1;" x1="320.5381" x2="320.5381" y1="126.6211" y2="146.6211"/><polygon fill="#9B2C2C" points="316.5381,136.6211,320.5381,146.6211,324.5381,136.6211,320.5381,140.6211" style="stroke:#9B2C2C;stroke-width:1;stroke-linejoin:miter;stroke-miterlimit:10;"/><line style="stroke:#9B2C2C;stroke-width:1;" x1="320.5381" x2="320.5381" y1="372.2314" y2="392.2314"/><polygon fill="#9B2C2C" points="316.5381,382.2314,320.5381,392.2314,324.5381,382.2314,320.5381,386.2314" style="stroke:#9B2C2C;stroke-width:1;stroke-linejoin:miter;stroke-miterlimit:10;"/><line style="stroke:#9B2C2C;stroke-width:1;" x1="234.1672" x2="196.6719" y1="458.3643" y2="458.3643"/><line style="stroke:#9B2C2C;stroke-width:1;" x1="196.6719" x2="196.6719" y1="458.3643" y2="480.3643"/><polygon fill="#9B2C2C" points="192.6719,470.3643,196.6719,480.3643,200.6719,470.3643,196.6719,474.3643" style="stroke:#9B2C2C;stroke-width:1;stroke-linejoin:miter;stroke-miterlimit:10;"/><line style="stroke:#9B2C2C;stroke-width:1;" x1="406.9089" x2="444.4043" y1="458.3643" y2="458.3643"/><line style="stroke:#9B2C2C;stroke-width:1;" x1="444.4043" x2="444.4043" y1="458.3643" y2="480.3643"/><polygon fill="#9B2C2C" points="440.4043,470.3643,444.4043,480.3643,448.4043,470.3643,444.4043,474.3643" style="stroke:#9B2C2C;stroke-width:1;stroke-linejoin:miter;stroke-miterlimit:10;"/><line style="stroke:#9B2C2C;stroke-width:1;" x1="196.6719" x2="196.6719" y1="528.6299" y2="546.6299"/><line style="stroke:#9B2C2C;stroke-width:1;" x1="196.6719" x2="308.5381" y1="546.6299" y2="546.6299"/><polygon fill="#9B2C2C" points="298.5381,542.6299,308.5381,546.6299,298.5381,550.6299,302.5381,546.6299" style="stroke:#9B2C2C;stroke-width:1;stroke-linejoin:miter;stroke-miterlimit:10;"/><line style="stroke:#9B2C2C;stroke-width:1;" x1="444.4043" x2="444.4043" y1="514.4971" y2="546.6299"/><line style="stroke:#9B2C2C;stroke-width:1;" x1="444.4043" x2="332.5381" y1="546.6299" y2="546.6299"/><polygon fill="#9B2C2C" points="342.5381,542.6299,332.5381,546.6299,342.5381,550.6299,338.5381,546.6299" style="stroke:#9B2C2C;stroke-width:1;stroke-linejoin:miter;stroke-miterlimit:10;"/><line style="stroke:#9B2C2C;stroke-width:1;" x1="320.5381" x2="320.5381" y1="426.3643" y2="446.3643"/><polygon fill="#9B2C2C" points="316.5381,436.3643,320.5381,446.3643,324.5381,436.3643,320.5381,440.3643" style="stroke:#9B2C2C;stroke-width:1;stroke-linejoin:miter;stroke-miterlimit:10;"/><line style="stroke:#9B2C2C;stroke-width:1;" x1="320.5381" x2="320.5381" y1="558.6299" y2="578.6299"/><polygon fill="#9B2C2C" points="316.5381,568.6299,320.5381,578.6299,324.5381,568.6299,320.5381,572.6299" style="stroke:#9B2C2C;stroke-width:1;stroke-linejoin:miter;stroke-miterlimit:10;"/><line style="stroke:#9B2C2C;stroke-width:1;" x1="221.3545" x2="211.3545" y1="644.7627" y2="644.7627"/><line style="stroke:#9B2C2C;stroke-width:1;" x1="211.3545" x2="211.3545" y1="644.7627" y2="666.7627"/><polygon fill="#9B2C2C" points="207.3545,656.7627,211.3545,666.7627,215.3545,656.7627,211.3545,660.7627" style="stroke:#9B2C2C;stroke-width:1;stroke-linejoin:miter;stroke-miterlimit:10;"/><line style="stroke:#9B2C2C;stroke-width:1;" x1="419.7217" x2="429.7217" y1="644.7627" y2="644.7627"/><line style="stroke:#9B2C2C;stroke-width:1;" x1="429.7217" x2="429.7217" y1="644.7627" y2="666.7627"/><polygon fill="#9B2C2C" points="425.7217,656.7627,429.7217,666.7627,433.7217,656.7627,429.7217,660.7627" style="stroke:#9B2C2C;stroke-width:1;stroke-linejoin:miter;stroke-miterlimit:10;"/><line style="stroke:#9B2C2C;stroke-width:1;" x1="211.3545" x2="211.3545" y1="700.8955" y2="718.8955"/><line style="stroke:#9B2C2C;stroke-width:1;" x1="211.3545" x2="308.5381" y1="718.8955" y2="718.8955"/><polygon fill="#9B2C2C" points="298.5381,714.8955,308.5381,718.8955,298.5381,722.8955,302.5381,718.8955" style="stroke:#9B2C2C;stroke-width:1;stroke-linejoin:miter;stroke-miterlimit:10;"/><line style="stroke:#9B2C2C;stroke-width:1;" x1="429.7217" x2="429.7217" y1="700.8955" y2="718.8955"/><line style="stroke:#9B2C2C;stroke-width:1;" x1="429.7217" x2="332.5381" y1="718.8955" y2="718.8955"/><polygon fill="#9B2C2C" points="342.5381,714.8955,332.5381,718.8955,342.5381,722.8955,338.5381,718.8955" style="stroke:#9B2C2C;stroke-width:1;stroke-linejoin:miter;stroke-miterlimit:10;"/><line style="stroke:#9B2C2C;stroke-width:1;" x1="320.5381" x2="320.5381" y1="612.7627" y2="632.7627"/><polygon fill="#9B2C2C" points="316.5381,622.7627,320.5381,632.7627,324.5381,622.7627,320.5381,626.7627" style="stroke:#9B2C2C;stroke-width:1;stroke-linejoin:miter;stroke-miterlimit:10;"/><line style="stroke:#9B2C2C;stroke-width:1;" x1="247.8018" x2="175.9238" y1="762.8955" y2="762.8955"/><line style="stroke:#9B2C2C;stroke-width:1;" x1="175.9238" x2="175.9238" y1="762.8955" y2="784.8955"/><polygon fill="#9B2C2C" points="171.9238,774.8955,175.9238,784.8955,179.9238,774.8955,175.9238,778.8955" style="stroke:#9B2C2C;stroke-width:1;stroke-linejoin:miter;stroke-miterlimit:10;"/><line style="stroke:#9B2C2C;stroke-width:1;" x1="393.2744" x2="465.1523" y1="762.8955" y2="762.8955"/><line style="stroke:#9B2C2C;stroke-width:1;" x1="465.1523" x2="465.1523" y1="762.8955" y2="784.8955"/><polygon fill="#9B2C2C" points="461.1523,774.8955,465.1523,784.8955,469.1523,774.8955,465.1523,778.8955" style="stroke:#9B2C2C;stroke-width:1;stroke-linejoin:miter;stroke-miterlimit:10;"/><line style="stroke:#9B2C2C;stroke-width:1;" x1="175.9238" x2="175.9238" y1="819.0283" y2="837.0283"/><line style="stroke:#9B2C2C;stroke-width:1;" x1="175.9238" x2="308.5381" y1="837.0283" y2="837.0283"/><polygon fill="#9B2C2C" points="298.5381,833.0283,308.5381,837.0283,298.5381,841.0283,302.5381,837.0283" style="stroke:#9B2C2C;stroke-width:1;stroke-linejoin:miter;stroke-miterlimit:10;"/><line style="stroke:#9B2C2C;stroke-width:1;" x1="465.1523" x2="465.1523" y1="819.0283" y2="837.0283"/><line style="stroke:#9B2C2C;stroke-width:1;" x1="465.1523" x2="332.5381" y1="837.0283" y2="837.0283"/><polygon fill="#9B2C2C" points="342.5381,833.0283,332.5381,837.0283,342.5381,841.0283,338.5381,837.0283" style="stroke:#9B2C2C;stroke-width:1;stroke-linejoin:miter;stroke-miterlimit:10;"/><line style="stroke:#9B2C2C;stroke-width:1;" x1="320.5381" x2="320.5381" y1="730.8955" y2="750.8955"/><polygon fill="#9B2C2C" points="316.5381,740.8955,320.5381,750.8955,324.5381,740.8955,320.5381,744.8955" style="stroke:#9B2C2C;stroke-width:1;stroke-linejoin:miter;stroke-miterlimit:10;"/><line style="stroke:#9B2C2C;stroke-width:1;" x1="238.8884" x2="224.4834" y1="881.0283" y2="881.0283"/><line style="stroke:#9B2C2C;stroke-width:1;" x1="224.4834" x2="224.4834" y1="881.0283" y2="903.0283"/><polygon fill="#9B2C2C" points="220.4834,893.0283,224.4834,903.0283,228.4834,893.0283,224.4834,897.0283" style="stroke:#9B2C2C;stroke-width:1;stroke-linejoin:miter;stroke-miterlimit:10;"/><line style="stroke:#9B2C2C;stroke-width:1;" x1="402.1877" x2="416.5928" y1="881.0283" y2="881.0283"/><line style="stroke:#9B2C2C;stroke-width:1;" x1="416.5928" x2="416.5928" y1="881.0283" y2="903.0283"/><polygon fill="#9B2C2C" points="412.5928,893.0283,416.5928,903.0283,420.5928,893.0283,416.5928,897.0283" style="stroke:#9B2C2C;stroke-width:1;stroke-linejoin:miter;stroke-miterlimit:10;"/><line style="stroke:#9B2C2C;stroke-width:1;" x1="224.4834" x2="224.4834" y1="937.1611" y2="955.1611"/><line style="stroke:#9B2C2C;stroke-width:1;" x1="224.4834" x2="308.5381" y1="955.1611" y2="955.1611"/><polygon fill="#9B2C2C" points="298.5381,951.1611,308.5381,955.1611,298.5381,959.1611,302.5381,955.1611" style="stroke:#9B2C2C;stroke-width:1;stroke-linejoin:miter;stroke-miterlimit:10;"/><line style="stroke:#9B2C2C;stroke-width:1;" x1="416.5928" x2="416.5928" y1="937.1611" y2="955.1611"/><line style="stroke:#9B2C2C;stroke-width:1;" x1="416.5928" x2="332.5381" y1="955.1611" y2="955.1611"/><polygon fill="#9B2C2C" points="342.5381,951.1611,332.5381,955.1611,342.5381,959.1611,338.5381,955.1611" style="stroke:#9B2C2C;stroke-width:1;stroke-linejoin:miter;stroke-miterlimit:10;"/><line style="stroke:#9B2C2C;stroke-width:1;" x1="320.5381" x2="320.5381" y1="849.0283" y2="869.0283"/><polygon fill="#9B2C2C" points="316.5381,859.0283,320.5381,869.0283,324.5381,859.0283,320.5381,863.0283" style="stroke:#9B2C2C;stroke-width:1;stroke-linejoin:miter;stroke-miterlimit:10;"/><line style="stroke:#9B2C2C;stroke-width:1;" x1="320.5381" x2="320.5381" y1="967.1611" y2="987.1611"/><polygon fill="#9B2C2C" points="316.5381,977.1611,320.5381,987.1611,324.5381,977.1611,320.5381,981.1611" style="stroke:#9B2C2C;stroke-width:1;stroke-linejoin:miter;stroke-miterlimit:10;"/><line style="stroke:#9B2C2C;stroke-width:1;" x1="183.5454" x2="183.5454" y1="1109.4268" y2="1129.4268"/><polygon fill="#9B2C2C" points="179.5454,1119.4268,183.5454,1129.4268,187.5454,1119.4268,183.5454,1123.4268" style="stroke:#9B2C2C;stroke-width:1;stroke-linejoin:miter;stroke-miterlimit:10;"/><line style="stroke:#9B2C2C;stroke-width:1;" x1="183.5454" x2="183.5454" y1="1163.5596" y2="1183.5596"/><polygon fill="#9B2C2C" points="179.5454,1173.5596,183.5454,1183.5596,187.5454,1173.5596,183.5454,1177.5596" style="stroke:#9B2C2C;stroke-width:1;stroke-linejoin:miter;stroke-miterlimit:10;"/><line style="stroke:#9B2C2C;stroke-width:1;" x1="223.9407" x2="183.5454" y1="1053.2939" y2="1053.2939"/><line style="stroke:#9B2C2C;stroke-width:1;" x1="183.5454" x2="183.5454" y1="1053.2939" y2="1075.2939"/><polygon fill="#9B2C2C" points="179.5454,1065.2939,183.5454,1075.2939,187.5454,1065.2939,183.5454,1069.2939" style="stroke:#9B2C2C;stroke-width:1;stroke-linejoin:miter;stroke-miterlimit:10;"/><line style="stroke:#9B2C2C;stroke-width:1;" x1="417.1355" x2="457.5308" y1="1053.2939" y2="1053.2939"/><line style="stroke:#9B2C2C;stroke-width:1;" x1="457.5308" x2="457.5308" y1="1053.2939" y2="1075.2939"/><polygon fill="#9B2C2C" points="453.5308,1065.2939,457.5308,1075.2939,461.5308,1065.2939,457.5308,1069.2939" style="stroke:#9B2C2C;stroke-width:1;stroke-linejoin:miter;stroke-miterlimit:10;"/><line style="stroke:#9B2C2C;stroke-width:1;" x1="183.5454" x2="183.5454" y1="1217.6924" y2="1235.6924"/><line style="stroke:#9B2C2C;stroke-width:1;" x1="183.5454" x2="308.5381" y1="1235.6924" y2="1235.6924"/><polygon fill="#9B2C2C" points="298.5381,1231.6924,308.5381,1235.6924,298.5381,1239.6924,302.5381,1235.6924" style="stroke:#9B2C2C;stroke-width:1;stroke-linejoin:miter;stroke-miterlimit:10;"/><line style="stroke:#9B2C2C;stroke-width:1;" x1="457.5308" x2="457.5308" y1="1109.4268" y2="1235.6924"/><line style="stroke:#9B2C2C;stroke-width:1;" x1="457.5308" x2="332.5381" y1="1235.6924" y2="1235.6924"/><polygon fill="#9B2C2C" points="342.5381,1231.6924,332.5381,1235.6924,342.5381,1239.6924,338.5381,1235.6924" style="stroke:#9B2C2C;stroke-width:1;stroke-linejoin:miter;stroke-miterlimit:10;"/><line style="stroke:#9B2C2C;stroke-width:1;" x1="320.5381" x2="320.5381" y1="1021.2939" y2="1041.2939"/><polygon fill="#9B2C2C" points="316.5381,1031.2939,320.5381,1041.2939,324.5381,1031.2939,320.5381,1035.2939" style="stroke:#9B2C2C;stroke-width:1;stroke-linejoin:miter;stroke-miterlimit:10;"/><line style="stroke:#9B2C2C;stroke-width:1;" x1="320.5381" x2="320.5381" y1="1247.6924" y2="1267.6924"/><polygon fill="#9B2C2C" points="316.5381,1257.6924,320.5381,1267.6924,324.5381,1257.6924,320.5381,1261.6924" style="stroke:#9B2C2C;stroke-width:1;stroke-linejoin:miter;stroke-miterlimit:10;"/><?plantuml-src XLHDJzj043tZNp6YXyAXq00j8ZbK48I4Ad40sbvwcNZ7yGXxrzqTnqr_VMTjapZ1LIz9TkVjlFVc8-_XE_d0paxX_EJgP9A45xOLUYnXWUdBqhlQchahd8ScPw51FEHeNCDs2HaMOHWfs9AiAmBd9NU3m2tZKh_ld9K7B0aEvnXgB0x78K_yX-3yyo3uu8HkzcIzoxBiqhn1EM_8zmXpiPXy72AklNTD7xnQdALdwNumylU0yykBoQV9663NGo8i1S4Zyds9Iu9drjFS4ugM5tuu_v8LhacI8EWbIQQFb1Al24eCGXwuVOJMWCI7WKIqjc6M99p1qIqL90JqcqEyRZ41ClP1lXo3v6JXQ4tXE3cOth7cs04gBg9Bb3IFTnMACjgPWaVppXBIXiAHTPelijz5dYuL5kh8hBiNOO_xG4r9xIs4Eaqf16XO1w0MiDH0enLGoeCWhaeE1Wna3MT9zvbCxmrPuMozMvUWiz2Nuf7Y0GoNPEFagZ4EGSNl5sAEHLeNgFPyzwHX8pcSGawypEMdpRmhErULTvKEQvijjc18Eb0w_HPQx8eDcV6iiusHMosiBtKLG9nW0Lg7IakHebrX61gQRs_KLPRfGa8hhQl0lgsRceiD-IcWmKfqZZxqDwvgRUpg_afKwJRoagqgwNrrEgE2fnnzHJOEWATVDIcjsQUzDYQkVCGDMRTNjMr_ZmkOwxgmhMap4Q_ljkY17F5SGKcYB8B_aTHYkomZdZT95fJZYdMVQvlcQ9TajfrISIloiZjnRCM1KAbpWNxTzx0DzMrx7ej16XV-hTIv3jXujex8rkM2F9dN1TnivZyKR3Qj7T_qzLz6Pw0kPA_qsgdQAwXtcI4NyHpdFExYfWxjOlu5?></g></svg>