<?plantuml 1.2026.2?><svg xmlns="http://www.w3.org/2000/svg" xmlns:xlink="http://www.w3.org/1999/xlink" contentStyleType="text/css" data-diagram-type="ACTIVITY" height="1302px" preserveAspectRatio="none" style="width:593px;height:1302px;background:#FFFFFF;" version="1.1" viewBox="0 0 593 1302" width="593px" zoomAndPan="magnify"><title>RaiImage Tile Creation Workflow</title><defs/><g><g class="title" data-source-line="3"><text fill="#000000" font-family="Verdana" font-size="22" font-weight="bold" lengthAdjust="spacing" textLength="410.1689" x="89.9548" y="37.1182">RaiImage Tile Creation Workflow</text></g><ellipse cx="316.3945" cy="62.7373" fill="#FFFFFF" rx="10" ry="10" style="stroke:#000000;stroke-width:1;"/><rect fill="#FFFFFF" height="34.584" rx="12.5" ry="12.5" style="stroke:#000000;stroke-width:1;" width="254.668" x="189.0605" y="92.7373"/><text fill="#000000" font-family="Verdana" font-size="12" lengthAdjust="spacing" textLength="234.668" x="199.0605" y="114.8018">Receive master image and tile settings</text><polygon fill="#FFFFFF" points="246.2104,147.3213,386.5786,147.3213,398.5786,159.3213,386.5786,171.3213,246.2104,171.3213,234.2104,159.3213,246.2104,147.3213" style="stroke:#000000;stroke-width:1;"/><text fill="#000000" font-family="Verdana" font-size="11" lengthAdjust="spacing" textLength="140.3682" x="246.2104" y="163.696">Delete existing tiles first?</text><text fill="#000000" font-family="Verdana" font-size="11" lengthAdjust="spacing" textLength="18.7935" x="215.417" y="157.0117">yes</text><text fill="#000000" font-family="Verdana" font-size="11" lengthAdjust="spacing" textLength="13.6372" x="398.5786" y="157.0117">no</text><rect fill="#FFFFFF" height="34.584" rx="12.5" ry="12.5" style="stroke:#000000;stroke-width:1;" width="255.7285" x="54.0142" y="181.3213"/><text fill="#000000" font-family="Verdana" font-size="12" lengthAdjust="spacing" textLength="235.7285" x="64.0142" y="203.3857">Find existing tile files matching pattern</text><rect fill="#FFFFFF" height="34.584" rx="12.5" ry="12.5" style="stroke:#000000;stroke-width:1;" width="138.752" x="112.5024" y="250.9053"/><text fill="#000000" font-family="Verdana" font-size="12" lengthAdjust="spacing" textLength="118.752" x="122.5024" y="272.9697">Delete existing tiles</text><rect fill="#FFFFFF" height="34.584" rx="12.5" ry="12.5" style="stroke:#000000;stroke-width:1;" width="222.3359" x="339.7427" y="230.0056"/><text fill="#000000" font-family="Verdana" font-size="12" lengthAdjust="spacing" textLength="202.3359" x="349.7427" y="252.0701">Return success without new work</text><ellipse cx="450.9106" cy="310.5896" fill="none" rx="11" ry="11" style="stroke:#000000;stroke-width:1;"/><ellipse cx="450.9106" cy="310.5896" fill="#FFFFFF" rx="6" ry="6" style="stroke:#000000;stroke-width:1;"/><polygon fill="#FFFFFF" points="385.2383,181.3213,516.583,181.3213,528.583,193.3213,516.583,205.3213,385.2383,205.3213,373.2383,193.3213,385.2383,181.3213" style="stroke:#000000;stroke-width:1;"/><text fill="#000000" font-family="Verdana" font-size="11" lengthAdjust="spacing" textLength="18.7935" x="454.9106" y="216.3804">yes</text><text fill="#000000" font-family="Verdana" font-size="11" lengthAdjust="spacing" textLength="131.3447" x="385.2383" y="197.696">First tile already exists?</text><text fill="#000000" font-family="Verdana" font-size="11" lengthAdjust="spacing" textLength="13.6372" x="528.583" y="191.0117">no</text><polygon fill="#FFFFFF" points="316.3945,349.5896,328.3945,361.5896,316.3945,373.5896,304.3945,361.5896,316.3945,349.5896" style="stroke:#000000;stroke-width:1;"/><rect fill="#FFFFFF" height="34.584" rx="12.5" ry="12.5" style="stroke:#000000;stroke-width:1;" width="181.1914" x="225.7988" y="393.5896"/><text fill="#000000" font-family="Verdana" font-size="12" lengthAdjust="spacing" textLength="161.1914" x="235.7988" y="415.6541">Identify master image size</text><polygon fill="#FFFFFF" points="239.7786,448.1736,393.0105,448.1736,405.0105,460.1736,393.0105,472.1736,239.7786,472.1736,227.7786,460.1736,239.7786,448.1736" style="stroke:#000000;stroke-width:1;"/><text fill="#000000" font-family="Verdana" font-size="11" lengthAdjust="spacing" textLength="153.2319" x="239.7786" y="464.5483">Resize dimensions missing?</text><text fill="#000000" font-family="Verdana" font-size="11" lengthAdjust="spacing" textLength="18.7935" x="208.9851" y="457.864">yes</text><text fill="#000000" font-family="Verdana" font-size="11" lengthAdjust="spacing" textLength="13.6372" x="405.0105" y="457.864">no</text><rect fill="#FFFFFF" height="49.168" rx="12.5" ry="12.5" style="stroke:#000000;stroke-width:1;" width="238.8359" x="70.4883" y="482.1736"/><text fill="#000000" font-family="Verdana" font-size="12" lengthAdjust="spacing" textLength="183.4395" x="80.4883" y="504.238">Calculate resize width / height</text><text fill="#000000" font-family="Verdana" font-size="12" lengthAdjust="spacing" textLength="218.8359" x="80.4883" y="518.822">from tile proportions and image size</text><rect fill="#FFFFFF" height="34.584" rx="12.5" ry="12.5" style="stroke:#000000;stroke-width:1;" width="227.1172" x="329.3242" y="482.1736"/><text fill="#000000" font-family="Verdana" font-size="12" lengthAdjust="spacing" textLength="207.1172" x="339.3242" y="504.238">Use provided resize width / height</text><polygon fill="#FFFFFF" points="316.3945,537.3416,328.3945,549.3416,316.3945,561.3416,304.3945,549.3416,316.3945,537.3416" style="stroke:#000000;stroke-width:1;"/><rect fill="#FFFFFF" height="34.584" rx="12.5" ry="12.5" style="stroke:#000000;stroke-width:1;" width="231.2305" x="200.7793" y="581.3416"/><text fill="#000000" font-family="Verdana" font-size="12" lengthAdjust="spacing" textLength="211.2305" x="210.7793" y="603.406">Determine total output canvas size</text><polygon fill="#FFFFFF" points="225.5022,635.9255,407.2869,635.9255,419.2869,647.9255,407.2869,659.9255,225.5022,659.9255,213.5022,647.9255,225.5022,635.9255" style="stroke:#000000;stroke-width:1;"/><text fill="#000000" font-family="Verdana" font-size="11" lengthAdjust="spacing" textLength="181.7847" x="225.5022" y="652.3003">Canvas size differs from master?</text><text fill="#000000" font-family="Verdana" font-size="11" lengthAdjust="spacing" textLength="18.7935" x="194.7087" y="645.616">yes</text><text fill="#000000" font-family="Verdana" font-size="11" lengthAdjust="spacing" textLength="13.6372" x="419.2869" y="645.616">no</text><rect fill="#FFFFFF" height="34.584" rx="12.5" ry="12.5" style="stroke:#000000;stroke-width:1;" width="243.7402" x="81.6321" y="669.9255"/><text fill="#000000" font-family="Verdana" font-size="12" lengthAdjust="spacing" textLength="223.7402" x="91.6321" y="691.99">Build resize / adaptive-resize options</text><rect fill="#FFFFFF" height="34.584" rx="12.5" ry="12.5" style="stroke:#000000;stroke-width:1;" width="126.084" x="366.2449" y="669.9255"/><text fill="#000000" font-family="Verdana" font-size="12" lengthAdjust="spacing" textLength="106.084" x="376.2449" y="691.99">Keep original size</text><polygon fill="#FFFFFF" points="316.3945,710.5095,328.3945,722.5095,316.3945,734.5095,304.3945,722.5095,316.3945,710.5095" style="stroke:#000000;stroke-width:1;"/><polygon fill="#FFFFFF" points="252.4275,754.5095,380.3616,754.5095,392.3616,766.5095,380.3616,778.5095,252.4275,778.5095,240.4275,766.5095,252.4275,754.5095" style="stroke:#000000;stroke-width:1;"/><text fill="#000000" font-family="Verdana" font-size="11" lengthAdjust="spacing" textLength="127.9341" x="252.4275" y="770.8843">Sharpening requested?</text><text fill="#000000" font-family="Verdana" font-size="11" lengthAdjust="spacing" textLength="18.7935" x="221.634" y="764.2">yes</text><text fill="#000000" font-family="Verdana" font-size="11" lengthAdjust="spacing" textLength="13.6372" x="392.3616" y="764.2">no</text><rect fill="#FFFFFF" height="34.584" rx="12.5" ry="12.5" style="stroke:#000000;stroke-width:1;" width="325.9883" x="6" y="788.5095"/><text fill="#000000" font-family="Verdana" font-size="12" lengthAdjust="spacing" textLength="305.9883" x="16" y="810.574">Add sharpen / adaptive-sharpen / unsharp options</text><rect fill="#FFFFFF" height="34.584" rx="12.5" ry="12.5" style="stroke:#000000;stroke-width:1;" width="223.6133" x="351.9883" y="788.5095"/><text fill="#000000" font-family="Verdana" font-size="12" lengthAdjust="spacing" textLength="203.6133" x="361.9883" y="810.574">Continue without sharpen options</text><polygon fill="#FFFFFF" points="316.3945,829.0935,328.3945,841.0935,316.3945,853.0935,304.3945,841.0935,316.3945,829.0935" style="stroke:#000000;stroke-width:1;"/><polygon fill="#FFFFFF" points="242.4775,873.0935,390.3115,873.0935,402.3115,885.0935,390.3115,897.0935,242.4775,897.0935,230.4775,885.0935,242.4775,873.0935" style="stroke:#000000;stroke-width:1;"/><text fill="#000000" font-family="Verdana" font-size="11" lengthAdjust="spacing" textLength="147.834" x="242.4775" y="889.4683">Strip metadata requested?</text><text fill="#000000" font-family="Verdana" font-size="11" lengthAdjust="spacing" textLength="18.7935" x="211.6841" y="882.7839">yes</text><text fill="#000000" font-family="Verdana" font-size="11" lengthAdjust="spacing" textLength="13.6372" x="402.3115" y="882.7839">no</text><rect fill="#FFFFFF" height="34.584" rx="12.5" ry="12.5" style="stroke:#000000;stroke-width:1;" width="116.123" x="159.7324" y="907.0935"/><text fill="#000000" font-family="Verdana" font-size="12" lengthAdjust="spacing" textLength="96.123" x="169.7324" y="929.158">Add strip option</text><rect fill="#FFFFFF" height="34.584" rx="12.5" ry="12.5" style="stroke:#000000;stroke-width:1;" width="238.2793" x="295.8555" y="907.0935"/><text fill="#000000" font-family="Verdana" font-size="12" lengthAdjust="spacing" textLength="218.2793" x="305.8555" y="929.158">Keep metadata behavior unchanged</text><polygon fill="#FFFFFF" points="316.3945,947.6775,328.3945,959.6775,316.3945,971.6775,304.3945,959.6775,316.3945,947.6775" style="stroke:#000000;stroke-width:1;"/><rect fill="#FFFFFF" height="34.584" rx="12.5" ry="12.5" style="stroke:#000000;stroke-width:1;" width="321.3887" x="155.7002" y="991.6775"/><text fill="#000000" font-family="Verdana" font-size="12" lengthAdjust="spacing" textLength="301.3887" x="165.7002" y="1013.7419">Convert master image into temporary total image</text><polygon fill="#FFFFFF" points="227.5486,1046.2615,405.2405,1046.2615,417.2405,1058.2615,405.2405,1070.2615,227.5486,1070.2615,215.5486,1058.2615,227.5486,1046.2615" style="stroke:#000000;stroke-width:1;"/><text fill="#000000" font-family="Verdana" font-size="11" lengthAdjust="spacing" textLength="177.6919" x="227.5486" y="1062.6362">Temporary total image created?</text><text fill="#000000" font-family="Verdana" font-size="11" lengthAdjust="spacing" textLength="18.7935" x="196.7551" y="1055.9519">yes</text><text fill="#000000" font-family="Verdana" font-size="11" lengthAdjust="spacing" textLength="13.6372" x="417.2405" y="1055.9519">no</text><rect fill="#FFFFFF" height="34.584" rx="12.5" ry="12.5" style="stroke:#000000;stroke-width:1;" width="309.3125" x="20.4976" y="1080.2615"/><text fill="#000000" font-family="Verdana" font-size="12" lengthAdjust="spacing" textLength="289.3125" x="30.4976" y="1102.3259">Crop temporary total image into numbered tiles</text><rect fill="#FFFFFF" height="34.584" rx="12.5" ry="12.5" style="stroke:#000000;stroke-width:1;" width="198.2656" x="76.021" y="1134.8455"/><text fill="#000000" font-family="Verdana" font-size="12" lengthAdjust="spacing" textLength="178.2656" x="86.021" y="1156.9099">Delete temporary total image</text><rect fill="#FFFFFF" height="34.584" rx="12.5" ry="12.5" style="stroke:#000000;stroke-width:1;" width="174.4121" x="87.9478" y="1189.4294"/><text fill="#000000" font-family="Verdana" font-size="12" lengthAdjust="spacing" textLength="154.4121" x="97.9478" y="1211.4939">Return tile creation result</text><rect fill="#FFFFFF" height="34.584" rx="12.5" ry="12.5" style="stroke:#000000;stroke-width:1;" width="215.6504" x="349.8101" y="1080.2615"/><text fill="#000000" font-family="Verdana" font-size="12" lengthAdjust="spacing" textLength="195.6504" x="359.8101" y="1102.3259">Capture convert failure and stop</text><polygon fill="#FFFFFF" points="316.3945,1230.0134,328.3945,1242.0134,316.3945,1254.0134,304.3945,1242.0134,316.3945,1230.0134" style="stroke:#000000;stroke-width:1;"/><ellipse cx="316.3945" cy="1285.0134" fill="none" rx="11" ry="11" style="stroke:#000000;stroke-width:1;"/><ellipse cx="316.3945" cy="1285.0134" fill="#FFFFFF" rx="6" ry="6" style="stroke:#000000;stroke-width:1;"/><line style="stroke:#000000;stroke-width:1;" x1="316.3945" x2="316.3945" y1="72.7373" y2="92.7373"/><polygon fill="#000000" points="312.3945,82.7373,316.3945,92.7373,320.3945,82.7373,316.3945,86.7373" style="stroke:#000000;stroke-width:1;"/><line style="stroke:#000000;stroke-width:1;" x1="181.8784" x2="181.8784" y1="215.9053" y2="250.9053"/><polygon fill="#000000" points="177.8784,240.9053,181.8784,250.9053,185.8784,240.9053,181.8784,244.9053" style="stroke:#000000;stroke-width:1;"/><line style="stroke:#000000;stroke-width:1;" x1="450.9106" x2="450.9106" y1="264.5896" y2="299.5896"/><polygon fill="#000000" points="446.9106,289.5896,450.9106,299.5896,454.9106,289.5896,450.9106,293.5896" style="stroke:#000000;stroke-width:1;"/><line style="stroke:#000000;stroke-width:1;" x1="450.9106" x2="450.9106" y1="205.3213" y2="230.0056"/><polygon fill="#000000" points="446.9106,220.0056,450.9106,230.0056,454.9106,220.0056,450.9106,224.0056" style="stroke:#000000;stroke-width:1;"/><line style="stroke:#000000;stroke-width:1;" x1="528.583" x2="572.0786" y1="193.3213" y2="193.3213"/><polygon fill="#000000" points="568.0786,271.7976,572.0786,281.7976,576.0786,271.7976,572.0786,275.7976" style="stroke:#000000;stroke-width:1;"/><line style="stroke:#000000;stroke-width:1;" x1="572.0786" x2="572.0786" y1="193.3213" y2="361.5896"/><line style="stroke:#000000;stroke-width:1;" x1="572.0786" x2="328.3945" y1="361.5896" y2="361.5896"/><polygon fill="#000000" points="338.3945,357.5896,328.3945,361.5896,338.3945,365.5896,334.3945,361.5896" style="stroke:#000000;stroke-width:1;"/><line style="stroke:#000000;stroke-width:1;" x1="234.2104" x2="181.8784" y1="159.3213" y2="159.3213"/><line style="stroke:#000000;stroke-width:1;" x1="181.8784" x2="181.8784" y1="159.3213" y2="181.3213"/><polygon fill="#000000" points="177.8784,171.3213,181.8784,181.3213,185.8784,171.3213,181.8784,175.3213" style="stroke:#000000;stroke-width:1;"/><line style="stroke:#000000;stroke-width:1;" x1="398.5786" x2="450.9106" y1="159.3213" y2="159.3213"/><line style="stroke:#000000;stroke-width:1;" x1="450.9106" x2="450.9106" y1="159.3213" y2="181.3213"/><polygon fill="#000000" points="446.9106,171.3213,450.9106,181.3213,454.9106,171.3213,450.9106,175.3213" style="stroke:#000000;stroke-width:1;"/><line style="stroke:#000000;stroke-width:1;" x1="181.8784" x2="181.8784" y1="285.4893" y2="361.5896"/><line style="stroke:#000000;stroke-width:1;" x1="181.8784" x2="304.3945" y1="361.5896" y2="361.5896"/><polygon fill="#000000" points="294.3945,357.5896,304.3945,361.5896,294.3945,365.5896,298.3945,361.5896" style="stroke:#000000;stroke-width:1;"/><line style="stroke:#000000;stroke-width:1;" x1="316.3945" x2="316.3945" y1="127.3213" y2="147.3213"/><polygon fill="#000000" points="312.3945,137.3213,316.3945,147.3213,320.3945,137.3213,316.3945,141.3213" style="stroke:#000000;stroke-width:1;"/><line style="stroke:#000000;stroke-width:1;" x1="316.3945" x2="316.3945" y1="373.5896" y2="393.5896"/><polygon fill="#000000" points="312.3945,383.5896,316.3945,393.5896,320.3945,383.5896,316.3945,387.5896" style="stroke:#000000;stroke-width:1;"/><line style="stroke:#000000;stroke-width:1;" x1="227.7786" x2="189.9063" y1="460.1736" y2="460.1736"/><line style="stroke:#000000;stroke-width:1;" x1="189.9063" x2="189.9063" y1="460.1736" y2="482.1736"/><polygon fill="#000000" points="185.9063,472.1736,189.9063,482.1736,193.9063,472.1736,189.9063,476.1736" style="stroke:#000000;stroke-width:1;"/><line style="stroke:#000000;stroke-width:1;" x1="405.0105" x2="442.8828" y1="460.1736" y2="460.1736"/><line style="stroke:#000000;stroke-width:1;" x1="442.8828" x2="442.8828" y1="460.1736" y2="482.1736"/><polygon fill="#000000" points="438.8828,472.1736,442.8828,482.1736,446.8828,472.1736,442.8828,476.1736" style="stroke:#000000;stroke-width:1;"/><line style="stroke:#000000;stroke-width:1;" x1="189.9063" x2="189.9063" y1="531.3416" y2="549.3416"/><line style="stroke:#000000;stroke-width:1;" x1="189.9063" x2="304.3945" y1="549.3416" y2="549.3416"/><polygon fill="#000000" points="294.3945,545.3416,304.3945,549.3416,294.3945,553.3416,298.3945,549.3416" style="stroke:#000000;stroke-width:1;"/><line style="stroke:#000000;stroke-width:1;" x1="442.8828" x2="442.8828" y1="516.7576" y2="549.3416"/><line style="stroke:#000000;stroke-width:1;" x1="442.8828" x2="328.3945" y1="549.3416" y2="549.3416"/><polygon fill="#000000" points="338.3945,545.3416,328.3945,549.3416,338.3945,553.3416,334.3945,549.3416" style="stroke:#000000;stroke-width:1;"/><line style="stroke:#000000;stroke-width:1;" x1="316.3945" x2="316.3945" y1="428.1736" y2="448.1736"/><polygon fill="#000000" points="312.3945,438.1736,316.3945,448.1736,320.3945,438.1736,316.3945,442.1736" style="stroke:#000000;stroke-width:1;"/><line style="stroke:#000000;stroke-width:1;" x1="316.3945" x2="316.3945" y1="561.3416" y2="581.3416"/><polygon fill="#000000" points="312.3945,571.3416,316.3945,581.3416,320.3945,571.3416,316.3945,575.3416" style="stroke:#000000;stroke-width:1;"/><line style="stroke:#000000;stroke-width:1;" x1="213.5022" x2="203.5022" y1="647.9255" y2="647.9255"/><line style="stroke:#000000;stroke-width:1;" x1="203.5022" x2="203.5022" y1="647.9255" y2="669.9255"/><polygon fill="#000000" points="199.5022,659.9255,203.5022,669.9255,207.5022,659.9255,203.5022,663.9255" style="stroke:#000000;stroke-width:1;"/><line style="stroke:#000000;stroke-width:1;" x1="419.2869" x2="429.2869" y1="647.9255" y2="647.9255"/><line style="stroke:#000000;stroke-width:1;" x1="429.2869" x2="429.2869" y1="647.9255" y2="669.9255"/><polygon fill="#000000" points="425.2869,659.9255,429.2869,669.9255,433.2869,659.9255,429.2869,663.9255" style="stroke:#000000;stroke-width:1;"/><line style="stroke:#000000;stroke-width:1;" x1="203.5022" x2="203.5022" y1="704.5095" y2="722.5095"/><line style="stroke:#000000;stroke-width:1;" x1="203.5022" x2="304.3945" y1="722.5095" y2="722.5095"/><polygon fill="#000000" points="294.3945,718.5095,304.3945,722.5095,294.3945,726.5095,298.3945,722.5095" style="stroke:#000000;stroke-width:1;"/><line style="stroke:#000000;stroke-width:1;" x1="429.2869" x2="429.2869" y1="704.5095" y2="722.5095"/><line style="stroke:#000000;stroke-width:1;" x1="429.2869" x2="328.3945" y1="722.5095" y2="722.5095"/><polygon fill="#000000" points="338.3945,718.5095,328.3945,722.5095,338.3945,726.5095,334.3945,722.5095" style="stroke:#000000;stroke-width:1;"/><line style="stroke:#000000;stroke-width:1;" x1="316.3945" x2="316.3945" y1="615.9255" y2="635.9255"/><polygon fill="#000000" points="312.3945,625.9255,316.3945,635.9255,320.3945,625.9255,316.3945,629.9255" style="stroke:#000000;stroke-width:1;"/><line style="stroke:#000000;stroke-width:1;" x1="240.4275" x2="168.9941" y1="766.5095" y2="766.5095"/><line style="stroke:#000000;stroke-width:1;" x1="168.9941" x2="168.9941" y1="766.5095" y2="788.5095"/><polygon fill="#000000" points="164.9941,778.5095,168.9941,788.5095,172.9941,778.5095,168.9941,782.5095" style="stroke:#000000;stroke-width:1;"/><line style="stroke:#000000;stroke-width:1;" x1="392.3616" x2="463.7949" y1="766.5095" y2="766.5095"/><line style="stroke:#000000;stroke-width:1;" x1="463.7949" x2="463.7949" y1="766.5095" y2="788.5095"/><polygon fill="#000000" points="459.7949,778.5095,463.7949,788.5095,467.7949,778.5095,463.7949,782.5095" style="stroke:#000000;stroke-width:1;"/><line style="stroke:#000000;stroke-width:1;" x1="168.9941" x2="168.9941" y1="823.0935" y2="841.0935"/><line style="stroke:#000000;stroke-width:1;" x1="168.9941" x2="304.3945" y1="841.0935" y2="841.0935"/><polygon fill="#000000" points="294.3945,837.0935,304.3945,841.0935,294.3945,845.0935,298.3945,841.0935" style="stroke:#000000;stroke-width:1;"/><line style="stroke:#000000;stroke-width:1;" x1="463.7949" x2="463.7949" y1="823.0935" y2="841.0935"/><line style="stroke:#000000;stroke-width:1;" x1="463.7949" x2="328.3945" y1="841.0935" y2="841.0935"/><polygon fill="#000000" points="338.3945,837.0935,328.3945,841.0935,338.3945,845.0935,334.3945,841.0935" style="stroke:#000000;stroke-width:1;"/><line style="stroke:#000000;stroke-width:1;" x1="316.3945" x2="316.3945" y1="734.5095" y2="754.5095"/><polygon fill="#000000" points="312.3945,744.5095,316.3945,754.5095,320.3945,744.5095,316.3945,748.5095" style="stroke:#000000;stroke-width:1;"/><line style="stroke:#000000;stroke-width:1;" x1="230.4775" x2="217.7939" y1="885.0935" y2="885.0935"/><line style="stroke:#000000;stroke-width:1;" x1="217.7939" x2="217.7939" y1="885.0935" y2="907.0935"/><polygon fill="#000000" points="213.7939,897.0935,217.7939,907.0935,221.7939,897.0935,217.7939,901.0935" style="stroke:#000000;stroke-width:1;"/><line style="stroke:#000000;stroke-width:1;" x1="402.3115" x2="414.9951" y1="885.0935" y2="885.0935"/><line style="stroke:#000000;stroke-width:1;" x1="414.9951" x2="414.9951" y1="885.0935" y2="907.0935"/><polygon fill="#000000" points="410.9951,897.0935,414.9951,907.0935,418.9951,897.0935,414.9951,901.0935" style="stroke:#000000;stroke-width:1;"/><line style="stroke:#000000;stroke-width:1;" x1="217.7939" x2="217.7939" y1="941.6775" y2="959.6775"/><line style="stroke:#000000;stroke-width:1;" x1="217.7939" x2="304.3945" y1="959.6775" y2="959.6775"/><polygon fill="#000000" points="294.3945,955.6775,304.3945,959.6775,294.3945,963.6775,298.3945,959.6775" style="stroke:#000000;stroke-width:1;"/><line style="stroke:#000000;stroke-width:1;" x1="414.9951" x2="414.9951" y1="941.6775" y2="959.6775"/><line style="stroke:#000000;stroke-width:1;" x1="414.9951" x2="328.3945" y1="959.6775" y2="959.6775"/><polygon fill="#000000" points="338.3945,955.6775,328.3945,959.6775,338.3945,963.6775,334.3945,959.6775" style="stroke:#000000;stroke-width:1;"/><line style="stroke:#000000;stroke-width:1;" x1="316.3945" x2="316.3945" y1="853.0935" y2="873.0935"/><polygon fill="#000000" points="312.3945,863.0935,316.3945,873.0935,320.3945,863.0935,316.3945,867.0935" style="stroke:#000000;stroke-width:1;"/><line style="stroke:#000000;stroke-width:1;" x1="316.3945" x2="316.3945" y1="971.6775" y2="991.6775"/><polygon fill="#000000" points="312.3945,981.6775,316.3945,991.6775,320.3945,981.6775,316.3945,985.6775" style="stroke:#000000;stroke-width:1;"/><line style="stroke:#000000;stroke-width:1;" x1="175.1538" x2="175.1538" y1="1114.8455" y2="1134.8455"/><polygon fill="#000000" points="171.1538,1124.8455,175.1538,1134.8455,179.1538,1124.8455,175.1538,1128.8455" style="stroke:#000000;stroke-width:1;"/><line style="stroke:#000000;stroke-width:1;" x1="175.1538" x2="175.1538" y1="1169.4294" y2="1189.4294"/><polygon fill="#000000" points="171.1538,1179.4294,175.1538,1189.4294,179.1538,1179.4294,175.1538,1183.4294" style="stroke:#000000;stroke-width:1;"/><line style="stroke:#000000;stroke-width:1;" x1="215.5486" x2="175.1538" y1="1058.2615" y2="1058.2615"/><line style="stroke:#000000;stroke-width:1;" x1="175.1538" x2="175.1538" y1="1058.2615" y2="1080.2615"/><polygon fill="#000000" points="171.1538,1070.2615,175.1538,1080.2615,179.1538,1070.2615,175.1538,1074.2615" style="stroke:#000000;stroke-width:1;"/><line style="stroke:#000000;stroke-width:1;" x1="417.2405" x2="457.6353" y1="1058.2615" y2="1058.2615"/><line style="stroke:#000000;stroke-width:1;" x1="457.6353" x2="457.6353" y1="1058.2615" y2="1080.2615"/><polygon fill="#000000" points="453.6353,1070.2615,457.6353,1080.2615,461.6353,1070.2615,457.6353,1074.2615" style="stroke:#000000;stroke-width:1;"/><line style="stroke:#000000;stroke-width:1;" x1="175.1538" x2="175.1538" y1="1224.0134" y2="1242.0134"/><line style="stroke:#000000;stroke-width:1;" x1="175.1538" x2="304.3945" y1="1242.0134" y2="1242.0134"/><polygon fill="#000000" points="294.3945,1238.0134,304.3945,1242.0134,294.3945,1246.0134,298.3945,1242.0134" style="stroke:#000000;stroke-width:1;"/><line style="stroke:#000000;stroke-width:1;" x1="457.6353" x2="457.6353" y1="1114.8455" y2="1242.0134"/><line style="stroke:#000000;stroke-width:1;" x1="457.6353" x2="328.3945" y1="1242.0134" y2="1242.0134"/><polygon fill="#000000" points="338.3945,1238.0134,328.3945,1242.0134,338.3945,1246.0134,334.3945,1242.0134" style="stroke:#000000;stroke-width:1;"/><line style="stroke:#000000;stroke-width:1;" x1="316.3945" x2="316.3945" y1="1026.2615" y2="1046.2615"/><polygon fill="#000000" points="312.3945,1036.2615,316.3945,1046.2615,320.3945,1036.2615,316.3945,1040.2615" style="stroke:#000000;stroke-width:1;"/><line style="stroke:#000000;stroke-width:1;" x1="316.3945" x2="316.3945" y1="1254.0134" y2="1274.0134"/><polygon fill="#000000" points="312.3945,1264.0134,316.3945,1274.0134,320.3945,1264.0134,316.3945,1268.0134" style="stroke:#000000;stroke-width:1;"/><?plantuml-src XLIzZjim39wZfs2tt53SdWn5cyC1Xsxf5Lswy2mw9YfBgaGdJP--bEquJkgYYs7H5ByVadud3RK4qI5xOuJ54UoHNrey4BooddQ9K3Xu-1RIZzg5ap5PC8ancprLn4U25hDG0kuleRSWvM8c4VQ7l3M6QrW_aICXe5-SIxZFoL1polBX0PI6X_MPyeDPRPvPQzmaQbx9Rb6gfiGYYYBwhIOlrjqQSfbWxOFMA-ZF1MSeXKuLsVDm8zzXhrIKTCb3xggASeOJInCw0KydEAa32hdA4g9PpH38MwxDy3IR5qjUk3xV-fBvDurMxAaSm79BFgkrAenpLlBtHkpGLPr3bPU6AoUsqi0ZDCI7HhxxEeLsK1LJY259NwsqO0uwOxhvcllS8rkoorMtav0dDJQrx0aa23fG7w9QKQ4_OfuBsbqZgggkAMbd2xN1WNjPdpfs4_WZeCKeEaVlnqY8lOnRtf-98eJ41_RAPDGry2mClZIO8lao08b-TgImzXxsexMGXxmvwZNK-VvzcS0kQ5DzHzD4NEvTisTq9764baHH1Fz3gSyTgYnedegyKOD73abfLWtw0zbhfvJSaPBSJXnx2I3KwbnWEeyzx3-DRNjT-WPLMVY_gUvqm9Qh3K2-QzyeaRqiuBIP_s0mRLe_ljNbBwCpq3cviruxrILD6bNMoAwSovoNNPnyw1Vp3m00?></g></svg>