<?plantuml 1.2026.2?><svg xmlns="http://www.w3.org/2000/svg" xmlns:xlink="http://www.w3.org/1999/xlink" contentStyleType="text/css" data-diagram-type="ACTIVITY" height="1190px" preserveAspectRatio="none" style="width:1230px;height:1190px;background:#FFFFFF;" version="1.1" viewBox="0 0 1230 1190" width="1230px" zoomAndPan="magnify"><title>RaiImage Optimization and Failure Recovery</title><defs/><g><g class="title" data-source-line="13"><text fill="#000000" font-family="sans-serif" font-size="14" font-weight="bold" lengthAdjust="spacing" textLength="319.9355" x="453.5811" y="33.5352">RaiImage Optimization and Failure Recovery</text></g><ellipse cx="556.8481" cy="57.4883" fill="#222222" rx="10" ry="10" style="stroke:#222222;stroke-width:1;"/><rect fill="#F1F1F1" height="34.1328" rx="12.5" ry="12.5" style="stroke:#181818;stroke-width:0.5;" width="154.4785" x="479.6089" y="87.4883"/><text fill="#000000" font-family="sans-serif" font-size="12" lengthAdjust="spacing" textLength="134.4785" x="489.6089" y="109.0898">Receive image file path</text><polygon fill="#F1F1F1" points="509.8054,141.6211,603.8909,141.6211,615.8909,153.6211,603.8909,165.6211,509.8054,165.6211,497.8054,153.6211,509.8054,141.6211" style="stroke:#181818;stroke-width:0.5;"/><text fill="#000000" font-family="sans-serif" font-size="11" lengthAdjust="spacing" textLength="94.0854" x="509.8054" y="157.7783">Optimize as PNG?</text><text fill="#374151" font-family="'Casual'" font-size="11" lengthAdjust="spacing" textLength="15.279" x="482.5264" y="151.2121">yes</text><text fill="#374151" font-family="'Casual'" font-size="11" lengthAdjust="spacing" textLength="49.852" x="615.8909" y="151.2121">JPEG path</text><rect fill="#F1F1F1" height="34.1328" rx="12.5" ry="12.5" style="stroke:#181818;stroke-width:0.5;" width="179.873" x="152.708" y="175.6211"/><text fill="#000000" font-family="sans-serif" font-size="12" lengthAdjust="spacing" textLength="159.873" x="162.708" y="197.2227">Create ImageMagick facade</text><polygon fill="#F1F1F1" points="192.5215,229.7539,292.7676,229.7539,304.7676,241.7539,292.7676,253.7539,192.5215,253.7539,180.5215,241.7539,192.5215,229.7539" style="stroke:#181818;stroke-width:0.5;"/><text fill="#000000" font-family="sans-serif" font-size="11" lengthAdjust="spacing" textLength="100.2461" x="192.5215" y="245.9111">Input already PNG?</text><text fill="#374151" font-family="'Casual'" font-size="11" lengthAdjust="spacing" textLength="15.279" x="165.2425" y="239.3449">yes</text><text fill="#374151" font-family="'Casual'" font-size="11" lengthAdjust="spacing" textLength="10.824" x="304.7676" y="239.3449">no</text><rect fill="#F1F1F1" height="34.1328" rx="12.5" ry="12.5" style="stroke:#181818;stroke-width:0.5;" width="154.6777" x="11" y="263.7539"/><text fill="#000000" font-family="sans-serif" font-size="12" lengthAdjust="spacing" textLength="134.6777" x="21" y="285.3555">Keep original PNG path</text><rect fill="#F1F1F1" height="34.1328" rx="12.5" ry="12.5" style="stroke:#181818;stroke-width:0.5;" width="205.4961" x="294.2021" y="263.7539"/><text fill="#000000" font-family="sans-serif" font-size="12" lengthAdjust="spacing" textLength="185.4961" x="304.2021" y="285.3555">Run mogrify to create PNG copy</text><polygon fill="#F1F1F1" points="334.9785,317.8867,458.9219,317.8867,470.9219,329.8867,458.9219,341.8867,334.9785,341.8867,322.9785,329.8867,334.9785,317.8867" style="stroke:#181818;stroke-width:0.5;"/><text fill="#000000" font-family="sans-serif" font-size="11" lengthAdjust="spacing" textLength="123.9434" x="334.9785" y="334.0439">Conversion succeeded?</text><text fill="#374151" font-family="'Casual'" font-size="11" lengthAdjust="spacing" textLength="15.279" x="307.6995" y="327.4777">yes</text><text fill="#374151" font-family="'Casual'" font-size="11" lengthAdjust="spacing" textLength="10.824" x="470.9219" y="327.4777">no</text><rect fill="#F1F1F1" height="34.1328" rx="12.5" ry="12.5" style="stroke:#181818;stroke-width:0.5;" width="192.793" x="195.6777" y="351.8867"/><text fill="#000000" font-family="sans-serif" font-size="12" lengthAdjust="spacing" textLength="172.793" x="205.6777" y="373.4883">Remove original non-PNG file</text><rect fill="#F1F1F1" height="34.1328" rx="12.5" ry="12.5" style="stroke:#181818;stroke-width:0.5;" width="160.209" x="211.9697" y="406.0195"/><text fill="#000000" font-family="sans-serif" font-size="12" lengthAdjust="spacing" textLength="140.209" x="221.9697" y="427.6211">Continue with PNG copy</text><rect fill="#F1F1F1" height="34.1328" rx="12.5" ry="12.5" style="stroke:#181818;stroke-width:0.5;" width="186.7109" x="408.4707" y="351.8867"/><text fill="#000000" font-family="sans-serif" font-size="12" lengthAdjust="spacing" textLength="166.7109" x="418.4707" y="373.4883">Keep original file unchanged</text><rect fill="#F1F1F1" height="34.1328" rx="12.5" ry="12.5" style="stroke:#181818;stroke-width:0.5;" width="169.2793" x="417.1865" y="406.0195"/><text fill="#000000" font-family="sans-serif" font-size="12" lengthAdjust="spacing" textLength="149.2793" x="427.1865" y="427.6211">Capture stderr / message</text><ellipse cx="501.8262" cy="471.1523" fill="none" rx="11" ry="11" style="stroke:#222222;stroke-width:1;"/><ellipse cx="501.8262" cy="471.1523" fill="#222222" rx="6" ry="6" style="stroke:#222222;stroke-width:1;"/><polygon fill="#F1F1F1" points="242.6445,492.1523,254.6445,504.1523,242.6445,516.1523,230.6445,504.1523,242.6445,492.1523" style="stroke:#181818;stroke-width:0.5;"/><rect fill="#F1F1F1" height="34.1328" rx="12.5" ry="12.5" style="stroke:#181818;stroke-width:0.5;" width="336.0898" x="74.5996" y="536.1523"/><text fill="#000000" font-family="sans-serif" font-size="12" lengthAdjust="spacing" textLength="316.0898" x="84.5996" y="557.7539">Run OptiPng external tool through CLI command layer</text><polygon fill="#F1F1F1" points="189.3525,590.2852,295.9365,590.2852,307.9365,602.2852,295.9365,614.2852,189.3525,614.2852,177.3525,602.2852,189.3525,590.2852" style="stroke:#181818;stroke-width:0.5;"/><text fill="#000000" font-family="sans-serif" font-size="11" lengthAdjust="spacing" textLength="106.584" x="189.3525" y="606.4424">OptiPng succeeded?</text><text fill="#374151" font-family="'Casual'" font-size="11" lengthAdjust="spacing" textLength="15.279" x="162.0735" y="599.8762">yes</text><text fill="#374151" font-family="'Casual'" font-size="11" lengthAdjust="spacing" textLength="10.824" x="307.9365" y="599.8762">no</text><rect fill="#F1F1F1" height="34.1328" rx="12.5" ry="12.5" style="stroke:#181818;stroke-width:0.5;" width="149" x="76.6411" y="624.2852"/><text fill="#000000" font-family="sans-serif" font-size="12" lengthAdjust="spacing" textLength="129" x="86.6411" y="645.8867">Return optimized PNG</text><rect fill="#F1F1F1" height="34.1328" rx="12.5" ry="12.5" style="stroke:#181818;stroke-width:0.5;" width="169.2793" x="249.5083" y="624.2852"/><text fill="#000000" font-family="sans-serif" font-size="12" lengthAdjust="spacing" textLength="149.2793" x="259.5083" y="645.8867">Capture stderr / message</text><rect fill="#F1F1F1" height="34.1328" rx="12.5" ry="12.5" style="stroke:#181818;stroke-width:0.5;" width="177.0137" x="245.6411" y="693.418"/><text fill="#000000" font-family="sans-serif" font-size="12" lengthAdjust="spacing" textLength="157.0137" x="255.6411" y="715.0195">Return optimization failure</text><polygon fill="#F1F1F1" points="242.6445,733.5508,254.6445,745.5508,242.6445,757.5508,230.6445,745.5508,242.6445,733.5508" style="stroke:#181818;stroke-width:0.5;"/><rect fill="#F1F1F1" height="34.1328" rx="12.5" ry="12.5" style="stroke:#181818;stroke-width:0.5;" width="179.873" x="781.1152" y="175.6211"/><text fill="#000000" font-family="sans-serif" font-size="12" lengthAdjust="spacing" textLength="159.873" x="791.1152" y="197.2227">Create ImageMagick facade</text><polygon fill="#F1F1F1" points="823.2813,229.7539,918.8223,229.7539,930.8223,241.7539,918.8223,253.7539,823.2813,253.7539,811.2813,241.7539,823.2813,229.7539" style="stroke:#181818;stroke-width:0.5;"/><text fill="#000000" font-family="sans-serif" font-size="11" lengthAdjust="spacing" textLength="95.541" x="823.2813" y="245.9111">Input already JPG?</text><text fill="#374151" font-family="'Casual'" font-size="11" lengthAdjust="spacing" textLength="15.279" x="796.0023" y="239.3449">yes</text><text fill="#374151" font-family="'Casual'" font-size="11" lengthAdjust="spacing" textLength="10.824" x="930.8223" y="239.3449">no</text><rect fill="#F1F1F1" height="34.1328" rx="12.5" ry="12.5" style="stroke:#181818;stroke-width:0.5;" width="149.5449" x="645.1816" y="263.7539"/><text fill="#000000" font-family="sans-serif" font-size="12" lengthAdjust="spacing" textLength="129.5449" x="655.1816" y="285.3555">Keep original JPG path</text><rect fill="#F1F1F1" height="34.1328" rx="12.5" ry="12.5" style="stroke:#181818;stroke-width:0.5;" width="200.3633" x="921.9678" y="263.7539"/><text fill="#000000" font-family="sans-serif" font-size="12" lengthAdjust="spacing" textLength="180.3633" x="931.9678" y="285.3555">Run mogrify to create JPG copy</text><polygon fill="#F1F1F1" points="960.1777,317.8867,1084.1211,317.8867,1096.1211,329.8867,1084.1211,341.8867,960.1777,341.8867,948.1777,329.8867,960.1777,317.8867" style="stroke:#181818;stroke-width:0.5;"/><text fill="#000000" font-family="sans-serif" font-size="11" lengthAdjust="spacing" textLength="123.9434" x="960.1777" y="334.0439">Conversion succeeded?</text><text fill="#374151" font-family="'Casual'" font-size="11" lengthAdjust="spacing" textLength="15.279" x="932.8987" y="327.4777">yes</text><text fill="#374151" font-family="'Casual'" font-size="11" lengthAdjust="spacing" textLength="10.824" x="1096.1211" y="327.4777">no</text><rect fill="#F1F1F1" height="34.1328" rx="12.5" ry="12.5" style="stroke:#181818;stroke-width:0.5;" width="187.6602" x="824.7266" y="351.8867"/><text fill="#000000" font-family="sans-serif" font-size="12" lengthAdjust="spacing" textLength="167.6602" x="834.7266" y="373.4883">Remove original non-JPG file</text><rect fill="#F1F1F1" height="34.1328" rx="12.5" ry="12.5" style="stroke:#181818;stroke-width:0.5;" width="155.0762" x="841.0186" y="406.0195"/><text fill="#000000" font-family="sans-serif" font-size="12" lengthAdjust="spacing" textLength="135.0762" x="851.0186" y="427.6211">Continue with JPG copy</text><rect fill="#F1F1F1" height="34.1328" rx="12.5" ry="12.5" style="stroke:#181818;stroke-width:0.5;" width="186.7109" x="1032.3867" y="351.8867"/><text fill="#000000" font-family="sans-serif" font-size="12" lengthAdjust="spacing" textLength="166.7109" x="1042.3867" y="373.4883">Keep original file unchanged</text><rect fill="#F1F1F1" height="34.1328" rx="12.5" ry="12.5" style="stroke:#181818;stroke-width:0.5;" width="169.2793" x="1041.1025" y="406.0195"/><text fill="#000000" font-family="sans-serif" font-size="12" lengthAdjust="spacing" textLength="149.2793" x="1051.1025" y="427.6211">Capture stderr / message</text><ellipse cx="1125.7422" cy="471.1523" fill="none" rx="11" ry="11" style="stroke:#222222;stroke-width:1;"/><ellipse cx="1125.7422" cy="471.1523" fill="#222222" rx="6" ry="6" style="stroke:#222222;stroke-width:1;"/><polygon fill="#F1F1F1" points="871.0518,492.1523,883.0518,504.1523,871.0518,516.1523,859.0518,504.1523,871.0518,492.1523" style="stroke:#181818;stroke-width:0.5;"/><rect fill="#F1F1F1" height="34.1328" rx="12.5" ry="12.5" style="stroke:#181818;stroke-width:0.5;" width="190.4844" x="775.8096" y="536.1523"/><text fill="#000000" font-family="sans-serif" font-size="12" lengthAdjust="spacing" textLength="170.4844" x="785.8096" y="557.7539">Move current JPG to temp file</text><rect fill="#F1F1F1" height="34.1328" rx="12.5" ry="12.5" style="stroke:#181818;stroke-width:0.5;" width="301.1738" x="720.4648" y="590.2852"/><text fill="#000000" font-family="sans-serif" font-size="12" lengthAdjust="spacing" textLength="281.1738" x="730.4648" y="611.8867">Run JpegTran with temp input and target output</text><polygon fill="#F1F1F1" points="766.5732,659.418,975.5303,659.418,987.5303,671.418,975.5303,683.418,766.5732,683.418,754.5732,671.418,766.5732,659.418" style="stroke:#181818;stroke-width:0.5;"/><text fill="#000000" font-family="sans-serif" font-size="11" lengthAdjust="spacing" textLength="208.957" x="766.5732" y="675.5752">JpegTran succeeded and output exists?</text><text fill="#374151" font-family="'Casual'" font-size="11" lengthAdjust="spacing" textLength="15.279" x="739.2942" y="669.009">yes</text><text fill="#374151" font-family="'Casual'" font-size="11" lengthAdjust="spacing" textLength="10.824" x="987.5303" y="669.009">no</text><rect fill="#F1F1F1" height="34.1328" rx="12.5" ry="12.5" style="stroke:#181818;stroke-width:0.5;" width="112.5605" x="688.293" y="693.418"/><text fill="#000000" font-family="sans-serif" font-size="12" lengthAdjust="spacing" textLength="92.5605" x="698.293" y="715.0195">Delete temp file</text><rect fill="#F1F1F1" height="34.1328" rx="12.5" ry="12.5" style="stroke:#181818;stroke-width:0.5;" width="143.8672" x="672.6396" y="762.5508"/><text fill="#000000" font-family="sans-serif" font-size="12" lengthAdjust="spacing" textLength="123.8672" x="682.6396" y="784.1523">Return optimized JPG</text><rect fill="#F1F1F1" height="34.1328" rx="12.5" ry="12.5" style="stroke:#181818;stroke-width:0.5;" width="140.5332" x="927.2637" y="741.418"/><text fill="#000000" font-family="sans-serif" font-size="12" lengthAdjust="spacing" textLength="120.5332" x="937.2637" y="763.0195">Delete partial output</text><polygon fill="#F1F1F1" points="941.6548,693.418,1053.4058,693.418,1065.4058,705.418,1053.4058,717.418,941.6548,717.418,929.6548,705.418,941.6548,693.418" style="stroke:#181818;stroke-width:0.5;"/><text fill="#374151" font-family="'Casual'" font-size="11" lengthAdjust="spacing" textLength="15.279" x="1001.5303" y="726.218">yes</text><text fill="#000000" font-family="sans-serif" font-size="11" lengthAdjust="spacing" textLength="111.751" x="941.6548" y="709.5752">Partial output exists?</text><polygon fill="#F1F1F1" points="997.5303,799.5508,1009.5303,811.5508,997.5303,823.5508,985.5303,811.5508,997.5303,799.5508" style="stroke:#181818;stroke-width:0.5;"/><rect fill="#F1F1F1" height="34.1328" rx="12.5" ry="12.5" style="stroke:#181818;stroke-width:0.5;" width="238.4023" x="878.3291" y="891.5508"/><text fill="#000000" font-family="sans-serif" font-size="12" lengthAdjust="spacing" textLength="218.4023" x="888.3291" y="913.1523">Restore original image from temp file</text><polygon fill="#F1F1F1" points="941.2627,843.5508,1053.7979,843.5508,1065.7979,855.5508,1053.7979,867.5508,941.2627,867.5508,929.2627,855.5508,941.2627,843.5508" style="stroke:#181818;stroke-width:0.5;"/><text fill="#374151" font-family="'Casual'" font-size="11" lengthAdjust="spacing" textLength="15.279" x="1001.5303" y="876.3508">yes</text><text fill="#000000" font-family="sans-serif" font-size="11" lengthAdjust="spacing" textLength="112.5352" x="941.2627" y="859.708">Temp file still exists?</text><polygon fill="#F1F1F1" points="997.5303,945.6836,1009.5303,957.6836,997.5303,969.6836,985.5303,957.6836,997.5303,945.6836" style="stroke:#181818;stroke-width:0.5;"/><rect fill="#F1F1F1" height="34.1328" rx="12.5" ry="12.5" style="stroke:#181818;stroke-width:0.5;" width="169.2793" x="912.8906" y="989.6836"/><text fill="#000000" font-family="sans-serif" font-size="12" lengthAdjust="spacing" textLength="149.2793" x="922.8906" y="1011.2852">Capture stderr / message</text><rect fill="#F1F1F1" height="34.1328" rx="12.5" ry="12.5" style="stroke:#181818;stroke-width:0.5;" width="306.0195" x="844.5205" y="1043.8164"/><text fill="#000000" font-family="sans-serif" font-size="12" lengthAdjust="spacing" textLength="286.0195" x="854.5205" y="1065.418">Return optimization failure with original restored</text><polygon fill="#F1F1F1" points="871.0518,1083.9492,883.0518,1095.9492,871.0518,1107.9492,859.0518,1095.9492,871.0518,1083.9492" style="stroke:#181818;stroke-width:0.5;"/><polygon fill="#F1F1F1" points="556.8481,1113.9492,568.8481,1125.9492,556.8481,1137.9492,544.8481,1125.9492,556.8481,1113.9492" style="stroke:#181818;stroke-width:0.5;"/><ellipse cx="556.8481" cy="1168.9492" fill="none" rx="11" ry="11" style="stroke:#222222;stroke-width:1;"/><ellipse cx="556.8481" cy="1168.9492" fill="#222222" rx="6" ry="6" style="stroke:#222222;stroke-width:1;"/><line style="stroke:#9B2C2C;stroke-width:1;" x1="556.8481" x2="556.8481" y1="67.4883" y2="87.4883"/><polygon fill="#9B2C2C" points="552.8481,77.4883,556.8481,87.4883,560.8481,77.4883,556.8481,81.4883" style="stroke:#9B2C2C;stroke-width:1;"/><line style="stroke:#9B2C2C;stroke-width:1;" x1="292.0742" x2="292.0742" y1="386.0195" y2="406.0195"/><polygon fill="#9B2C2C" points="288.0742,396.0195,292.0742,406.0195,296.0742,396.0195,292.0742,400.0195" style="stroke:#9B2C2C;stroke-width:1;"/><line style="stroke:#9B2C2C;stroke-width:1;" x1="501.8262" x2="501.8262" y1="386.0195" y2="406.0195"/><polygon fill="#9B2C2C" points="497.8262,396.0195,501.8262,406.0195,505.8262,396.0195,501.8262,400.0195" style="stroke:#9B2C2C;stroke-width:1;"/><line style="stroke:#9B2C2C;stroke-width:1;" x1="501.8262" x2="501.8262" y1="440.1523" y2="460.1523"/><polygon fill="#9B2C2C" points="497.8262,450.1523,501.8262,460.1523,505.8262,450.1523,501.8262,454.1523" style="stroke:#9B2C2C;stroke-width:1;"/><line style="stroke:#9B2C2C;stroke-width:1;" x1="322.9785" x2="292.0742" y1="329.8867" y2="329.8867"/><line style="stroke:#9B2C2C;stroke-width:1;" x1="292.0742" x2="292.0742" y1="329.8867" y2="351.8867"/><polygon fill="#9B2C2C" points="288.0742,341.8867,292.0742,351.8867,296.0742,341.8867,292.0742,345.8867" style="stroke:#9B2C2C;stroke-width:1;"/><line style="stroke:#9B2C2C;stroke-width:1;" x1="470.9219" x2="501.8262" y1="329.8867" y2="329.8867"/><line style="stroke:#9B2C2C;stroke-width:1;" x1="501.8262" x2="501.8262" y1="329.8867" y2="351.8867"/><polygon fill="#9B2C2C" points="497.8262,341.8867,501.8262,351.8867,505.8262,341.8867,501.8262,345.8867" style="stroke:#9B2C2C;stroke-width:1;"/><line style="stroke:#9B2C2C;stroke-width:1;" x1="292.0742" x2="292.0742" y1="440.1523" y2="504.1523"/><line style="stroke:#9B2C2C;stroke-width:1;" x1="292.0742" x2="254.6445" y1="504.1523" y2="504.1523"/><polygon fill="#9B2C2C" points="264.6445,500.1523,254.6445,504.1523,264.6445,508.1523,260.6445,504.1523" style="stroke:#9B2C2C;stroke-width:1;"/><line style="stroke:#9B2C2C;stroke-width:1;" x1="396.9502" x2="396.9502" y1="297.8867" y2="317.8867"/><polygon fill="#9B2C2C" points="392.9502,307.8867,396.9502,317.8867,400.9502,307.8867,396.9502,311.8867" style="stroke:#9B2C2C;stroke-width:1;"/><line style="stroke:#9B2C2C;stroke-width:1;" x1="180.5215" x2="88.3389" y1="241.7539" y2="241.7539"/><line style="stroke:#9B2C2C;stroke-width:1;" x1="88.3389" x2="88.3389" y1="241.7539" y2="263.7539"/><polygon fill="#9B2C2C" points="84.3389,253.7539,88.3389,263.7539,92.3389,253.7539,88.3389,257.7539" style="stroke:#9B2C2C;stroke-width:1;"/><line style="stroke:#9B2C2C;stroke-width:1;" x1="304.7676" x2="396.9502" y1="241.7539" y2="241.7539"/><line style="stroke:#9B2C2C;stroke-width:1;" x1="396.9502" x2="396.9502" y1="241.7539" y2="263.7539"/><polygon fill="#9B2C2C" points="392.9502,253.7539,396.9502,263.7539,400.9502,253.7539,396.9502,257.7539" style="stroke:#9B2C2C;stroke-width:1;"/><line style="stroke:#9B2C2C;stroke-width:1;" x1="88.3389" x2="88.3389" y1="297.8867" y2="504.1523"/><line style="stroke:#9B2C2C;stroke-width:1;" x1="88.3389" x2="230.6445" y1="504.1523" y2="504.1523"/><polygon fill="#9B2C2C" points="220.6445,500.1523,230.6445,504.1523,220.6445,508.1523,224.6445,504.1523" style="stroke:#9B2C2C;stroke-width:1;"/><line style="stroke:#9B2C2C;stroke-width:1;" x1="242.6445" x2="242.6445" y1="209.7539" y2="229.7539"/><polygon fill="#9B2C2C" points="238.6445,219.7539,242.6445,229.7539,246.6445,219.7539,242.6445,223.7539" style="stroke:#9B2C2C;stroke-width:1;"/><line style="stroke:#9B2C2C;stroke-width:1;" x1="242.6445" x2="242.6445" y1="516.1523" y2="536.1523"/><polygon fill="#9B2C2C" points="238.6445,526.1523,242.6445,536.1523,246.6445,526.1523,242.6445,530.1523" style="stroke:#9B2C2C;stroke-width:1;"/><line style="stroke:#9B2C2C;stroke-width:1;" x1="334.1479" x2="334.1479" y1="658.418" y2="693.418"/><polygon fill="#9B2C2C" points="330.1479,683.418,334.1479,693.418,338.1479,683.418,334.1479,687.418" style="stroke:#9B2C2C;stroke-width:1;"/><line style="stroke:#9B2C2C;stroke-width:1;" x1="177.3525" x2="151.1411" y1="602.2852" y2="602.2852"/><line style="stroke:#9B2C2C;stroke-width:1;" x1="151.1411" x2="151.1411" y1="602.2852" y2="624.2852"/><polygon fill="#9B2C2C" points="147.1411,614.2852,151.1411,624.2852,155.1411,614.2852,151.1411,618.2852" style="stroke:#9B2C2C;stroke-width:1;"/><line style="stroke:#9B2C2C;stroke-width:1;" x1="307.9365" x2="334.1479" y1="602.2852" y2="602.2852"/><line style="stroke:#9B2C2C;stroke-width:1;" x1="334.1479" x2="334.1479" y1="602.2852" y2="624.2852"/><polygon fill="#9B2C2C" points="330.1479,614.2852,334.1479,624.2852,338.1479,614.2852,334.1479,618.2852" style="stroke:#9B2C2C;stroke-width:1;"/><line style="stroke:#9B2C2C;stroke-width:1;" x1="151.1411" x2="151.1411" y1="658.418" y2="745.5508"/><line style="stroke:#9B2C2C;stroke-width:1;" x1="151.1411" x2="230.6445" y1="745.5508" y2="745.5508"/><polygon fill="#9B2C2C" points="220.6445,741.5508,230.6445,745.5508,220.6445,749.5508,224.6445,745.5508" style="stroke:#9B2C2C;stroke-width:1;"/><line style="stroke:#9B2C2C;stroke-width:1;" x1="334.1479" x2="334.1479" y1="727.5508" y2="745.5508"/><line style="stroke:#9B2C2C;stroke-width:1;" x1="334.1479" x2="254.6445" y1="745.5508" y2="745.5508"/><polygon fill="#9B2C2C" points="264.6445,741.5508,254.6445,745.5508,264.6445,749.5508,260.6445,745.5508" style="stroke:#9B2C2C;stroke-width:1;"/><line style="stroke:#9B2C2C;stroke-width:1;" x1="242.6445" x2="242.6445" y1="570.2852" y2="590.2852"/><polygon fill="#9B2C2C" points="238.6445,580.2852,242.6445,590.2852,246.6445,580.2852,242.6445,584.2852" style="stroke:#9B2C2C;stroke-width:1;"/><line style="stroke:#9B2C2C;stroke-width:1;" x1="918.5566" x2="918.5566" y1="386.0195" y2="406.0195"/><polygon fill="#9B2C2C" points="914.5566,396.0195,918.5566,406.0195,922.5566,396.0195,918.5566,400.0195" style="stroke:#9B2C2C;stroke-width:1;"/><line style="stroke:#9B2C2C;stroke-width:1;" x1="1125.7422" x2="1125.7422" y1="386.0195" y2="406.0195"/><polygon fill="#9B2C2C" points="1121.7422,396.0195,1125.7422,406.0195,1129.7422,396.0195,1125.7422,400.0195" style="stroke:#9B2C2C;stroke-width:1;"/><line style="stroke:#9B2C2C;stroke-width:1;" x1="1125.7422" x2="1125.7422" y1="440.1523" y2="460.1523"/><polygon fill="#9B2C2C" points="1121.7422,450.1523,1125.7422,460.1523,1129.7422,450.1523,1125.7422,454.1523" style="stroke:#9B2C2C;stroke-width:1;"/><line style="stroke:#9B2C2C;stroke-width:1;" x1="948.1777" x2="918.5566" y1="329.8867" y2="329.8867"/><line style="stroke:#9B2C2C;stroke-width:1;" x1="918.5566" x2="918.5566" y1="329.8867" y2="351.8867"/><polygon fill="#9B2C2C" points="914.5566,341.8867,918.5566,351.8867,922.5566,341.8867,918.5566,345.8867" style="stroke:#9B2C2C;stroke-width:1;"/><line style="stroke:#9B2C2C;stroke-width:1;" x1="1096.1211" x2="1125.7422" y1="329.8867" y2="329.8867"/><line style="stroke:#9B2C2C;stroke-width:1;" x1="1125.7422" x2="1125.7422" y1="329.8867" y2="351.8867"/><polygon fill="#9B2C2C" points="1121.7422,341.8867,1125.7422,351.8867,1129.7422,341.8867,1125.7422,345.8867" style="stroke:#9B2C2C;stroke-width:1;"/><line style="stroke:#9B2C2C;stroke-width:1;" x1="918.5566" x2="918.5566" y1="440.1523" y2="504.1523"/><line style="stroke:#9B2C2C;stroke-width:1;" x1="918.5566" x2="883.0518" y1="504.1523" y2="504.1523"/><polygon fill="#9B2C2C" points="893.0518,500.1523,883.0518,504.1523,893.0518,508.1523,889.0518,504.1523" style="stroke:#9B2C2C;stroke-width:1;"/><line style="stroke:#9B2C2C;stroke-width:1;" x1="1022.1494" x2="1022.1494" y1="297.8867" y2="317.8867"/><polygon fill="#9B2C2C" points="1018.1494,307.8867,1022.1494,317.8867,1026.1494,307.8867,1022.1494,311.8867" style="stroke:#9B2C2C;stroke-width:1;"/><line style="stroke:#9B2C2C;stroke-width:1;" x1="811.2813" x2="719.9541" y1="241.7539" y2="241.7539"/><line style="stroke:#9B2C2C;stroke-width:1;" x1="719.9541" x2="719.9541" y1="241.7539" y2="263.7539"/><polygon fill="#9B2C2C" points="715.9541,253.7539,719.9541,263.7539,723.9541,253.7539,719.9541,257.7539" style="stroke:#9B2C2C;stroke-width:1;"/><line style="stroke:#9B2C2C;stroke-width:1;" x1="930.8223" x2="1022.1494" y1="241.7539" y2="241.7539"/><line style="stroke:#9B2C2C;stroke-width:1;" x1="1022.1494" x2="1022.1494" y1="241.7539" y2="263.7539"/><polygon fill="#9B2C2C" points="1018.1494,253.7539,1022.1494,263.7539,1026.1494,253.7539,1022.1494,257.7539" style="stroke:#9B2C2C;stroke-width:1;"/><line style="stroke:#9B2C2C;stroke-width:1;" x1="719.9541" x2="719.9541" y1="297.8867" y2="504.1523"/><line style="stroke:#9B2C2C;stroke-width:1;" x1="719.9541" x2="859.0518" y1="504.1523" y2="504.1523"/><polygon fill="#9B2C2C" points="849.0518,500.1523,859.0518,504.1523,849.0518,508.1523,853.0518,504.1523" style="stroke:#9B2C2C;stroke-width:1;"/><line style="stroke:#9B2C2C;stroke-width:1;" x1="871.0518" x2="871.0518" y1="209.7539" y2="229.7539"/><polygon fill="#9B2C2C" points="867.0518,219.7539,871.0518,229.7539,875.0518,219.7539,871.0518,223.7539" style="stroke:#9B2C2C;stroke-width:1;"/><line style="stroke:#9B2C2C;stroke-width:1;" x1="871.0518" x2="871.0518" y1="516.1523" y2="536.1523"/><polygon fill="#9B2C2C" points="867.0518,526.1523,871.0518,536.1523,875.0518,526.1523,871.0518,530.1523" style="stroke:#9B2C2C;stroke-width:1;"/><line style="stroke:#9B2C2C;stroke-width:1;" x1="871.0518" x2="871.0518" y1="570.2852" y2="590.2852"/><polygon fill="#9B2C2C" points="867.0518,580.2852,871.0518,590.2852,875.0518,580.2852,871.0518,584.2852" style="stroke:#9B2C2C;stroke-width:1;"/><line style="stroke:#9B2C2C;stroke-width:1;" x1="744.5732" x2="744.5732" y1="727.5508" y2="762.5508"/><polygon fill="#9B2C2C" points="740.5732,752.5508,744.5732,762.5508,748.5732,752.5508,744.5732,756.5508" style="stroke:#9B2C2C;stroke-width:1;"/><line style="stroke:#9B2C2C;stroke-width:1;" x1="997.5303" x2="997.5303" y1="717.418" y2="741.418"/><polygon fill="#9B2C2C" points="993.5303,731.418,997.5303,741.418,1001.5303,731.418,997.5303,735.418" style="stroke:#9B2C2C;stroke-width:1;"/><line style="stroke:#9B2C2C;stroke-width:1;" x1="1065.4058" x2="1077.7969" y1="705.418" y2="705.418"/><polygon fill="#9B2C2C" points="1073.7969,748.4844,1077.7969,758.4844,1081.7969,748.4844,1077.7969,752.4844" style="stroke:#9B2C2C;stroke-width:1;"/><line style="stroke:#9B2C2C;stroke-width:1;" x1="1077.7969" x2="1077.7969" y1="705.418" y2="811.5508"/><line style="stroke:#9B2C2C;stroke-width:1;" x1="1077.7969" x2="1009.5303" y1="811.5508" y2="811.5508"/><polygon fill="#9B2C2C" points="1019.5303,807.5508,1009.5303,811.5508,1019.5303,815.5508,1015.5303,811.5508" style="stroke:#9B2C2C;stroke-width:1;"/><line style="stroke:#9B2C2C;stroke-width:1;" x1="997.5303" x2="997.5303" y1="775.5508" y2="799.5508"/><polygon fill="#9B2C2C" points="993.5303,789.5508,997.5303,799.5508,1001.5303,789.5508,997.5303,793.5508" style="stroke:#9B2C2C;stroke-width:1;"/><line style="stroke:#9B2C2C;stroke-width:1;" x1="997.5303" x2="997.5303" y1="867.5508" y2="891.5508"/><polygon fill="#9B2C2C" points="993.5303,881.5508,997.5303,891.5508,1001.5303,881.5508,997.5303,885.5508" style="stroke:#9B2C2C;stroke-width:1;"/><line style="stroke:#9B2C2C;stroke-width:1;" x1="1065.7979" x2="1126.7314" y1="855.5508" y2="855.5508"/><polygon fill="#9B2C2C" points="1122.7314,898.6172,1126.7314,908.6172,1130.7314,898.6172,1126.7314,902.6172" style="stroke:#9B2C2C;stroke-width:1;"/><line style="stroke:#9B2C2C;stroke-width:1;" x1="1126.7314" x2="1126.7314" y1="855.5508" y2="957.6836"/><line style="stroke:#9B2C2C;stroke-width:1;" x1="1126.7314" x2="1009.5303" y1="957.6836" y2="957.6836"/><polygon fill="#9B2C2C" points="1019.5303,953.6836,1009.5303,957.6836,1019.5303,961.6836,1015.5303,957.6836" style="stroke:#9B2C2C;stroke-width:1;"/><line style="stroke:#9B2C2C;stroke-width:1;" x1="997.5303" x2="997.5303" y1="925.6836" y2="945.6836"/><polygon fill="#9B2C2C" points="993.5303,935.6836,997.5303,945.6836,1001.5303,935.6836,997.5303,939.6836" style="stroke:#9B2C2C;stroke-width:1;"/><line style="stroke:#9B2C2C;stroke-width:1;" x1="997.5303" x2="997.5303" y1="823.5508" y2="843.5508"/><polygon fill="#9B2C2C" points="993.5303,833.5508,997.5303,843.5508,1001.5303,833.5508,997.5303,837.5508" style="stroke:#9B2C2C;stroke-width:1;"/><line style="stroke:#9B2C2C;stroke-width:1;" x1="997.5303" x2="997.5303" y1="969.6836" y2="989.6836"/><polygon fill="#9B2C2C" points="993.5303,979.6836,997.5303,989.6836,1001.5303,979.6836,997.5303,983.6836" style="stroke:#9B2C2C;stroke-width:1;"/><line style="stroke:#9B2C2C;stroke-width:1;" x1="997.5303" x2="997.5303" y1="1023.8164" y2="1043.8164"/><polygon fill="#9B2C2C" points="993.5303,1033.8164,997.5303,1043.8164,1001.5303,1033.8164,997.5303,1037.8164" style="stroke:#9B2C2C;stroke-width:1;"/><line style="stroke:#9B2C2C;stroke-width:1;" x1="754.5732" x2="744.5732" y1="671.418" y2="671.418"/><line style="stroke:#9B2C2C;stroke-width:1;" x1="744.5732" x2="744.5732" y1="671.418" y2="693.418"/><polygon fill="#9B2C2C" points="740.5732,683.418,744.5732,693.418,748.5732,683.418,744.5732,687.418" style="stroke:#9B2C2C;stroke-width:1;"/><line style="stroke:#9B2C2C;stroke-width:1;" x1="987.5303" x2="997.5303" y1="671.418" y2="671.418"/><line style="stroke:#9B2C2C;stroke-width:1;" x1="997.5303" x2="997.5303" y1="671.418" y2="693.418"/><polygon fill="#9B2C2C" points="993.5303,683.418,997.5303,693.418,1001.5303,683.418,997.5303,687.418" style="stroke:#9B2C2C;stroke-width:1;"/><line style="stroke:#9B2C2C;stroke-width:1;" x1="744.5732" x2="744.5732" y1="796.6836" y2="1095.9492"/><line style="stroke:#9B2C2C;stroke-width:1;" x1="744.5732" x2="859.0518" y1="1095.9492" y2="1095.9492"/><polygon fill="#9B2C2C" points="849.0518,1091.9492,859.0518,1095.9492,849.0518,1099.9492,853.0518,1095.9492" style="stroke:#9B2C2C;stroke-width:1;"/><line style="stroke:#9B2C2C;stroke-width:1;" x1="997.5303" x2="997.5303" y1="1077.9492" y2="1095.9492"/><line style="stroke:#9B2C2C;stroke-width:1;" x1="997.5303" x2="883.0518" y1="1095.9492" y2="1095.9492"/><polygon fill="#9B2C2C" points="893.0518,1091.9492,883.0518,1095.9492,893.0518,1099.9492,889.0518,1095.9492" style="stroke:#9B2C2C;stroke-width:1;"/><line style="stroke:#9B2C2C;stroke-width:1;" x1="871.0518" x2="871.0518" y1="624.418" y2="659.418"/><polygon fill="#9B2C2C" points="867.0518,649.418,871.0518,659.418,875.0518,649.418,871.0518,653.418" style="stroke:#9B2C2C;stroke-width:1;"/><line style="stroke:#9B2C2C;stroke-width:1;" x1="497.8054" x2="242.6445" y1="153.6211" y2="153.6211"/><line style="stroke:#9B2C2C;stroke-width:1;" x1="242.6445" x2="242.6445" y1="153.6211" y2="175.6211"/><polygon fill="#9B2C2C" points="238.6445,165.6211,242.6445,175.6211,246.6445,165.6211,242.6445,169.6211" style="stroke:#9B2C2C;stroke-width:1;"/><line style="stroke:#9B2C2C;stroke-width:1;" x1="615.8909" x2="871.0518" y1="153.6211" y2="153.6211"/><line style="stroke:#9B2C2C;stroke-width:1;" x1="871.0518" x2="871.0518" y1="153.6211" y2="175.6211"/><polygon fill="#9B2C2C" points="867.0518,165.6211,871.0518,175.6211,875.0518,165.6211,871.0518,169.6211" style="stroke:#9B2C2C;stroke-width:1;"/><line style="stroke:#9B2C2C;stroke-width:1;" x1="242.6445" x2="242.6445" y1="757.5508" y2="1125.9492"/><line style="stroke:#9B2C2C;stroke-width:1;" x1="242.6445" x2="544.8481" y1="1125.9492" y2="1125.9492"/><polygon fill="#9B2C2C" points="534.8481,1121.9492,544.8481,1125.9492,534.8481,1129.9492,538.8481,1125.9492" style="stroke:#9B2C2C;stroke-width:1;"/><line style="stroke:#9B2C2C;stroke-width:1;" x1="871.0518" x2="871.0518" y1="1107.9492" y2="1125.9492"/><line style="stroke:#9B2C2C;stroke-width:1;" x1="871.0518" x2="568.8481" y1="1125.9492" y2="1125.9492"/><polygon fill="#9B2C2C" points="578.8481,1121.9492,568.8481,1125.9492,578.8481,1129.9492,574.8481,1125.9492" style="stroke:#9B2C2C;stroke-width:1;"/><line style="stroke:#9B2C2C;stroke-width:1;" x1="556.8481" x2="556.8481" y1="121.6211" y2="141.6211"/><polygon fill="#9B2C2C" points="552.8481,131.6211,556.8481,141.6211,560.8481,131.6211,556.8481,135.6211" style="stroke:#9B2C2C;stroke-width:1;"/><line style="stroke:#9B2C2C;stroke-width:1;" x1="556.8481" x2="556.8481" y1="1137.9492" y2="1157.9492"/><polygon fill="#9B2C2C" points="552.8481,1147.9492,556.8481,1157.9492,560.8481,1147.9492,556.8481,1151.9492" style="stroke:#9B2C2C;stroke-width:1;"/><?plantuml-src lLHDRzD043t7ls9K3hG72ls0YEI08AMeWPQeLDotzjWUrTwrTiSDxgzdTksaZfiM5I4kjkHv-zxCcxT-2J_HEZ9w0aVxu_rnv6v8Lygg4gvLV9DPK-jaPWfZOPaJOw_kSfMO9UaCKbMuVgKWZTnK2CPoRdg54rAPl4-DvWjL8kpCbAjLiRCTyeFk48xUzOeNXl7JeAqNQPgEamSeOnEq7I8vlZvuqqTyjDOik-BxwyFuC1uMlNu7E1eV7xmzs0ROd25YuWBXKj5PgJA4xnLJINUAnLrGEe5JHKLj1O6nkKNRH95ZPJcA9l85wHQ1mi6KXAPId4-ZY5BOxOWGb8F5nPSFUy0vQjXjqEr5eydCecA487gkCeflP26nId0QZVpnCrtL3AeGMD9i8HXDlY9MiYlAIAl28phr4SfUOLURWBgiDPGcivGsm0RYLjQZOrCrWWvgCwDlsqI1g-COCS5aA2XSM8e5zvhQw5UUoOy-3GZXOT8rmf8utr3fDpNiFLXNwpXNEiEaOr8LUziTIo8il8OIdHElGjMngJodJYYDkbVKpkfjNqYwyHUZzUHiZ3nooLwMm-pRcNHKbdwnXMhGTcwlJZqwlCmkxMWmtLOJFzpGwwTw7X2q-KhRR4tNCxHqyyNdTfdF3yfyyQUW2E8PGV7eVnCKp_HOKFeg_oCevxwxkBOMDGTn6PYnh5OD1ZFc5MPNLkcsnL2crci9Z_m2CcGmDSiNkV71dFM9jJK1su8aaUJOFTZE2HOeHlVbjwHDcXmip0ikv4T4uikJ2ck9QWCzlVSbS5sj6X0dgIWU9Rj4CTNsbjlz_gmfDuTOaV_rjMYDN-lOLZXPtvPkdM77lm40?></g></svg>